<?xml version="1.0" encoding="utf-8"?>
<!-- Generator: Adobe Illustrator 16.0.0, SVG Export Plug-In . SVG Version: 6.00 Build 0)  -->
<!DOCTYPE svg PUBLIC "-//W3C//DTD SVG 1.1//EN" "http://www.w3.org/Graphics/SVG/1.1/DTD/svg11.dtd">
<svg version="1.1" xmlns="http://www.w3.org/2000/svg" xmlns:xlink="http://www.w3.org/1999/xlink" x="0px" y="0px" width="160px"
	 height="160px" viewBox="0 0 160 160" enable-background="new 0 0 160 160" xml:space="preserve">
<g id="Layer_1">
	
		<image overflow="visible" width="553" height="571" xlink:href="Bildschirmfoto 2019-07-09 um 14.09.24.png"  transform="matrix(0.8345 -0.551 0.551 0.8345 -414.5513 -155.8994)">
	</image>
</g>
<g id="Layer_2">
	<polygon fill="#4F4F4F" stroke="#000000" stroke-miterlimit="10" points="28.18,77 34.333,101.168 32.179,104.25 40,118.334 
		40,122 51.75,128.25 72.409,118.334 40,68.667 	"/>
	<polygon fill="#4F4F4F" stroke="#000000" stroke-miterlimit="10" points="137.82,77 131.666,101.168 133.82,104.25 126,118.334 
		126,122 114.25,128.25 93.592,118.334 126,68.667 	"/>
	<path opacity="0.6" fill="#6CF1FF" stroke="#000000" stroke-miterlimit="10" d="M127.666,31.001c-7-8-28-19-44.666-19
		c-16.667,0-37.667,11-44.667,19s-12.667,31.667-1.667,52.667S83,102.196,83,102.196s35.334,2.472,46.334-18.528
		S134.666,39.001,127.666,31.001z"/>
	<path fill="#30919C" stroke="#0E3C3F" stroke-width="0.7532" stroke-miterlimit="10" d="M120.449,41.219
		C114.581,35.806,96.974,28.363,83,28.363c-13.974,0-31.582,7.443-37.45,12.855c-5.869,5.414-10.62,23.457-1.397,37.666
		C53.375,93.094,83,96.834,83,96.834s29.626-3.74,38.848-17.95C131.071,64.676,126.318,46.632,120.449,41.219z"/>
	<polygon fill="#212D30" stroke="#000000" stroke-miterlimit="10" points="44,63.334 46.667,53.001 59,47.001 72.409,48.334 
		80,57.599 	"/>
	<polygon fill="#212D30" stroke="#000000" stroke-miterlimit="10" points="122,63.334 119.334,53.001 107,47.001 93.592,48.334 
		86,57.599 	"/>
	<polygon fill="#354548" stroke="#000000" stroke-miterlimit="10" points="45,20.001 35.333,27.334 63.5,68.667 72.409,63.667 	"/>
	<polygon fill="#354548" stroke="#000000" stroke-miterlimit="10" points="121,20.001 130.666,27.334 102.5,68.667 93.592,63.667 	
		"/>
	<path fill="#2B4C53" stroke="#000000" stroke-miterlimit="10" d="M133.674,74.336C130.347,54.671,93.666,55.168,83,55.168
		c-10.667,0-47.347-0.497-50.673,19.168S83,118.334,83,118.334S137,94.001,133.674,74.336z"/>
	<path fill="#334244" stroke="#000000" stroke-miterlimit="10" d="M83,59.667c-7.873,0-25.649,1.667-32.658,7
		c1.991,1,13.158,15.333,13.158,15.333L83,86.75l19.5-4.749c0,0,11.166-14.333,13.158-15.333
		C108.648,61.334,90.873,59.667,83,59.667z"/>
	<path fill="#4F4F4F" stroke="#000000" stroke-miterlimit="10" d="M107,72.334l15,2.135c0,0-1.5,19.866-3.5,26.698S101,123,101,123
		l-6.005-31L107,72.334z"/>
	<path fill="#4F4F4F" stroke="#000000" stroke-miterlimit="10" d="M59,72.334L44,74.47c0,0,1.5,19.866,3.5,26.698S65,123,65,123
		l6.005-31L59,72.334z"/>
	<path fill="#63EBFF" stroke="#000000" stroke-miterlimit="10" d="M52.292,70.396c-9.106,0-12.796,6.938,0,6.938
		C66.126,77.333,61.976,70.396,52.292,70.396z"/>
	<path fill="#63EBFF" stroke="#000000" stroke-miterlimit="10" d="M113.225,70.408c9.639,0,13.544,7.343,0,7.343
		C98.582,77.751,102.975,70.408,113.225,70.408z"/>
	<path fill="#4F4F4F" stroke="#000000" stroke-miterlimit="10" d="M83,68.667l-21.911,4.174l2.411,52.159c0,0,8.25,8.667,19.5,8.667
		s19.5-8.667,19.5-8.667l2.41-52.159L83,68.667z"/>
	<path fill="#4F4F4F" stroke="#000000" stroke-miterlimit="10" d="M83,79.5L69.667,80v29.844c0,0,3.999,11.822,13.333,11.822
		s13.332-11.822,13.332-11.822V80L83,79.5z"/>
	<path fill="#63EBFF" stroke="#000000" stroke-miterlimit="10" d="M82.536,74.28c-13.704,0-19.256,7.439,0,7.439
		C103.354,81.72,97.108,74.28,82.536,74.28z"/>
</g>
</svg>
