<?xml version="1.0" encoding="utf-8"?>
<!-- Generator: Adobe Illustrator 16.0.0, SVG Export Plug-In . SVG Version: 6.00 Build 0)  -->
<!DOCTYPE svg PUBLIC "-//W3C//DTD SVG 1.1//EN" "http://www.w3.org/Graphics/SVG/1.1/DTD/svg11.dtd">
<svg version="1.1" id="main" xmlns="http://www.w3.org/2000/svg" xmlns:xlink="http://www.w3.org/1999/xlink" x="0px" y="0px"
	 width="64px" height="64px" viewBox="0 0 64 64" enable-background="new 0 0 64 64" xml:space="preserve">
<path fill="#C84632" stroke="#000000" stroke-width="2" stroke-miterlimit="10" d="M46.132,3.243c0,0-6.382,0.709-8.953,3.812
	s-0.354,5.851-4.167,9.486c-3.812,3.635-8.688,0.088-12.234,3.812c-3.546,3.724-1.507,10.284-4.787,13.563
	c-3.28,3.281-5.763,0.443-8.865,3.014c-3.103,2.572-3.634,4.877-3.9,8.955l13.492,13.492c0.266-4.078,0.798-6.383,3.9-8.955
	c3.103-2.57,5.585,0.268,8.865-3.014c3.28-3.279,1.241-9.84,4.787-13.563c3.547-3.724,8.422-0.177,12.234-3.812
	c3.812-3.635,1.596-6.383,4.167-9.486s8.953-3.812,8.953-3.812L46.132,3.243z"/>
<path fill="none" stroke="#E59872" stroke-width="3" stroke-linecap="round" stroke-linejoin="round" stroke-miterlimit="10" d="
	M52.039,12.679c-2.023,0.539-4.592,1.521-6.007,3.229c-2.571,3.103,0.319,5.763-3.493,9.397s-9.361,0.177-12.908,3.9
	s-1.508,10.284-4.788,13.564s-5.763,0.442-8.865,3.014c-2.413,1.999-3.27,3.838-3.658,6.474"/>
<path fill="none" stroke="#D89D75" stroke-width="3" stroke-linecap="round" stroke-linejoin="round" stroke-miterlimit="10" d="
	M48.133,8.14c-2.083,0.504-4.978,1.504-6.513,3.356c-2.571,3.103-0.354,5.851-4.167,9.486c-3.812,3.635-9.541,0.511-13.088,4.234
	c-3.546,3.724-0.654,9.862-3.934,13.141c-3.28,3.281-5.763,0.443-8.865,3.014c-2.241,1.858-3.141,3.577-3.568,5.926"/>
</svg>
