<?xml version="1.0" encoding="utf-8"?>
<!-- Generator: Adobe Illustrator 16.0.0, SVG Export Plug-In . SVG Version: 6.00 Build 0)  -->
<!DOCTYPE svg PUBLIC "-//W3C//DTD SVG 1.1//EN" "http://www.w3.org/Graphics/SVG/1.1/DTD/svg11.dtd">
<svg version="1.1" id="main" xmlns="http://www.w3.org/2000/svg" xmlns:xlink="http://www.w3.org/1999/xlink" x="0px" y="0px"
	 width="64px" height="64px" viewBox="0 0 64 64" enable-background="new 0 0 64 64" xml:space="preserve">
<path fill="#7C4820" stroke="#000000" stroke-width="1.5" stroke-linecap="round" stroke-linejoin="round" stroke-miterlimit="10" d="
	M7.5,24.667C4.486,25.069,0,31.278,1.299,38.333c1.078,5.851,4.785,13.333,13.333,12c6.879-1.073,27.288-7.929,40.034-6.083
	c6.333,0.917,7.5-7.916,6.5-14.75c-1-6.833-4.833-10.836-9.166-10.334c-3.635,0.421-10.487,2.471-13.153,1.471
	S27.327,13.678,25.333,12.5c-3.667-2.167-12.5,4.334-8.333,7.667s8.167,4.333,8.167,4.333S15.001,23.667,7.5,24.667z"/>
<polygon fill="#59371F" points="23.875,12.833 17.75,16.292 17.249,18.665 19.542,19.167 24.584,16.292 "/>
<path fill="none" stroke="#AA7957" stroke-linecap="round" stroke-linejoin="round" stroke-miterlimit="10" d="M13.167,26.5
	c4.917-0.5,24.917,0.5,28.167-1s9.75-3.583,12-4c0,0,2.604,0.334,3.396,1.605"/>
<ellipse transform="matrix(0.9523 -0.3053 0.3053 0.9523 -10.94 5.2965)" fill="#60391F" stroke="#51290F" stroke-miterlimit="10" cx="11.464" cy="37.625" rx="8.83" ry="11.298"/>
<path fill="none" stroke="#000000" stroke-linecap="round" stroke-linejoin="round" stroke-miterlimit="10" d="M20.251,19.167
	c1.5-0.333,4.333-1.917,4.333-3.417"/>
<path fill="none" stroke="#51290F" stroke-width="4" stroke-linecap="round" stroke-linejoin="round" stroke-miterlimit="10" d="
	M23.418,44.583c4.833-1.667,24.75-5.333,32.25-3.75"/>
<path fill="none" stroke="#AA7957" stroke-linecap="round" stroke-linejoin="round" stroke-miterlimit="10" d="M24.584,14.25
	c3.309-0.133,14.167,10.25,15.833,8.667"/>
<polygon fill="#AA7957" points="19.084,28.596 26.501,28.596 20.584,30 "/>
<polygon fill="#AA7957" points="56.472,24.192 49.104,25.031 54.823,22.967 "/>
<polygon fill="#472209" points="58.623,39.084 57.165,37.834 49.873,37.542 59.665,35.167 "/>
<polygon fill="#472209" points="23.286,40.125 30.749,39.583 23.286,41.672 "/>
<polygon fill="#472209" points="23.286,35.125 30.749,34.583 23.286,36.672 "/>
<polygon fill="#472209" points="59.662,33.19 52.182,32.993 59.814,31.65 "/>
<ellipse transform="matrix(0.9522 -0.3054 0.3054 0.9522 -10.9422 5.2981)" fill="none" stroke="#51290F" stroke-linecap="round" stroke-linejoin="round" stroke-miterlimit="10" cx="11.464" cy="37.625" rx="2.833" ry="5.437"/>
<ellipse transform="matrix(0.9522 -0.3053 0.3053 0.9522 -10.9414 5.2975)" fill="none" stroke="#51290F" stroke-miterlimit="10" cx="11.464" cy="37.625" rx="6.516" ry="9.506"/>
<path fill="none" stroke="#000000" stroke-linecap="round" stroke-linejoin="round" stroke-miterlimit="10" d="M15.584,27.583
	c3.583,1.833,10.417,12.416,4,20.083"/>
</svg>
