<?xml version="1.0" encoding="utf-8"?>
<!-- Generator: Adobe Illustrator 16.0.0, SVG Export Plug-In . SVG Version: 6.00 Build 0)  -->
<!DOCTYPE svg PUBLIC "-//W3C//DTD SVG 1.1//EN" "http://www.w3.org/Graphics/SVG/1.1/DTD/svg11.dtd">
<svg version="1.1" id="Layer_1" xmlns="http://www.w3.org/2000/svg" xmlns:xlink="http://www.w3.org/1999/xlink" x="0px" y="0px"
	 width="320px" height="80px" viewBox="0 0 320 80" enable-background="new 0 0 320 80" xml:space="preserve">
<g id="Layer_2">
	<path fill="#14C618" d="M177.458,33c-2.161,0.041-3.608-0.87-5.569-1.746c-2.812-1.255-5.863-1.329-8.873-1.548
		c-0.229-0.017-0.558,0-0.685,0.142c-0.366,0.407-0.914,0.893-0.904,1.336c0.013,0.513,0.425,1.261,0.869,1.477
		c1.534,0.739,3.163,1.278,4.746,1.917c1.616,0.652,3.272,0.846,4.877,0.122c1.423-0.644,2.843-0.696,4.312-0.398
		c1.679,0.34,3.336,0.762,5.016,1.088C182.461,35.626,180.379,34.035,177.458,33z"/>
	<path fill="#14C618" d="M232.611,51.975c-0.107-0.326-0.521-0.589-0.82-0.847c-0.534-0.457-1.091-0.889-1.639-1.331
		c0.125-0.036,0.248-0.07,0.373-0.105c-0.031-0.524,0.146-1.246-0.131-1.545c-1.053-1.138-0.94-1.854,0.568-2.359
		c-0.086-0.271-0.172-0.547-0.354-1.133c0.826,0,1.5-0.119,2.107,0.027c1.112,0.271,2.167,0.781,3.281,1.039
		c0.87,0.201,1.795,0.17,2.768,0.247c-0.154-1.405-0.979-1.672-1.798-1.845c-1.125-0.24-2.284-0.318-3.407-0.572
		c-0.688-0.154-1.513-0.294-1.602-1.308c0.915-0.44,2.096,0.374,3.049-0.808c-2.095,0-4.005,0.276-5.787-0.078
		c-1.787-0.357-3.447-1.352-5.162-2.062c0.021-0.051,0.047-0.102,0.068-0.152c0.27,0.049,0.538,0.097,0.982,0.177
		c-0.592-0.427-1.016-0.732-1.438-1.038c-0.009-0.138-0.02-0.275-0.025-0.414c1.084-0.419,2.151-0.881,3.254-1.247
		c0.973-0.322,2.022-0.426,2.959-0.82c4.424-1.868,5.574-4.629,2.283-2.885c-0.438,0.231-0.906,0.404-1.345,0.597
		c-0.237-0.59-0.419-1.033-0.599-1.476c-0.104,0.034-0.205,0.068-0.309,0.103c0.119,0.506,0.238,1.012,0.373,1.578
		c-0.431,0.165-0.865,0.461-1.312,0.48c-1.396,0.06-2.81,0.12-4.188-0.035c-0.676-0.075-0.951-0.644-0.492-1.443
		c0.485-0.85,0.807-1.811,1.104-2.753c0.799-2.502,1.258-5.175,3.746-6.775c-0.351-0.016-0.666,0.146-0.878,0.057
		c-1.335-0.557-1.938,0.408-2.643,1.197c-0.396,0.444-0.789,0.901-1.24,1.285c-0.322,0.275-0.838,0.702-1.103,0.606
		c-1.298-0.47-2.539-1.093-3.981-1.745c3.558-3.147,6.229-6.399,6.83-10.922c-0.767,0.889-1.32,1.905-1.912,2.899
		c-0.908,1.527-1.818,3.056-2.777,4.552c-0.338,0.527-0.771,0.609-1.412,0.218c-0.389-0.237-1.146-0.217-1.564,0.008
		c-1.084,0.576-2.029,1.41-3.11,1.993c-1.104,0.595-2.3,1.015-3.455,1.511c-0.065-0.116-0.135-0.233-0.201-0.35
		c0.104-0.306,0.204-0.61,0.322-0.962c-0.378,0.067-0.63,0.111-0.938,0.166c-0.045-0.641,0.026-1.228-0.142-1.735
		c-0.937-2.829-0.97-5.655-0.324-8.558c0.232-1.049-0.133-2.107-1.217-2.774c-1.474,1.167-0.931,2.673-0.854,4.101
		c0.062,1.243,0.164,2.506,0.019,3.733c-0.128,1.071-0.606,2.097-0.88,3.155c-0.233,0.909-0.247,1.918-1.403,2.42
		c-1.094-1.192-2.331-2.292-3.25-3.612c-0.907-1.307-1.497-2.836-2.226-4.267c-0.105,0.034-0.213,0.069-0.316,0.104
		c0.624,2.486,1.2,4.986,1.893,7.454c0.396,1.405,0.32,1.829-0.899,2.683c-1.821,1.272-3.474,0.517-4.938-0.588
		c-1.615-1.217-3.076-2.64-4.584-3.997c-0.256-0.23-0.396-0.589-0.598-0.882c-1.023-1.494-2.999,0.352-4.104-1.083
		c-0.726-0.942-1.27-1.835-1.271-3.103c-0.002-0.72-0.46-1.477-0.835-2.147c-0.851-1.515-1.753-2.999-2.675-4.47
		c-0.415-0.662-0.797-1.488-1.42-1.847c-1.883-1.083-3.01-2.788-4.217-4.472c-0.807-1.127-1.703-2.194-2.629-3.228
		c-0.502-0.559-1.18-0.887-1.861-0.224c-0.662,0.641-0.955,1.387-0.303,2.209c0.791,0.996,1.693,1.913,2.398,2.965
		c0.688,1.029,1.45,2.128,1.702,3.3c0.278,1.303,0.769,2.207,1.957,2.748c1.438,0.654,2.403,1.753,3.146,3.14
		c0.461,0.862,0.982,1.852,1.756,2.36c2.123,1.397,4.39,0.048,5.634,2.137c1.344,2.253,2.548,4.611,4.104,6.709
		c0.822,1.11,0.955,2.233,1.052,3.418c0.104,1.267-0.609,1.688-1.752,1.167c-0.533-0.243-1.037-0.551-1.598-0.852
		c-0.092,0.099-0.215,0.199-0.296,0.326c-0.884,1.369-2.174,2.105-3.687,2.673c-1.826,0.688-2.877-0.565-4.205-1.286
		c-1.625-0.883-3.323-1.632-5.021-2.38c-0.237-0.105-0.84,0.048-0.896,0.213c-0.111,0.316-0.088,0.853,0.119,1.074
		c0.393,0.417,0.938,0.701,1.442,0.995c1.544,0.893,3.202,1.626,4.629,2.678c1.815,1.341,3.522,2.897,2.451,5.641
		c0.313,0.11,0.562,0.239,0.813,0.279c1.488,0.228,1.765,0.782,0.996,2.134c-0.932,1.639-2.356,2.574-4.221,2.76
		c-1.462,0.146-16.113,2.447-17.558,2.678c-1.138,0.181-2.335,0.501-3.298,1.095c-0.939,0.578-0.849,1.388,0.168,1.794
		c1.058,0.428,2.295,0.768,3.395,0.637c1.555-0.188,16.189-3.344,17.741-3.646c1.491-0.294,3.047-0.494,4.556-0.404
		c1.666,0.1,2.453,1.176,2.651,2.99c0.123,1.118-0.403,1.74-2.003,2.387c-0.104,0.041-0.178,0.152-0.327,0.287
		c0.16,0.213,0.278,0.479,0.483,0.622c0.737,0.521,1.487,1.001,0.367,1.875c-0.052,0.04-0.105,0.151-0.086,0.19
		c0.672,1.27-0.255,2.238-0.636,3.298c-0.371,1.043-0.97,2.024-1.19,3.092c-0.104,0.489,0.448,1.119,0.705,1.687
		c0.396-0.279,0.887-0.489,1.182-0.854c0.494-0.611,0.809-1.372,1.309-1.979c0.588-0.715,1.514-0.776,2.141-0.272
		c0.344,0.272,0.23,1.147,0.26,1.756c0.01,0.212-0.146,0.458-0.282,0.646c-1.332,1.815-2.688,3.613-4.008,5.438
		c-0.382,0.528-0.714,1.108-0.955,1.712c-0.086,0.213,0.085,0.68,0.284,0.812c0.169,0.11,0.604-0.017,0.816-0.177
		c0.439-0.332,0.879-0.709,1.195-1.15c1.083-1.521,2.027-3.15,3.191-4.604c0.854-1.062,1.863-2.076,2.994-2.818
		c1.287-0.842,1.707-0.574,1.996,0.947c0.604,3.17,0.305,6.217-1.119,9.176c-0.592,1.229-0.979,2.621-1.152,3.978
		c-0.26,2.037,1.213,3.336,3.129,2.992c2.801-0.503,4.812-4.179,3.645-6.747c-0.478-1.047-1.051-2.059-1.686-3.02
		c-2.18-3.299-0.918-6.301,1.508-8.363c2.303-1.959,5.026-3.297,8.069-3.557c1.304-0.111,2.853,0.139,3.959,0.783
		c1.765,1.033,3.278,2.512,4.856,3.85c2.187,1.854,4.041,3.949,4.565,6.914c0.049,0.271,0.146,0.539,0.271,0.783
		c0.426,0.869,1.469,1.422,2.006,1.08c0.582-0.367,0.549-1.418-0.073-2.27c-0.022-0.03-0.054-0.061-0.073-0.096
		c-0.586-0.965-1.199-1.914-1.75-2.897c-0.6-1.075-1.088-2.216-1.72-3.271c-1-1.67-0.642-3.221,0.983-4.221
		c0.631-0.389,1.127-0.992,1.746-1.404c0.354-0.235,0.889-0.479,1.25-0.379c0.67,0.182,1.135,0.198,1.715-0.299
		c0.381-0.324,1.101-0.389,1.588-0.4C231.75,55.375,233.223,53.824,232.611,51.975z"/>
	<path fill="#14C618" d="M185.643,67.916c-1.733-0.012-3.521,1.621-3.512,3.205c0.01,1.372,1.368,2.436,3.122,2.445
		c1.874,0.011,3.417-1.488,3.375-3.28C188.602,69.115,187.102,67.925,185.643,67.916z"/>
	<path fill="#14C618" d="M186.311,24.416c-1.734-0.011-3.522,1.621-3.513,3.205c0.011,1.372,1.368,2.435,3.122,2.445
		c1.874,0.011,4.624,0.56,4.582-1.232C190.475,27.663,187.77,24.425,186.311,24.416z"/>
	<path fill="#14C618" d="M173.957,52.166c-1.736-0.012-3.523,1.621-3.512,3.205c0.01,1.372,1.367,2.436,3.121,2.445
		c1.875,0.011,12.477-3.358,12.435-5.15C185.975,51.495,175.416,52.175,173.957,52.166z"/>
	<path fill="#14C618" d="M175.643,36.152c-1.733-0.011-3.521,1.621-3.512,3.205c0.01,1.372,1.368,2.435,3.122,2.445
		c1.874,0.011,6.418-1.032,6.376-2.825C181.602,37.807,177.102,36.161,175.643,36.152z"/>
	<path fill="#14C618" d="M171.999,17.729c-1.615-0.638-3.872,0.237-4.435,1.718c-0.485,1.283,0.396,2.765,2.025,3.409
		c1.743,0.688,10.467,3.246,11.074,1.56C181.064,23.314,173.355,18.265,171.999,17.729z"/>
	<path fill="#14C618" d="M165.809,68.932c1.459,0.01,2.957,1.199,2.984,2.37c0.042,1.792-1.501,3.291-3.375,3.28
		c-1.754-0.012-3.111-1.073-3.122-2.445C162.283,70.553,164.07,68.921,165.809,68.932z"/>
</g>
<circle fill="#343334" cx="38.349" cy="39.989" r="32.946"/>
<circle fill="#D5E8C3" cx="38.349" cy="39.989" r="31.081"/>
<path fill="#D6CC6B" stroke="#404041" stroke-width="1.0656" stroke-miterlimit="10" d="M68.396,29.883
	c2.003-2.262,3.953-5.746,1.671-9.384c-2.966-4.73-7.033-4.57-9.916-3.612C63.897,20.42,66.766,24.871,68.396,29.883z"/>
<path fill="#7092AC" stroke="#404041" stroke-width="1.0656" stroke-miterlimit="10" d="M38.349,8.418
	c2.827,0,5.563,0.384,8.167,1.092c-0.636-3.029-2.393-7.507-7.235-7.575c-6.29-0.087-8.129,4.371-8.65,7.449
	C33.099,8.755,35.685,8.418,38.349,8.418z"/>
<path fill="#D6CC6B" stroke="#404041" stroke-width="1.0656" stroke-miterlimit="10" d="M68.396,50.094
	c2.003,2.264,3.953,5.746,1.671,9.385c-2.966,4.729-7.033,4.569-9.916,3.611C63.897,59.557,66.766,55.105,68.396,50.094z"/>
<path fill="#7092AC" stroke="#404041" stroke-width="1.0656" stroke-miterlimit="10" d="M38.349,71.561
	c2.827,0,5.563-0.386,8.167-1.094c-0.636,3.029-2.393,7.508-7.235,7.574c-6.29,0.087-8.129-4.37-8.65-7.449
	C33.099,71.223,35.685,71.561,38.349,71.561z"/>
<circle fill="#FCFAE1" cx="38.349" cy="39.989" r="28.328"/>
<path fill="#343334" d="M32.213,65.617c6.454,0.007,18.983-3.987,22.021-7.024c3.038-3.038,7.03-9.683,7.03-18.604
	c0-8.922-3.993-15.566-7.03-18.604c-3.038-3.037-15.567-7.031-22.021-7.024c-7.858,0.009-15.709,9.569-17.475,20.924
	c-0.242,1.344-0.371,2.897-0.371,4.705c0,1.808,0.128,3.361,0.371,4.705C16.504,56.049,24.355,65.607,32.213,65.617z"/>
<path fill="#A9CF40" d="M32.488,63.965c6.039,0.008,17.76-3.729,20.602-6.57c2.842-2.843,4.618-9.059,4.618-17.405
	c0-8.347-1.776-14.563-4.618-17.405c-2.842-2.841-14.563-6.578-20.602-6.571c-7.351,0.008-14.696,8.952-16.348,19.575
	c-0.226,1.257-0.347,2.711-0.347,4.401s0.121,3.144,0.347,4.401C17.792,55.014,25.137,63.957,32.488,63.965z"/>
<path fill="#80C46B" stroke="#006838" stroke-width="0.2664" stroke-miterlimit="10" d="M36.484,20.629
	c-0.707-1.555-7.175,0.204-5.86,3.197C31.938,26.82,37.372,22.583,36.484,20.629z"/>
<path fill="#80C46B" stroke="#006838" stroke-width="0.2664" stroke-miterlimit="10" d="M43.757,25.947
	c0.035-1.708-6.559-2.916-6.667,0.352C36.982,29.565,43.713,28.092,43.757,25.947z"/>
<path fill="#80C46B" stroke="#006838" stroke-width="0.2664" stroke-miterlimit="10" d="M40.657,20.604
	c-1.172-1.469-2.752-1.173-2.752,0.115C37.905,21.972,39.645,21.483,40.657,20.604z"/>
<path fill="#80C46B" stroke="#006838" stroke-width="0.2664" stroke-miterlimit="10" d="M36.484,59.348
	c-0.707,1.555-7.175-0.203-5.86-3.195C31.938,53.158,37.372,57.395,36.484,59.348z"/>
<path fill="#80C46B" stroke="#006838" stroke-width="0.2664" stroke-miterlimit="10" d="M43.757,54.029
	c0.035,1.707-6.559,2.916-6.667-0.35C36.982,50.412,43.713,51.886,43.757,54.029z"/>
<path fill="#80C46B" stroke="#006838" stroke-width="0.2664" stroke-miterlimit="10" d="M40.657,59.373
	c-1.172,1.469-2.752,1.173-2.752-0.114C37.905,58.006,39.645,58.494,40.657,59.373z"/>
<ellipse fill="#343334" cx="43.144" cy="39.989" rx="11.011" ry="14.741"/>
<ellipse fill="#C8DFE6" cx="43.144" cy="39.989" rx="9.768" ry="13.675"/>
<ellipse fill="#FFFFFF" cx="44.743" cy="39.988" rx="7.815" ry="11.898"/>
<ellipse fill="#343334" cx="46.341" cy="39.988" rx="4.885" ry="7.016"/>
<ellipse transform="matrix(0.8211 -0.5708 0.5708 0.8211 -12.0238 32.1508)" fill="#FFFFFF" cx="45.277" cy="35.256" rx="1.9" ry="3.315"/>
<path fill="#CEDC34" stroke="#006838" stroke-width="0.2664" stroke-miterlimit="10" d="M30.535,39.989L30.535,39.989L30.535,39.989
	c0-4.53,1.421-12.077,4.884-14.742c-8.081,1.688-8.258,12.521-8.258,14.741l0,0l0,0c0,2.22,0.178,13.053,8.258,14.741
	C31.956,52.064,30.535,44.518,30.535,39.989z"/>
<path fill="#39724B" stroke="#9E1F63" stroke-width="0.5328" stroke-miterlimit="10" d="M23.486,24.556
	c-1.008-0.616-4.875,2.986-2.966,4.189C22.429,29.949,24.753,25.33,23.486,24.556z"/>
<path fill="#39724B" stroke="#9E1F63" stroke-width="0.5328" stroke-miterlimit="10" d="M23.486,55.421
	c-1.008,0.616-4.875-2.985-2.966-4.188S24.753,54.648,23.486,55.421z"/>
<path fill="#80C46B" stroke="#006838" stroke-width="0.2664" stroke-miterlimit="10" d="M15.793,39.989
	c0,1.69,0.121,3.144,0.347,4.401c1.652,10.623,8.997,19.566,16.348,19.574c1.16,0.001,2.531-0.136,4.007-0.379
	C26.13,59.665,21.699,47.943,21.699,39.989c0-7.955,4.431-19.677,14.796-23.598c-1.476-0.242-2.847-0.379-4.007-0.378
	c-7.351,0.008-14.696,8.952-16.348,19.575C15.914,36.845,15.793,38.298,15.793,39.989z"/>
</svg>
