<?xml version="1.0" encoding="utf-8"?>
<!-- Generator: Adobe Illustrator 16.0.0, SVG Export Plug-In . SVG Version: 6.00 Build 0)  -->
<!DOCTYPE svg PUBLIC "-//W3C//DTD SVG 1.1//EN" "http://www.w3.org/Graphics/SVG/1.1/DTD/svg11.dtd">
<svg version="1.1" xmlns="http://www.w3.org/2000/svg" xmlns:xlink="http://www.w3.org/1999/xlink" x="0px" y="0px" width="320px"
	 height="80px" viewBox="0 0 320 80" enable-background="new 0 0 320 80" xml:space="preserve">
<g id="Layer_1">
	<g id="hands">
		<g>
			<g>
				<ellipse fill="#2EE81A" stroke="#000000" stroke-miterlimit="10" cx="61.533" cy="18.648" rx="13.083" ry="11.647"/>
				<ellipse fill="#2EE81A" stroke="#000000" stroke-miterlimit="10" cx="61.533" cy="60.872" rx="13.083" ry="11.646"/>
			</g>
		</g>
	</g>
	<circle fill="#FFFFFF" stroke="#000000" stroke-miterlimit="10" cx="36.282" cy="39.886" r="29.681"/>
	<path fill="#FF7300" stroke="#000000" stroke-miterlimit="10" d="M39.592,58.221c-0.906-1.557-2.619-2.687-4.668-2.863
		c-1.404-0.123-2.732,0.222-3.803,0.893c-0.492-1.166-1.384-2.21-2.607-2.915c-1.231-0.711-2.587-0.937-3.85-0.771
		c0.054-1.273-0.288-2.605-1.105-3.771c-0.808-1.154-1.925-1.951-3.127-2.341c0.576-1.126,0.803-2.479,0.557-3.87
		c-0.245-1.389-0.92-2.583-1.845-3.443c0.998-0.777,1.775-1.909,2.14-3.272c0.368-1.371,0.255-2.748-0.228-3.924
		c1.236-0.281,2.425-0.954,3.333-2.037c0.908-1.083,1.364-2.369,1.427-3.634c1.243,0.271,2.619,0.144,3.906-0.457
		c1.278-0.596,2.257-1.558,2.849-2.674c1.009,0.763,2.303,1.221,3.714,1.221c3.221,0,5.833-2.388,5.833-5.334
		c0-0.138-0.011-0.274-0.022-0.409c2.211-0.378,4.027-1.943,4.466-4.107c0.588-2.886-1.496-5.746-4.653-6.389
		C40.39,7.811,38.903,8.076,37.7,8.75c-0.008-0.125-0.015-0.251-0.033-0.377c-0.415-2.916-3.339-4.91-6.528-4.455
		c-2.657,0.381-4.654,2.343-5.008,4.673c-1.653-1.673-4.404-2.103-6.775-0.855c-2.244,1.182-3.457,3.496-3.206,5.7l-0.249,0.249
		c-2.071-0.831-4.633-0.272-6.361,1.606c-1.813,1.973-2.104,4.742-0.91,6.77c-2.342-0.255-4.75,1.172-5.798,3.643
		c-1.043,2.463-0.404,5.177,1.393,6.688c-2.28,0.556-4.057,2.704-4.214,5.373c-0.155,2.67,1.358,5.01,3.558,5.831
		c-1.961,1.289-2.913,3.909-2.164,6.479c0.753,2.574,2.978,4.273,5.334,4.297c-1.422,1.874-1.458,4.654,0.113,6.827
		c1.569,2.166,4.223,3.021,6.444,2.264c-0.702,2.24,0.219,4.869,2.424,6.386c2.209,1.516,4.991,1.408,6.829-0.059
		c0.08,2.354,1.833,4.534,4.428,5.223c2.586,0.686,5.182-0.33,6.422-2.322c0.874,2.18,3.251,3.631,5.917,3.408
		c3.211-0.271,5.614-2.867,5.369-5.805c-0.076-0.896-0.393-1.723-0.885-2.427c2.408-1.511,3.464-4.417,2.356-6.858
		C45.067,58.609,42.267,57.484,39.592,58.221z"/>
	<path fill="#FF0000" stroke="#000000" stroke-miterlimit="10" d="M63.584,39.886c0,2.521-0.175,4.667,1.872,5.482
		c0.569,0.228,1.185,0.351,1.826,0.351c2.946,0,5.334-2.611,5.334-5.833c0-3.221-2.388-5.833-5.334-5.833
		c-0.641,0-1.255,0.124-1.824,0.35C63.41,35.218,63.584,37.365,63.584,39.886z"/>
	<path fill="#FF0000" d="M70.977,53.866c1.045,1.436-0.477,3.885-2.06,3.551s-2.083,3.083,0,2.333s4.167-2.583,4.167-0.5
		S71.167,59.667,71,61.667s1.917,1.666,1.25,3.083S70,66.333,69,65.833s-1.167-3.582-2.583-2.166s-0.053,3.167,0.682,3.25
		c0.735,0.083,1.735,0,1.735,1.083s-0.579,2.303-1.073,2.579c-0.494,0.276,4.855-2.496,6.156-7.246
		c1.005-3.673-0.992-8.647-2.75-9.833"/>
	<path fill="#FF0000" d="M70.977,25.231c1.045-1.436-0.477-3.885-2.06-3.551s-2.083-3.083,0-2.333s4.167,2.583,4.167,0.5
		S71.167,19.431,71,17.431s1.917-1.666,1.25-3.083S70,12.765,69,13.265s-1.167,3.582-2.583,2.166s-0.053-3.167,0.682-3.25
		c0.735-0.083,1.735,0,1.735-1.083s-0.579-2.303-1.073-2.579c-0.494-0.276,4.855,2.496,6.156,7.246
		c1.005,3.673-0.992,8.648-2.75,9.833"/>
	<path opacity="0.5" fill="#FFFFFF" stroke="#000000" stroke-miterlimit="10" enable-background="new    " d="M304.359,49.507
		c0.459-1.341,0.824-2.723,1.09-4.143c0.003,0.001,0.004,0.003,0.007,0.004c0.569,0.228,1.185,0.351,1.826,0.351
		c2.946,0,5.334-2.611,5.334-5.833c0-3.221-2.388-5.833-5.334-5.833c-0.642,0-1.255,0.124-1.824,0.35
		c-0.003,0.001-0.005,0.003-0.008,0.004c-0.28-1.501-0.673-2.962-1.169-4.375c5.904-1.125,10.335-5.792,10.335-11.385
		c0-6.433-5.857-11.647-13.083-11.647c-5.137,0-9.569,2.642-11.711,6.476c-1.1-0.566-2.237-1.071-3.413-1.498
		c-0.61-1.871-2.29-3.408-4.5-3.858c-1.519-0.309-3.005-0.043-4.208,0.631c-0.008-0.125-0.016-0.251-0.033-0.377
		c-0.415-2.916-3.339-4.91-6.527-4.455c-2.658,0.381-4.654,2.343-5.009,4.673c-1.653-1.673-4.403-2.103-6.774-0.855
		c-2.244,1.182-3.457,3.496-3.207,5.7l-0.248,0.249c-2.07-0.831-4.633-0.272-6.36,1.606c-1.812,1.973-2.104,4.742-0.91,6.77
		c-2.342-0.255-4.75,1.172-5.798,3.643c-1.043,2.463-0.402,5.177,1.395,6.688c-2.281,0.556-4.059,2.704-4.215,5.373
		c-0.154,2.67,1.357,5.009,3.559,5.832c-1.961,1.289-2.913,3.908-2.164,6.478c0.753,2.575,2.978,4.274,5.334,4.297
		c-1.422,1.874-1.458,4.655,0.113,6.827c1.567,2.166,4.223,3.021,6.442,2.264c-0.7,2.24,0.22,4.869,2.425,6.385
		c2.209,1.518,4.99,1.409,6.828-0.058c0.08,2.354,1.833,4.534,4.43,5.224c2.586,0.686,5.182-0.332,6.422-2.324
		c0.873,2.181,3.25,3.631,5.916,3.408c3.211-0.27,5.615-2.867,5.369-5.804c-0.056-0.644-0.236-1.245-0.515-1.796
		c2.015-0.555,3.94-1.314,5.759-2.258c2.182,3.728,6.555,6.277,11.604,6.277c7.226,0,13.083-5.215,13.083-11.646
		C314.616,55.305,310.225,50.657,304.359,49.507z"/>
	<path opacity="0.5" fill="none" stroke="#000000" stroke-miterlimit="10" enable-background="new    " d="M303.584,39.886
		c0-2.512-0.17-4.651,1.854-5.473c-1.939-10.4-9.287-18.897-19.028-22.434c0.262,0.802,0.329,1.665,0.153,2.53
		c-0.439,2.164-2.256,3.729-4.467,4.107c0.012,0.135,0.021,0.271,0.021,0.409c0,2.946-2.612,5.334-5.833,5.334
		c-1.411,0-2.705-0.458-3.716-1.221c-0.592,1.116-1.569,2.078-2.848,2.674c-1.287,0.601-2.664,0.728-3.906,0.457
		c-0.062,1.265-0.52,2.551-1.428,3.634s-2.097,1.756-3.332,2.037c0.482,1.176,0.596,2.553,0.229,3.924
		c-0.365,1.363-1.143,2.495-2.141,3.271c0.924,0.86,1.601,2.054,1.846,3.443c0.244,1.392,0.019,2.744-0.559,3.87
		c1.202,0.39,2.319,1.186,3.127,2.341c0.817,1.166,1.159,2.498,1.105,3.771c1.263-0.164,2.619,0.062,3.85,0.771
		c1.223,0.705,2.115,1.749,2.607,2.915c1.07-0.671,2.398-1.015,3.803-0.892c2.049,0.177,3.762,1.307,4.668,2.862
		c2.676-0.735,5.475,0.39,6.564,2.788c1.109,2.441,0.053,5.35-2.355,6.858c0.141,0.2,0.262,0.411,0.371,0.631
		c10.839-2.981,19.184-11.957,21.271-23.138C303.412,44.541,303.584,42.4,303.584,39.886z"/>
	<g id="hands_2_">
		<g>
			<g>
				<ellipse fill="#CE1515" stroke="#000000" stroke-miterlimit="10" cx="141.533" cy="18.648" rx="13.083" ry="11.647"/>
				<ellipse fill="#CE1515" stroke="#000000" stroke-miterlimit="10" cx="141.533" cy="60.872" rx="13.083" ry="11.646"/>
			</g>
		</g>
	</g>
	<circle fill="#FF6464" stroke="#000000" stroke-miterlimit="10" cx="116.282" cy="39.886" r="29.681"/>
	<path fill="#C93912" stroke="#000000" stroke-miterlimit="10" d="M119.592,58.221c-0.906-1.557-2.619-2.687-4.668-2.863
		c-1.404-0.123-2.732,0.222-3.803,0.893c-0.492-1.166-1.385-2.21-2.607-2.915c-1.23-0.711-2.587-0.937-3.85-0.771
		c0.054-1.273-0.288-2.605-1.105-3.771c-0.808-1.154-1.925-1.951-3.127-2.341c0.576-1.126,0.803-2.479,0.558-3.87
		c-0.245-1.389-0.921-2.583-1.845-3.443c0.998-0.777,1.774-1.909,2.14-3.272c0.368-1.371,0.255-2.748-0.228-3.924
		c1.235-0.281,2.424-0.954,3.332-2.037c0.908-1.083,1.364-2.369,1.428-3.634c1.242,0.271,2.619,0.144,3.906-0.457
		c1.277-0.596,2.256-1.558,2.848-2.674c1.01,0.763,2.304,1.221,3.715,1.221c3.221,0,5.833-2.388,5.833-5.334
		c0-0.138-0.012-0.274-0.021-0.409c2.211-0.378,4.026-1.943,4.467-4.107c0.588-2.886-1.496-5.746-4.653-6.389
		c-1.519-0.309-3.005-0.043-4.208,0.631c-0.008-0.125-0.016-0.251-0.033-0.377c-0.415-2.916-3.339-4.91-6.527-4.455
		c-2.658,0.381-4.654,2.343-5.009,4.673c-1.653-1.673-4.403-2.103-6.774-0.855c-2.244,1.182-3.457,3.496-3.207,5.7l-0.248,0.249
		c-2.071-0.831-4.633-0.272-6.361,1.606c-1.812,1.973-2.104,4.742-0.91,6.77c-2.342-0.255-4.75,1.172-5.798,3.643
		c-1.043,2.463-0.403,5.177,1.394,6.688c-2.28,0.556-4.058,2.704-4.215,5.373c-0.154,2.67,1.358,5.01,3.559,5.831
		c-1.961,1.289-2.913,3.909-2.164,6.479c0.753,2.574,2.978,4.273,5.334,4.297c-1.422,1.874-1.458,4.654,0.113,6.827
		c1.568,2.166,4.223,3.021,6.443,2.264c-0.701,2.24,0.219,4.869,2.424,6.386c2.209,1.517,4.991,1.408,6.829-0.059
		c0.08,2.354,1.833,4.534,4.429,5.225c2.586,0.685,5.182-0.332,6.422-2.324c0.873,2.18,3.25,3.631,5.916,3.408
		c3.211-0.271,5.616-2.867,5.37-5.805c-0.076-0.896-0.394-1.721-0.885-2.427c2.407-1.511,3.465-4.417,2.355-6.858
		C125.066,58.609,122.268,57.484,119.592,58.221z"/>
	<path fill="#FF0000" stroke="#000000" stroke-miterlimit="10" d="M143.584,39.886c0,2.521-0.175,4.667,1.872,5.482
		c0.569,0.228,1.185,0.351,1.826,0.351c2.946,0,5.334-2.611,5.334-5.833c0-3.221-2.388-5.833-5.334-5.833
		c-0.642,0-1.255,0.124-1.824,0.35C143.41,35.218,143.584,37.365,143.584,39.886z"/>
	<path fill="#FF0000" d="M150.977,53.866c1.045,1.436-0.477,3.885-2.06,3.551s-2.083,3.083,0,2.333s4.167-2.583,4.167-0.5
		s-1.917,0.417-2.083,2.417s1.917,1.666,1.25,3.083S150,66.333,149,65.833s-1.167-3.582-2.583-2.166s-0.053,3.167,0.683,3.25
		c0.734,0.083,1.734,0,1.734,1.083s-0.579,2.303-1.072,2.579c-0.494,0.276,4.854-2.496,6.155-7.246
		c1.005-3.673-0.992-8.647-2.75-9.833"/>
	<path fill="#FF0000" d="M150.977,25.231c1.045-1.436-0.477-3.885-2.06-3.551s-2.083-3.083,0-2.333s4.167,2.583,4.167,0.5
		s-1.917-0.417-2.083-2.417s1.917-1.666,1.25-3.083S150,12.765,149,13.265s-1.167,3.582-2.583,2.166s-0.053-3.167,0.683-3.25
		c0.734-0.083,1.734,0,1.734-1.083s-0.579-2.303-1.072-2.579c-0.494-0.276,4.854,2.496,6.155,7.246
		c1.005,3.673-0.992,8.648-2.75,9.833"/>
</g>
<g id="Layer_2">
	<path fill="#C93912" stroke="#7A1700" stroke-width="0.5" stroke-miterlimit="10" d="M177.458,33
		c-2.161,0.041-3.608-0.87-5.569-1.746c-2.812-1.255-5.863-1.329-8.873-1.548c-0.229-0.017-0.558,0-0.685,0.142
		c-0.366,0.407-0.914,0.893-0.904,1.336c0.013,0.513,0.424,1.261,0.869,1.477c1.534,0.739,3.163,1.278,4.746,1.917
		c1.616,0.652,3.273,0.846,4.877,0.122c1.423-0.644,2.843-0.696,4.312-0.398c1.676,0.34,3.335,0.762,5.013,1.088
		C182.461,35.626,180.379,34.035,177.458,33z"/>
	<path fill="#C93912" stroke="#7A1700" stroke-width="0.5" stroke-miterlimit="10" d="M232.611,51.975
		c-0.107-0.326-0.519-0.589-0.82-0.847c-0.534-0.457-1.091-0.889-1.639-1.331c0.125-0.036,0.249-0.071,0.373-0.106
		c-0.031-0.526,0.146-1.245-0.131-1.545c-1.05-1.137-0.94-1.853,0.571-2.361c-0.086-0.272-0.172-0.547-0.354-1.13
		c0.827,0,1.501-0.122,2.109,0.026c1.112,0.271,2.167,0.782,3.281,1.04c0.87,0.201,1.795,0.169,2.766,0.247
		c-0.153-1.405-0.98-1.672-1.797-1.845c-1.125-0.24-2.285-0.319-3.407-0.572c-0.688-0.154-1.512-0.294-1.601-1.308
		c0.915-0.44,2.095,0.374,3.049-0.808c-2.095,0-4.005,0.279-5.788-0.078c-1.787-0.357-3.447-1.349-5.163-2.062
		c0.023-0.051,0.047-0.102,0.07-0.152c0.269,0.049,0.538,0.097,0.983,0.177c-0.591-0.427-1.015-0.732-1.438-1.038
		c-0.009-0.138-0.018-0.275-0.026-0.414c1.083-0.419,2.152-0.881,3.254-1.247c0.971-0.322,2.023-0.426,2.958-0.82
		c4.423-1.868,5.575-4.629,2.284-2.885c-0.438,0.231-0.906,0.404-1.344,0.597c-0.239-0.59-0.419-1.033-0.599-1.476
		c-0.103,0.034-0.205,0.068-0.308,0.103c0.12,0.506,0.24,1.012,0.374,1.578c-0.43,0.165-0.865,0.461-1.312,0.48
		c-1.396,0.06-2.808,0.12-4.188-0.035c-0.675-0.075-0.952-0.644-0.493-1.443c0.487-0.85,0.806-1.811,1.106-2.753
		c0.798-2.502,1.258-5.175,3.746-6.775c-0.35-0.016-0.666,0.146-0.878,0.057c-1.335-0.557-1.937,0.408-2.642,1.197
		c-0.396,0.444-0.789,0.901-1.24,1.285c-0.323,0.275-0.838,0.702-1.102,0.606c-1.297-0.47-2.538-1.093-3.982-1.745
		c3.557-3.147,6.23-6.399,6.831-10.922c-0.767,0.889-1.322,1.905-1.914,2.899c-0.908,1.527-1.818,3.056-2.777,4.552
		c-0.338,0.527-0.772,0.609-1.412,0.218c-0.389-0.237-1.146-0.217-1.566,0.008c-1.084,0.576-2.03,1.41-3.111,1.993
		c-1.103,0.595-2.3,1.015-3.455,1.511c-0.067-0.116-0.135-0.233-0.201-0.35c0.103-0.306,0.204-0.61,0.322-0.962
		c-0.378,0.067-0.63,0.111-0.94,0.166c-0.044-0.641,0.028-1.228-0.14-1.735c-0.936-2.829-0.97-5.655-0.325-8.558
		c0.233-1.049-0.132-2.107-1.216-2.774c-1.473,1.167-0.93,2.673-0.856,4.101c0.063,1.243,0.165,2.506,0.018,3.733
		c-0.128,1.071-0.607,2.097-0.88,3.155c-0.233,0.909-0.247,1.918-1.403,2.42c-1.094-1.192-2.331-2.292-3.25-3.612
		c-0.909-1.307-1.497-2.836-2.226-4.267c-0.105,0.034-0.211,0.069-0.316,0.104c0.624,2.486,1.2,4.986,1.892,7.454
		c0.394,1.405,0.32,1.829-0.901,2.683c-1.822,1.272-3.472,0.517-4.937-0.588c-1.615-1.217-3.077-2.64-4.584-3.997
		c-0.256-0.23-0.396-0.589-0.597-0.882c-1.025-1.494-2.999,0.352-4.102-1.083c-0.725-0.942-1.269-1.835-1.272-3.103
		c-0.002-0.72-0.46-1.477-0.835-2.147c-0.849-1.515-1.753-2.999-2.675-4.47c-0.415-0.662-0.797-1.488-1.42-1.847
		c-1.881-1.083-3.008-2.788-4.214-4.472c-0.807-1.127-1.705-2.194-2.63-3.228c-0.501-0.559-1.179-0.887-1.863-0.224
		c-0.662,0.641-0.955,1.387-0.301,2.209c0.792,0.996,1.694,1.913,2.399,2.965c0.688,1.029,1.45,2.128,1.702,3.3
		c0.279,1.303,0.768,2.207,1.957,2.748c1.439,0.654,2.404,1.753,3.146,3.14c0.461,0.862,0.982,1.852,1.755,2.36
		c2.124,1.397,4.388,0.048,5.632,2.137c1.344,2.253,2.548,4.611,4.104,6.709c0.823,1.11,0.956,2.233,1.052,3.418
		c0.103,1.267-0.611,1.688-1.753,1.167c-0.533-0.243-1.037-0.551-1.596-0.852c-0.092,0.099-0.215,0.199-0.296,0.326
		c-0.884,1.369-2.174,2.105-3.685,2.673c-1.827,0.688-2.877-0.565-4.205-1.286c-1.625-0.883-3.325-1.632-5.02-2.38
		c-0.239-0.105-0.84,0.048-0.897,0.213c-0.111,0.316-0.087,0.853,0.12,1.074c0.392,0.417,0.937,0.701,1.444,0.995
		c1.544,0.893,3.202,1.626,4.627,2.678c1.817,1.341,3.524,2.897,2.453,5.641c0.315,0.11,0.559,0.239,0.815,0.279
		c1.489,0.228,1.763,0.782,0.996,2.133c-0.931,1.639-2.358,2.575-4.221,2.761c-1.461,0.146-16.113,2.446-17.557,2.675
		c-1.137,0.181-2.334,0.501-3.298,1.095c-0.939,0.578-0.848,1.385,0.169,1.794c1.057,0.426,2.295,0.766,3.394,0.634
		c1.554-0.186,16.189-3.341,17.741-3.646c1.491-0.294,3.047-0.494,4.555-0.404c1.667,0.099,2.453,1.175,2.652,2.99
		c0.123,1.118-0.403,1.74-2.003,2.386c-0.104,0.042-0.178,0.153-0.327,0.288c0.16,0.213,0.279,0.479,0.483,0.622
		c0.739,0.521,1.488,1.001,0.368,1.875c-0.051,0.04-0.106,0.152-0.086,0.191c0.671,1.269-0.254,2.238-0.634,3.297
		c-0.373,1.043-0.97,2.025-1.193,3.092c-0.104,0.49,0.449,1.119,0.705,1.686c0.399-0.28,0.887-0.49,1.182-0.855
		c0.495-0.612,0.809-1.372,1.309-1.979c0.588-0.714,1.514-0.777,2.14-0.273c0.342,0.274,0.231,1.149,0.258,1.756
		c0.01,0.212-0.145,0.458-0.282,0.646c-1.332,1.816-2.689,3.613-4.008,5.439c-0.381,0.528-0.713,1.109-0.955,1.712
		c-0.086,0.213,0.085,0.68,0.284,0.81c0.169,0.111,0.605-0.015,0.818-0.176c0.44-0.332,0.879-0.708,1.196-1.152
		c1.083-1.522,2.027-3.15,3.192-4.604c0.853-1.063,1.862-2.077,2.994-2.819c1.287-0.843,1.706-0.575,1.996,0.947
		c0.604,3.169,0.305,6.216-1.119,9.176c-0.592,1.229-0.979,2.62-1.153,3.977c-0.26,2.037,1.213,3.336,3.129,2.992
		c2.8-0.503,4.812-4.179,3.644-6.747c-0.477-1.046-1.051-2.059-1.685-3.019c-2.18-3.298-0.918-6.3,1.507-8.363
		c2.304-1.96,5.027-3.297,8.07-3.557c1.304-0.111,2.852,0.138,3.959,0.785c1.765,1.033,3.279,2.509,4.856,3.848
		c2.187,1.856,4.042,3.949,4.568,6.914c0.048,0.27,0.148,0.538,0.269,0.784c0.426,0.869,1.469,1.42,2.006,1.08
		c0.581-0.369,0.548-1.418-0.074-2.268c-0.023-0.031-0.053-0.06-0.073-0.094c-0.586-0.965-1.2-1.915-1.75-2.9
		c-0.6-1.075-1.088-2.215-1.72-3.27c-1-1.671-0.642-3.22,0.983-4.22c0.632-0.389,1.128-0.993,1.747-1.406
		c0.355-0.236,0.889-0.478,1.249-0.379c0.671,0.183,1.135,0.2,1.716-0.298c0.38-0.324,1.1-0.388,1.587-0.4
		C231.75,55.375,233.223,53.824,232.611,51.975z"/>
	<path fill="#C93912" stroke="#7A1700" stroke-width="0.5" stroke-miterlimit="10" d="M185.643,67.916
		c-1.736-0.011-3.524,1.621-3.512,3.205c0.01,1.372,1.368,2.435,3.122,2.445c1.874,0.011,3.417-1.488,3.375-3.28
		C188.601,69.115,187.102,67.925,185.643,67.916z"/>
	<path fill="#C93912" stroke="#7A1700" stroke-width="0.5" stroke-miterlimit="10" d="M186.31,24.416
		c-1.736-0.011-3.524,1.621-3.512,3.205c0.01,1.372,1.368,2.435,3.122,2.445c1.874,0.011,4.624,0.56,4.582-1.232
		C190.475,27.663,187.769,24.425,186.31,24.416z"/>
	<path fill="#C93912" stroke="#7A1700" stroke-width="0.5" stroke-miterlimit="10" d="M173.957,52.166
		c-1.736-0.011-3.524,1.621-3.512,3.205c0.01,1.372,1.368,2.435,3.122,2.445c1.874,0.011,12.476-3.358,12.434-5.15
		C185.974,51.495,175.416,52.175,173.957,52.166z"/>
	<path fill="#C93912" stroke="#7A1700" stroke-width="0.5" stroke-miterlimit="10" d="M175.643,36.152
		c-1.736-0.011-3.524,1.621-3.512,3.205c0.01,1.372,1.368,2.435,3.122,2.445c1.874,0.011,6.418-1.033,6.376-2.825
		C181.602,37.807,177.102,36.161,175.643,36.152z"/>
	<path fill="#C93912" stroke="#7A1700" stroke-width="0.5" stroke-miterlimit="10" d="M171.999,17.729
		c-1.615-0.638-3.872,0.237-4.434,1.718c-0.486,1.283,0.396,2.765,2.027,3.409c1.743,0.688,10.465,3.246,11.074,1.56
		C181.064,23.314,173.356,18.265,171.999,17.729z"/>
	<path fill-rule="evenodd" clip-rule="evenodd" fill="#C93912" stroke="#7A1700" stroke-width="0.5" stroke-miterlimit="10" d="
		M165.808,68.932c1.459,0.009,2.958,1.199,2.985,2.37c0.042,1.792-1.501,3.291-3.375,3.28c-1.754-0.011-3.112-1.073-3.122-2.445
		C162.283,70.553,164.071,68.921,165.808,68.932z"/>
</g>
</svg>
