<?xml version="1.0" encoding="utf-8"?>
<!-- Generator: Adobe Illustrator 16.0.0, SVG Export Plug-In . SVG Version: 6.00 Build 0)  -->
<!DOCTYPE svg PUBLIC "-//W3C//DTD SVG 1.1//EN" "http://www.w3.org/Graphics/SVG/1.1/DTD/svg11.dtd">
<svg version="1.1" xmlns="http://www.w3.org/2000/svg" xmlns:xlink="http://www.w3.org/1999/xlink" x="0px" y="0px" width="320px"
	 height="80px" viewBox="0 0 320 80" enable-background="new 0 0 320 80" xml:space="preserve">
<g id="Layer_1">
	<g id="Layer_2">
		<path fill="#C93912" stroke="#7A1700" stroke-width="0.5" stroke-miterlimit="10" d="M177.458,33
			c-2.161,0.041-3.608-0.87-5.569-1.746c-2.812-1.255-5.863-1.329-8.873-1.548c-0.229-0.017-0.558,0-0.685,0.142
			c-0.366,0.407-0.914,0.893-0.904,1.336c0.013,0.513,0.425,1.261,0.869,1.477c1.534,0.739,3.163,1.278,4.746,1.917
			c1.616,0.652,3.272,0.846,4.877,0.122c1.423-0.644,2.843-0.696,4.312-0.398c1.677,0.34,3.336,0.762,5.014,1.088
			C182.461,35.626,180.379,34.035,177.458,33z"/>
		<path fill="#C93912" stroke="#7A1700" stroke-width="0.5" stroke-miterlimit="10" d="M232.611,51.975
			c-0.107-0.326-0.52-0.589-0.82-0.847c-0.534-0.457-1.091-0.889-1.639-1.331c0.125-0.036,0.248-0.07,0.373-0.105
			c-0.031-0.526,0.146-1.246-0.131-1.545c-1.051-1.138-0.94-1.854,0.57-2.361c-0.086-0.271-0.172-0.547-0.354-1.131
			c0.826,0,1.5-0.121,2.108,0.027c1.112,0.271,2.167,0.781,3.281,1.039c0.87,0.201,1.795,0.17,2.767,0.247
			c-0.154-1.405-0.98-1.672-1.797-1.845c-1.125-0.24-2.285-0.318-3.408-0.572c-0.688-0.154-1.512-0.294-1.601-1.308
			c0.915-0.44,2.095,0.374,3.049-0.808c-2.095,0-4.005,0.278-5.788-0.078c-1.787-0.357-3.447-1.35-5.162-2.062
			c0.022-0.051,0.047-0.102,0.069-0.152c0.269,0.049,0.538,0.097,0.983,0.177c-0.592-0.427-1.016-0.732-1.438-1.038
			c-0.009-0.138-0.018-0.275-0.026-0.414c1.084-0.419,2.152-0.881,3.254-1.247c0.972-0.322,2.023-0.426,2.959-0.82
			c4.423-1.868,5.574-4.629,2.283-2.885c-0.438,0.231-0.906,0.404-1.344,0.597c-0.238-0.59-0.419-1.033-0.599-1.476
			c-0.103,0.034-0.205,0.068-0.308,0.103c0.119,0.506,0.239,1.012,0.373,1.578c-0.43,0.165-0.865,0.461-1.312,0.48
			c-1.396,0.06-2.808,0.12-4.188-0.035c-0.675-0.075-0.951-0.644-0.492-1.443c0.486-0.85,0.806-1.811,1.105-2.753
			c0.799-2.502,1.258-5.175,3.746-6.775c-0.35-0.016-0.666,0.146-0.878,0.057c-1.335-0.557-1.937,0.408-2.642,1.197
			c-0.396,0.444-0.789,0.901-1.24,1.285c-0.323,0.275-0.838,0.702-1.102,0.606c-1.298-0.47-2.539-1.093-3.982-1.745
			c3.557-3.147,6.23-6.399,6.83-10.922c-0.766,0.889-1.321,1.905-1.913,2.899c-0.908,1.527-1.818,3.056-2.777,4.552
			c-0.338,0.527-0.772,0.609-1.412,0.218c-0.389-0.237-1.146-0.217-1.565,0.008c-1.084,0.576-2.03,1.41-3.111,1.993
			c-1.104,0.595-2.3,1.015-3.455,1.511c-0.066-0.116-0.135-0.233-0.201-0.35c0.104-0.306,0.204-0.61,0.322-0.962
			c-0.378,0.067-0.63,0.111-0.939,0.166c-0.045-0.641,0.027-1.228-0.141-1.735c-0.936-2.829-0.97-5.655-0.324-8.558
			c0.232-1.049-0.133-2.107-1.217-2.774c-1.473,1.167-0.93,2.673-0.855,4.101c0.062,1.243,0.164,2.506,0.018,3.733
			c-0.128,1.071-0.607,2.097-0.88,3.155c-0.233,0.909-0.247,1.918-1.403,2.42c-1.094-1.192-2.331-2.292-3.25-3.612
			c-0.908-1.307-1.497-2.836-2.226-4.267c-0.105,0.034-0.212,0.069-0.316,0.104c0.624,2.486,1.2,4.986,1.892,7.454
			c0.395,1.405,0.32,1.829-0.9,2.683c-1.822,1.272-3.473,0.517-4.938-0.588c-1.615-1.217-3.076-2.64-4.584-3.997
			c-0.256-0.23-0.396-0.589-0.597-0.882c-1.024-1.494-2.999,0.352-4.103-1.083c-0.725-0.942-1.269-1.835-1.271-3.103
			c-0.002-0.72-0.46-1.477-0.835-2.147c-0.849-1.515-1.753-2.999-2.675-4.47c-0.415-0.662-0.797-1.488-1.42-1.847
			c-1.881-1.083-3.008-2.788-4.215-4.472c-0.807-1.127-1.704-2.194-2.629-3.228c-0.502-0.559-1.18-0.887-1.863-0.224
			c-0.662,0.641-0.955,1.387-0.301,2.209c0.791,0.996,1.693,1.913,2.398,2.965c0.688,1.029,1.45,2.128,1.702,3.3
			c0.278,1.303,0.769,2.207,1.957,2.748c1.438,0.654,2.403,1.753,3.146,3.14c0.461,0.862,0.982,1.852,1.756,2.36
			c2.123,1.397,4.388,0.048,5.632,2.137c1.344,2.253,2.548,4.611,4.104,6.709c0.822,1.11,0.955,2.233,1.051,3.418
			c0.104,1.267-0.61,1.688-1.752,1.167c-0.533-0.243-1.037-0.551-1.597-0.852c-0.092,0.099-0.215,0.199-0.296,0.326
			c-0.884,1.369-2.174,2.105-3.686,2.673c-1.826,0.688-2.877-0.565-4.205-1.286c-1.625-0.883-3.324-1.632-5.02-2.38
			c-0.238-0.105-0.84,0.048-0.896,0.213c-0.111,0.316-0.088,0.853,0.119,1.074c0.393,0.417,0.938,0.701,1.444,0.995
			c1.544,0.893,3.202,1.626,4.628,2.678c1.816,1.341,3.523,2.897,2.452,5.641c0.315,0.11,0.56,0.239,0.815,0.279
			c1.488,0.228,1.763,0.782,0.996,2.134c-0.932,1.639-2.358,2.574-4.221,2.76c-1.462,0.146-16.113,2.447-17.558,2.676
			c-1.138,0.181-2.334,0.501-3.298,1.095c-0.939,0.578-0.848,1.386,0.169,1.794c1.057,0.426,2.295,0.766,3.394,0.635
			c1.555-0.187,16.189-3.342,17.741-3.646c1.491-0.294,3.047-0.494,4.556-0.404c1.666,0.1,2.453,1.176,2.651,2.99
			c0.123,1.118-0.403,1.74-2.003,2.386c-0.104,0.042-0.178,0.153-0.327,0.288c0.16,0.213,0.279,0.479,0.483,0.622
			c0.738,0.521,1.488,1.001,0.367,1.875c-0.051,0.04-0.105,0.151-0.086,0.19c0.672,1.27-0.254,2.238-0.634,3.298
			c-0.372,1.043-0.97,2.024-1.192,3.092c-0.104,0.489,0.449,1.119,0.705,1.687c0.398-0.281,0.887-0.49,1.182-0.855
			c0.495-0.612,0.809-1.372,1.309-1.979c0.588-0.715,1.514-0.777,2.141-0.273c0.342,0.273,0.23,1.148,0.258,1.756
			c0.01,0.212-0.145,0.458-0.282,0.646c-1.332,1.815-2.688,3.612-4.008,5.438c-0.381,0.528-0.713,1.108-0.955,1.712
			c-0.086,0.213,0.085,0.68,0.284,0.811c0.169,0.11,0.605-0.016,0.818-0.176c0.439-0.332,0.879-0.709,1.195-1.152
			c1.083-1.522,2.027-3.15,3.192-4.604c0.853-1.063,1.862-2.077,2.993-2.819c1.287-0.842,1.707-0.574,1.996,0.947
			c0.604,3.17,0.306,6.217-1.119,9.176c-0.592,1.229-0.979,2.621-1.152,3.978c-0.26,2.037,1.213,3.336,3.129,2.992
			c2.801-0.503,4.812-4.179,3.645-6.747c-0.478-1.047-1.051-2.059-1.686-3.02c-2.18-3.298-0.918-6.3,1.508-8.363
			c2.303-1.959,5.026-3.297,8.069-3.557c1.304-0.111,2.853,0.139,3.959,0.785c1.765,1.033,3.278,2.51,4.856,3.848
			c2.187,1.856,4.041,3.949,4.567,6.914c0.048,0.271,0.147,0.539,0.269,0.784c0.427,0.869,1.47,1.421,2.007,1.08
			c0.581-0.368,0.548-1.418-0.074-2.269c-0.022-0.03-0.054-0.059-0.073-0.094c-0.586-0.965-1.199-1.914-1.75-2.899
			c-0.6-1.075-1.088-2.216-1.72-3.271c-1-1.67-0.642-3.22,0.983-4.22c0.631-0.389,1.127-0.993,1.746-1.405
			c0.355-0.236,0.89-0.479,1.25-0.38c0.67,0.183,1.135,0.2,1.715-0.298c0.381-0.324,1.101-0.388,1.588-0.4
			C231.75,55.375,233.223,53.824,232.611,51.975z"/>
		<path fill="#C93912" stroke="#7A1700" stroke-width="0.5" stroke-miterlimit="10" d="M185.643,67.916
			c-1.735-0.012-3.523,1.621-3.512,3.205c0.01,1.372,1.368,2.436,3.122,2.445c1.874,0.011,3.417-1.488,3.375-3.28
			C188.602,69.115,187.102,67.925,185.643,67.916z"/>
		<path fill="#C93912" stroke="#7A1700" stroke-width="0.5" stroke-miterlimit="10" d="M186.311,24.416
			c-1.736-0.011-3.524,1.621-3.513,3.205c0.011,1.372,1.368,2.435,3.122,2.445c1.874,0.011,4.624,0.56,4.582-1.232
			C190.475,27.663,187.77,24.425,186.311,24.416z"/>
		<path fill="#C93912" stroke="#7A1700" stroke-width="0.5" stroke-miterlimit="10" d="M173.957,52.166
			c-1.736-0.012-3.523,1.621-3.512,3.205c0.01,1.372,1.367,2.436,3.121,2.445c1.875,0.011,12.477-3.358,12.435-5.15
			C185.975,51.495,175.416,52.175,173.957,52.166z"/>
		<path fill="#C93912" stroke="#7A1700" stroke-width="0.5" stroke-miterlimit="10" d="M175.643,36.152
			c-1.735-0.011-3.523,1.621-3.512,3.205c0.01,1.372,1.368,2.435,3.122,2.445c1.874,0.011,6.418-1.032,6.376-2.825
			C181.602,37.807,177.102,36.161,175.643,36.152z"/>
		<path fill="#C93912" stroke="#7A1700" stroke-width="0.5" stroke-miterlimit="10" d="M171.999,17.729
			c-1.615-0.638-3.872,0.237-4.435,1.718c-0.485,1.283,0.396,2.765,2.027,3.409c1.743,0.688,10.465,3.246,11.074,1.56
			C181.064,23.314,173.355,18.265,171.999,17.729z"/>
		<path fill="#C93912" stroke="#7A1700" stroke-width="0.5" stroke-miterlimit="10" d="M165.809,68.932
			c1.459,0.01,2.957,1.199,2.984,2.37c0.042,1.792-1.501,3.291-3.375,3.28c-1.754-0.012-3.111-1.073-3.122-2.445
			C162.283,70.553,164.07,68.921,165.809,68.932z"/>
	</g>
</g>
<g id="Layer_2_2_">
	<g id="Layer_2_1_">
		<path fill="#343334" d="M48.762,69.557c0.672-0.406,1.688-0.882,1.875,1.057c5.938-3.25,11.875-10.959,12.75-12.334
			s1.854-0.459,2.166-0.084c1.039-1.178,3.331-10.592,3.331-18.013s-1.833-16.443-3.208-18.068
			c-0.312,0.375-1.292,1.583-2.167,0.208S56.771,13.03,50.834,9.78c-0.188,1.938-1.033,1.877-1.408,1.564
			c-0.361-0.301-9.208-7.795-21.582-1.6c-0.476,0.238-1.811,1.185-2.294,1.462c-0.982,0.564-4.625,0.906-7.375,0.74
			c1.583,1.584,1.446,3.115,0.541,3.833C9.876,22.797,6.925,30.862,6.925,39.987c0,9.125,3.494,17.982,12.334,25
			c0.905,0.72,0.208,1.709-1.375,3.293c2.75-0.166,6.643,0.21,7.625,0.773C25.992,69.332,39.869,74.932,48.762,69.557z"/>
		<path fill="#CAE1ED" d="M49.384,68.244c0.375-0.312,1.438-0.625,1.625,1.312c5.938-3.25,11.333-10.859,12.208-12.234
			s1.854-0.703,2.167-0.328c0.794-1.545,2.5-8.312,2.5-16.812l-0.041-0.097l0.041-0.097c0-8.5-1.706-15.268-2.5-16.812
			c-0.312,0.375-1.292,1.047-2.167-0.328s-6.271-8.984-12.208-12.234c-0.188,1.938-1.25,1.625-1.625,1.312
			c-0.36-0.301-9.938-7.093-22.312-0.898c-0.476,0.238-0.955,0.496-1.438,0.773c-0.982,0.564-3.291,0.854-6.041,0.688
			c1.583,1.584,1.248,2.435,0.343,3.153C11.096,22.659,7.592,31.39,7.592,39.988c0,0.032,0.004,0.064,0.004,0.097
			s-0.004,0.064-0.004,0.097c0,8.599,3.504,17.329,12.344,24.347c0.905,0.719,1.24,1.568-0.343,3.152
			c2.75-0.166,5.059,0.123,6.041,0.688c0.483,0.276,2.027,0.933,2.536,1.087C40.65,73.23,49.021,68.545,49.384,68.244z"/>
		<path fill="#A3C1E6" d="M19.196,62.801c-2.375-2.375-4.688-8.75-4.75-10.562c0.812,2.562,4.281,4.25,4.281,4.25
			s-3.281-6.562-3.219-10.125c1,1.75,3.938,3.5,3.938,3.5s0.188-3.812-1.312-7.312c2.5,0.062,3.812-2.562,3.812-2.562
			s-1.312-2.625-3.812-2.562c1.5-3.5,1.312-7.312,1.312-7.312s-2.938,1.75-3.938,3.5c-0.062-3.562,3.219-10.125,3.219-10.125
			s-3.469,1.688-4.281,4.25c0.062-1.812,2.375-8.188,4.75-10.562c-3.058,2.843-8.45,8.001-9.922,17.659
			c-0.241,1.117-0.391,2.769-0.391,5.154c0,2.386,0.149,4.037,0.391,5.154C10.746,54.8,16.139,59.958,19.196,62.801z"/>
		<path fill="#FFFFFF" d="M47.258,59.915c0.875-1.592,1.459-3.05,1.167-3.675s-2.501-4.25-4.917-5.459
			c0.875-0.708,3.416-0.291,3.5-0.791s-1.333-7.629-5.083-10.002c3.75-2.373,5.167-9.501,5.083-10.001s-2.625-0.083-3.5-0.792
			c2.416-1.208,4.625-4.833,4.917-5.458s-0.292-2.083-1.167-3.675c1.5-1.3,5-1.2,5-1.908s-1.236-4.143-2.291-5.292
			c-1.689-1.839-8.449,4.11-12.248,6.272c0.653,0.184,2.305,0.688,1.468,0.866c-1.031,0.219-2.387,1.312-2.875,2.094
			c-0.031-0.688,0.309-1.185,0.875-1.562c-1.024,0.389-2.406,1.406-3.281,2.465c-0.143-0.383-0.205-1.013-0.231-1.541
			c-3.093,2.166-6.526,5.422-7.166,7.614c-0.834-5.417,5.158-8.248,4.033-8.332s-1.465-1.53-3.824-0.46c0.834-1.958,8-6.333,8-6.333
			s-0.459-3.917-2.042-2.833s-9.208,2.75-11.333,2.458c0.789,1.041,4.125,2.292,5.5,2.208c-1.458,1.083-4.459,4.667-4.917,9
			c0.708-0.958,2.417-2.083,3.75-1.75c0.458,1.958-1.083,7.708-2.75,9.917c0.917,0.167,2.792,0.5,3.875-1.25
			c0.958,2.875-1.042,8.293-1.042,8.293s2,5.418,1.042,8.293c-1.083-1.75-2.958-1.416-3.875-1.25
			c1.667,2.209,3.208,7.959,2.75,9.918c-1.333,0.332-3.042-0.792-3.75-1.75c0.458,4.332,3.459,7.916,4.917,9
			c-1.375-0.084-4.711,1.166-5.5,2.207c2.125-0.291,9.75,1.375,11.333,2.459s2.042-2.834,2.042-2.834s-7.166-4.374-8-6.332
			c2.333,1.332,2.532-0.334,3.657-0.418s-4.7-2.958-3.866-8.375c0.632,2.168,3.998,5.377,7.065,7.542
			c0.035-0.47,0.1-0.976,0.224-1.304c0.868,1.065,2.244,2.092,3.266,2.486c-0.563-0.381-0.9-0.881-0.865-1.566
			c0.483,0.783,1.832,1.886,2.862,2.11c0.724,0.158-0.422,0.55-1.167,0.771c3.827,2.238,10.408,7.98,12.073,6.17
			c1.055-1.149,2.291-4.584,2.291-5.292S48.758,61.215,47.258,59.915z"/>
		<path fill="#98B7E0" d="M61.205,55.328c0,0,0.498-0.07,0.832,1.174c1.341-2.086-0.055-7,0.82-7.016
			c0.875-0.014,2.586-2.293,3.065-3.488c-1.062,0.018-0.321-0.495-1.513-0.725c0.893-0.496,1.335-3.694,1.4-5.274l0.01-0.011
			c-0.002-0.029-0.004-0.063-0.006-0.093c0.002-0.027,0.004-0.058,0.004-0.084l-0.008-0.009c-0.095-1.579-0.59-4.771-1.49-5.251
			c1.188-0.25,0.438-0.75,1.5-0.75c-0.5-1.188-2.25-3.438-3.125-3.438s0.438-4.938-0.938-7c-0.312,1.25-0.812,1.188-0.812,1.188
			s-1.688-6.688-6.812-7.5c0,1.188,0.125,1.625-0.312,2c-0.437,0.375-3.879,0.635-4.938,1.375c0.438,1.062,1.125,2.812,1.125,2.812
			s-2.812,4.562-3.875,5.281c1.125,0.531,1.312,0.844,2.375,0.906c0.062,1.375-1.875,8-4.562,10.562
			c0.048,0.029,0.103,0.064,0.15,0.094c-0.048,0.031-0.102,0.066-0.147,0.096c2.729,2.517,4.778,9.108,4.739,10.484
			c-1.062,0.081-1.244,0.396-2.359,0.946c1.074,0.699,3.963,5.215,3.963,5.215s-0.658,1.762-1.077,2.83
			c1.07,0.723,4.517,0.926,4.96,1.293s0.326,0.807,0.346,1.994C59.63,62.043,61.205,55.328,61.205,55.328z"/>
		<path fill="#4E6289" d="M60.626,52.98c0,0,0.465-0.064,0.776,1.069c1.25-1.901-1.051-5.385-0.234-5.397
			c0.816-0.014,2.412-2.092,2.859-3.182c-0.99,0.016-0.299-0.453-1.41-0.662c0.832-0.453,1.77-3.289,1.83-4.73l0.008-0.01
			c0-0.026-0.003-0.058-0.004-0.085c0-0.025,0.002-0.053,0.002-0.077l-0.008-0.009c-0.086-1.44-1.071-4.432-1.912-4.87
			c1.107-0.228,0.408-0.684,1.398-0.684c-0.466-1.083-2.099-3.136-2.914-3.136c-0.816,0,1.407-3.503,0.125-5.385
			c-0.291,1.14-0.759,1.083-0.759,1.083s-0.132-7.1-4.913-7.841c0,1.083,0.116,1.482-0.291,1.824
			c-0.408,0.342-4.699-1.235-5.759-0.496c0.438,1.062,1.125,2.812,1.125,2.812s-2.812,4.562-3.875,5.281
			c1.125,0.531,0.774,0.875,1.837,0.938c0.062,1.375-1.337,7.968-4.023,10.531c0.047,0.029,0.102,0.064,0.148,0.094
			c-0.048,0.031-0.102,0.066-0.146,0.096c2.729,2.517,4.777,9.109,4.738,10.484c-1.062,0.082-1.242,0.396-2.359,0.947
			c1.074,0.698,3.963,5.215,3.963,5.215s-1.195,1.793-1.614,2.862c1.07,0.722,5.88-0.885,6.295-0.549
			c0.413,0.334,0.304,0.734,0.323,1.818C60.6,60.105,60.626,52.98,60.626,52.98z"/>
		<path fill="#3C4674" d="M54.102,58.691c0,0-2.748-12.828-2.76-18.663c0-0.007,0-0.013,0-0.02c0-0.008,0-0.014,0-0.021
			c0-5.833,2.723-18.667,2.723-18.667l-3.889-0.583l0.658,2.75l-2.742,4.724l1.486,1.276l-4.486,10.5l0.031,0.026l-0.031,0.027
			L49.6,50.533l-1.483,1.277l2.75,4.721l-0.652,2.75L54.102,58.691z"/>
		<path fill="#3C4674" d="M58.355,44.01c1.427-0.473,1.365-2.971,1.34-4.034l0,0c0-1.068-0.004-3.552-1.438-3.988
			c-1.438-0.438-4.562,2.062-4.562,4c0,0.024,0.007,0.045,0.008,0.068c0,0.022-0.006,0.042-0.005,0.064
			C53.745,42.059,56.93,44.482,58.355,44.01z"/>
		<path fill="#343334" d="M58.82,38.738c0,0-0.25-2.688-1.125-1.938S58.82,38.738,58.82,38.738z"/>
		<polygon fill="#DCEEFA" points="61.073,35.357 59.465,35.941 61.35,36.668 59.707,37.256 61.445,38.129 60.404,38.772 
			61.54,39.238 61.35,37.395 		"/>
		<polygon fill="#DCEEFA" points="61.078,44.632 59.469,44.049 61.354,43.32 59.71,42.734 61.448,41.859 60.404,41.217 
			61.541,40.75 61.354,42.594 		"/>
		<path fill="#3C4674" d="M56.051,33.947c1.952-0.065,2.129-5.159,1-7.646c-1.13-2.487-3.074-4.355-4.793-3.604
			C49.918,23.719,49.176,34.176,56.051,33.947z"/>
		<path fill="#3C4674" d="M56.051,45.947c1.952,0.063,2.129,5.158,1,7.646c-1.13,2.487-3.074,4.354-4.793,3.604
			C49.918,56.174,49.176,45.718,56.051,45.947z"/>
		<path fill="#343334" d="M58.824,41.266c0,0-0.245,2.688-1.121,1.939C56.826,42.457,58.824,41.266,58.824,41.266z"/>
		<path fill="#3D4674" d="M60.893,45.834c0,0,0.705-2.895,0.885-5.023c0.025-0.195,0.041-0.438,0.041-0.717
			c0-0.026-0.002-0.056-0.002-0.083c0-0.029,0.002-0.06,0.002-0.088c0-0.28-0.017-0.522-0.043-0.718
			c-0.184-2.129-0.895-5.021-0.895-5.021s0.5,3.812,0.5,5.812c0,0.004,0,0.007,0,0.011s0,0.008,0,0.013
			C61.385,42.021,60.893,45.834,60.893,45.834z"/>
		<path fill="#FFC81A" d="M55.396,46.584c1.949-0.119,2.455,4.32,1.33,6.811c-1.125,2.489-2.718,4.193-4.438,3.445
			C49.949,55.822,50.146,46.906,55.396,46.584z"/>
		<path fill="#343334" d="M55.611,47.717c1.104-0.062,1.392,2.172,0.754,3.424c-0.639,1.252-1.543,2.108-2.518,1.733
			C52.52,52.361,52.633,47.88,55.611,47.717z"/>
		<polygon fill="#DCEEFA" points="55.757,51.616 55.758,52.616 54.408,53.462 54.406,52.337 		"/>
		<path fill="#343334" d="M28.301,19.065c0.775-6.655,7.377-16.644,8.041-16.981c0.664-0.337,11.951-0.414,14.79,6.885
			c-0.483,2.043-5.62,2.575-6.45,3.163c-0.441,1.014-1.498,4.248-0.734,6.243c-2.232,1.469-4.977,2.293-7.564,2.561
			c-0.159,0.016-1.413,0.799-1.601,1.002c-0.203-0.469,0.751-0.933,0.565-0.925c-0.727,0.034-1.433,0.023-2.103-0.031
			c-0.308-0.025-1.462,0.19-1.666,0.44c-0.203-0.359-0.172-0.531-0.078-0.696C30.059,20.407,28.916,19.844,28.301,19.065z"/>
		<path fill="#585674" d="M29.076,18.562c2.018-7.197,7.148-15.218,7.814-15.552c0.666-0.335,10.16-0.557,13.756,6.078
			c-2.108,1.942-5.748,2.054-6.58,2.639c-0.444,1.011-1.227,4.401-0.934,6.417C38.308,20.571,31.166,21.225,29.076,18.562z"/>
		<path fill="#707087" d="M30.001,15.637c0.71-4.147,5-9.75,7-11.625c-0.75,2.5,0.875,3.125,1.625,3.875
			c-2,2.125-4.25,7.875-4.312,10.125C32.626,17.637,31.626,16.887,30.001,15.637z"/>
		<path fill="#4B4968" d="M39.861,8.012c0,0,2.267,2.25,3.265,3c2.25-0.375,4-0.75,6.375-1.5C46.751,7.512,41.758,7.32,39.861,8.012
			z"/>
		<path fill="#343334" d="M28.17,61.044c0.733,6.66,7.273,16.688,7.935,17.031c0.662,0.341,11.948,0.487,14.833-6.792
			c-0.472-2.047-5.604-2.61-6.431-3.203c-0.437-1.018-1.473-4.258-0.696-6.248c-2.224-1.482-5.766-2.361-8.352-2.645
			c-0.159-0.019-1.135-0.922-1.321-1.125c-0.206,0.467,0.757,1.067,0.572,1.059c-0.726-0.038-0.913-0.012-1.584,0.037
			c-0.308,0.023-1.986-0.694-2.188-0.945c-0.205,0.357,0.35,1.025,0.442,1.189C29.937,59.713,28.79,60.27,28.17,61.044z"/>
		<path fill="#585674" d="M28.942,61.552c1.973,7.209,7.053,15.263,7.717,15.601c0.664,0.339,10.155,0.619,13.795-5.991
			c-2.099-1.956-5.735-2.091-6.563-2.681c-0.438-1.014-1.199-4.407-0.894-6.422C38.187,59.602,31.049,58.902,28.942,61.552z"/>
		<path fill="#707087" d="M29.849,64.482c0.685,4.151,4.939,9.781,6.928,11.67c-0.734-2.506,0.895-3.12,1.649-3.865
			c-1.987-2.139-4.201-7.902-4.25-10.152C32.486,62.5,31.481,63.243,29.849,64.482z"/>
		<path fill="#4B4968" d="M39.662,72.17c0,0,2.279-2.236,3.281-2.98c2.248,0.391,3.996,0.775,6.365,1.541
			C46.548,72.713,41.553,72.873,39.662,72.17z"/>
		<path fill="#FFC81A" d="M55.384,33.426c1.95,0.116,2.446-4.325,1.317-6.812c-1.131-2.487-2.725-4.188-4.443-3.438
			C49.918,24.198,50.134,33.113,55.384,33.426z"/>
		<path fill="#343334" d="M55.615,32.044c1.105,0.059,1.389-2.175,0.748-3.425s-1.547-2.106-2.521-1.728
			C52.516,27.404,52.639,31.887,55.615,32.044z"/>
		<polygon fill="#DCEEFA" points="55.754,28.145 55.754,27.145 54.402,26.301 54.402,27.426 		"/>
		<polygon fill="#343334" points="47.842,34.405 48.634,34.405 47.467,35.357 48.051,35.572 47.051,36.28 47.759,37.905 
			45.412,39.238 47.334,35.938 		"/>
		<polygon fill="#343334" points="48.243,46.82 48.842,45.943 47.438,45.107 48.342,44.068 46.559,42.963 48.009,41.529 
			44.787,40.447 47.309,44.527 		"/>
	</g>
	<g id="Layer_3">
	</g>
	<path fill="#88008C" d="M128.762,69.557c0.672-0.406,1.688-0.882,1.875,1.057c5.938-3.25,11.875-10.959,12.75-12.334
		s1.854-0.459,2.166-0.084c1.039-1.178,3.331-10.592,3.331-18.013s-1.833-16.443-3.208-18.068c-0.312,0.375-1.292,1.583-2.167,0.208
		s-6.737-9.292-12.675-12.542c-0.188,1.938-1.033,1.877-1.408,1.564c-0.361-0.301-9.208-7.795-21.582-1.6
		c-0.476,0.238-1.811,1.185-2.294,1.462c-0.982,0.564-4.625,0.906-7.375,0.74c1.583,1.584,1.446,3.115,0.541,3.833
		c-8.84,7.018-11.791,15.083-11.791,24.208c0,9.125,3.494,17.982,12.334,25c0.905,0.72,0.208,1.709-1.375,3.293
		c2.75-0.166,6.643,0.21,7.625,0.773C105.992,69.332,119.869,74.932,128.762,69.557z"/>
	<path fill="#CAE1ED" d="M129.384,68.244c0.375-0.312,1.438-0.625,1.625,1.312c5.938-3.25,11.333-10.859,12.208-12.234
		s1.854-0.703,2.167-0.328c0.794-1.545,2.5-8.312,2.5-16.812l-0.041-0.097l0.041-0.097c0-8.5-1.706-15.268-2.5-16.812
		c-0.312,0.375-1.292,1.047-2.167-0.328s-6.271-8.984-12.208-12.234c-0.188,1.938-1.25,1.625-1.625,1.312
		c-0.36-0.301-9.938-7.093-22.312-0.898c-0.476,0.238-0.955,0.496-1.438,0.773c-0.982,0.564-3.291,0.854-6.041,0.688
		c1.583,1.584,1.248,2.435,0.343,3.153c-8.84,7.017-12.344,15.748-12.344,24.346c0,0.032,0.004,0.064,0.004,0.097
		s-0.004,0.064-0.004,0.097c0,8.599,3.504,17.329,12.344,24.347c0.905,0.719,1.24,1.568-0.343,3.152
		c2.75-0.166,5.059,0.123,6.041,0.688c0.483,0.276,2.027,0.933,2.536,1.087C120.65,73.23,129.021,68.545,129.384,68.244z"/>
	<path fill="#A3C1E6" d="M99.196,62.801c-2.375-2.375-4.688-8.75-4.75-10.562c0.812,2.562,4.281,4.25,4.281,4.25
		s-3.281-6.562-3.219-10.125c1,1.75,3.938,3.5,3.938,3.5s0.188-3.812-1.312-7.312c2.5,0.062,3.812-2.562,3.812-2.562
		s-1.312-2.625-3.812-2.562c1.5-3.5,1.312-7.312,1.312-7.312s-2.938,1.75-3.938,3.5c-0.062-3.562,3.219-10.125,3.219-10.125
		s-3.469,1.688-4.281,4.25c0.062-1.812,2.375-8.188,4.75-10.562c-3.058,2.843-8.45,8.001-9.922,17.659
		c-0.241,1.117-0.391,2.769-0.391,5.154c0,2.386,0.149,4.037,0.391,5.154C90.746,54.8,96.139,59.958,99.196,62.801z"/>
	<path fill="#FFFFFF" d="M127.258,59.915c0.875-1.592,1.459-3.05,1.167-3.675s-2.501-4.25-4.917-5.459
		c0.875-0.708,3.416-0.291,3.5-0.791s-1.333-7.629-5.083-10.002c3.75-2.373,5.167-9.501,5.083-10.001s-2.625-0.083-3.5-0.792
		c2.416-1.208,4.625-4.833,4.917-5.458s-0.292-2.083-1.167-3.675c1.5-1.3,5-1.2,5-1.908s-1.236-4.143-2.291-5.292
		c-1.689-1.839-8.449,4.11-12.248,6.272c0.653,0.184,2.305,0.688,1.468,0.866c-1.031,0.219-2.387,1.312-2.875,2.094
		c-0.031-0.688,0.309-1.185,0.875-1.562c-1.024,0.389-2.406,1.406-3.281,2.465c-0.143-0.383-0.205-1.013-0.231-1.541
		c-3.093,2.166-6.526,5.422-7.166,7.614c-0.834-5.417,5.158-8.248,4.033-8.332s-1.465-1.53-3.824-0.46c0.834-1.958,8-6.333,8-6.333
		s-0.459-3.917-2.042-2.833s-9.208,2.75-11.333,2.458c0.789,1.041,4.125,2.292,5.5,2.208c-1.458,1.083-4.459,4.667-4.917,9
		c0.708-0.958,2.417-2.083,3.75-1.75c0.458,1.958-1.083,7.708-2.75,9.917c0.917,0.167,2.792,0.5,3.875-1.25
		c0.958,2.875-1.042,8.293-1.042,8.293s2,5.418,1.042,8.293c-1.083-1.75-2.958-1.416-3.875-1.25c1.667,2.209,3.208,7.959,2.75,9.918
		c-1.333,0.332-3.042-0.792-3.75-1.75c0.458,4.332,3.459,7.916,4.917,9c-1.375-0.084-4.711,1.166-5.5,2.207
		c2.125-0.291,9.75,1.375,11.333,2.459s2.042-2.834,2.042-2.834s-7.166-4.374-8-6.332c2.333,1.332,2.532-0.334,3.657-0.418
		s-4.7-2.958-3.866-8.375c0.632,2.168,3.998,5.377,7.065,7.542c0.035-0.47,0.1-0.976,0.224-1.304
		c0.868,1.065,2.244,2.092,3.266,2.486c-0.563-0.381-0.9-0.881-0.865-1.566c0.483,0.783,1.832,1.886,2.862,2.11
		c0.724,0.158-0.422,0.55-1.167,0.771c3.827,2.238,10.408,7.98,12.073,6.17c1.055-1.149,2.291-4.584,2.291-5.292
		S128.758,61.215,127.258,59.915z"/>
	<path fill="#98B7E0" d="M141.205,55.328c0,0,0.498-0.07,0.832,1.174c1.341-2.086-0.055-7,0.82-7.016
		c0.875-0.014,2.586-2.293,3.065-3.488c-1.062,0.018-0.321-0.495-1.513-0.725c0.893-0.496,1.335-3.694,1.4-5.274l0.01-0.011
		c-0.002-0.029-0.004-0.063-0.006-0.093c0.002-0.027,0.004-0.058,0.004-0.084l-0.008-0.009c-0.095-1.579-0.59-4.771-1.49-5.251
		c1.188-0.25,0.438-0.75,1.5-0.75c-0.5-1.188-2.25-3.438-3.125-3.438s0.438-4.938-0.938-7c-0.312,1.25-0.812,1.188-0.812,1.188
		s-1.688-6.688-6.812-7.5c0,1.188,0.125,1.625-0.312,2c-0.437,0.375-3.879,0.635-4.938,1.375c0.438,1.062,1.125,2.812,1.125,2.812
		s-2.812,4.562-3.875,5.281c1.125,0.531,1.312,0.844,2.375,0.906c0.062,1.375-1.875,8-4.562,10.562
		c0.048,0.029,0.103,0.064,0.15,0.094c-0.048,0.031-0.102,0.066-0.147,0.096c2.729,2.517,4.778,9.108,4.739,10.484
		c-1.062,0.081-1.244,0.396-2.359,0.946c1.074,0.699,3.963,5.215,3.963,5.215s-0.658,1.762-1.077,2.83
		c1.07,0.723,4.517,0.926,4.96,1.293s0.326,0.807,0.346,1.994C139.63,62.043,141.205,55.328,141.205,55.328z"/>
	<path fill="#874E57" d="M140.626,52.98c0,0,0.465-0.064,0.776,1.069c1.25-1.901-1.051-5.385-0.234-5.397
		c0.816-0.014,2.412-2.092,2.859-3.182c-0.99,0.016-0.299-0.453-1.41-0.662c0.832-0.453,1.77-3.289,1.83-4.73l0.008-0.01
		c0-0.026-0.003-0.058-0.004-0.085c0-0.025,0.002-0.053,0.002-0.077l-0.008-0.009c-0.086-1.44-1.071-4.432-1.912-4.87
		c1.107-0.228,0.408-0.684,1.398-0.684c-0.466-1.083-2.099-3.136-2.914-3.136c-0.816,0,1.407-3.503,0.125-5.385
		c-0.291,1.14-0.759,1.083-0.759,1.083s-0.132-7.1-4.913-7.841c0,1.083,0.116,1.482-0.291,1.824
		c-0.408,0.342-4.699-1.235-5.759-0.496c0.438,1.062,1.125,2.812,1.125,2.812s-2.812,4.562-3.875,5.281
		c1.125,0.531,0.774,0.875,1.837,0.938c0.062,1.375-1.337,7.968-4.023,10.531c0.047,0.029,0.102,0.064,0.148,0.094
		c-0.048,0.031-0.102,0.066-0.146,0.096c2.729,2.517,4.777,9.109,4.738,10.484c-1.062,0.082-1.242,0.396-2.359,0.947
		c1.074,0.698,3.963,5.215,3.963,5.215s-1.195,1.793-1.614,2.862c1.07,0.722,5.88-0.885,6.295-0.549
		c0.413,0.334,0.304,0.734,0.323,1.818C140.6,60.105,140.626,52.98,140.626,52.98z"/>
	<path fill="#751A1A" d="M134.102,58.691c0,0-2.748-12.828-2.76-18.663c0-0.007,0-0.013,0-0.02c0-0.008,0-0.014,0-0.021
		c0-5.833,2.723-18.667,2.723-18.667l-3.889-0.583l0.658,2.75l-2.742,4.724l1.486,1.276l-4.486,10.5l0.031,0.026l-0.031,0.027
		l4.508,10.492l-1.483,1.277l2.75,4.721l-0.652,2.75L134.102,58.691z"/>
	<path fill="#3C4674" d="M138.355,44.01c1.427-0.473,1.365-2.971,1.34-4.034l0,0c0-1.068-0.004-3.552-1.438-3.988
		c-1.438-0.438-4.562,2.062-4.562,4c0,0.024,0.007,0.045,0.008,0.068c0,0.022-0.006,0.042-0.005,0.064
		C133.745,42.059,136.93,44.482,138.355,44.01z"/>
	<path fill="#343334" d="M138.82,38.738c0,0-0.25-2.688-1.125-1.938S138.82,38.738,138.82,38.738z"/>
	<polygon fill="#DCEEFA" points="141.073,35.357 139.465,35.941 141.35,36.668 139.707,37.256 141.445,38.129 140.404,38.772 
		141.54,39.238 141.35,37.395 	"/>
	<polygon fill="#DCEEFA" points="141.078,44.632 139.469,44.049 141.354,43.32 139.71,42.734 141.448,41.859 140.404,41.217 
		141.541,40.75 141.354,42.594 	"/>
	<path fill="#3C4674" d="M136.051,33.947c1.952-0.065,2.129-5.159,1-7.646c-1.13-2.487-3.074-4.355-4.793-3.604
		C129.918,23.719,129.176,34.176,136.051,33.947z"/>
	<path fill="#3C4674" d="M136.051,45.947c1.952,0.063,2.129,5.158,1,7.646c-1.13,2.487-3.074,4.354-4.793,3.604
		C129.918,56.174,129.176,45.718,136.051,45.947z"/>
	<path fill="#343334" d="M138.824,41.266c0,0-0.245,2.688-1.121,1.939C136.826,42.457,138.824,41.266,138.824,41.266z"/>
	<path fill="#3D4674" d="M140.893,45.834c0,0,0.705-2.895,0.885-5.023c0.025-0.195,0.041-0.438,0.041-0.717
		c0-0.026-0.002-0.056-0.002-0.083c0-0.029,0.002-0.06,0.002-0.088c0-0.28-0.017-0.522-0.043-0.718
		c-0.184-2.129-0.895-5.021-0.895-5.021s0.5,3.812,0.5,5.812c0,0.004,0,0.007,0,0.011s0,0.008,0,0.013
		C141.385,42.021,140.893,45.834,140.893,45.834z"/>
	<path fill="#E2DCC9" d="M135.396,46.584c1.949-0.119,2.455,4.32,1.33,6.811c-1.125,2.489-2.718,4.193-4.438,3.445
		C129.949,55.822,130.146,46.906,135.396,46.584z"/>
	<path fill="#A00013" d="M135.611,47.717c1.104-0.062,1.392,2.172,0.754,3.424c-0.639,1.252-1.543,2.108-2.518,1.733
		C132.52,52.361,132.633,47.88,135.611,47.717z"/>
	<polygon fill="#DCEEFA" points="135.757,51.616 135.758,52.616 134.408,53.462 134.406,52.337 	"/>
	<path fill="#720075" d="M108.301,19.065c0.775-6.655,7.377-16.644,8.041-16.981c0.664-0.337,11.951-0.414,14.79,6.885
		c-0.483,2.043-5.62,2.575-6.45,3.163c-0.441,1.014-1.498,4.248-0.734,6.243c-2.232,1.469-4.977,2.293-7.564,2.561
		c-0.159,0.016-1.413,0.799-1.601,1.002c-0.203-0.469,0.751-0.933,0.565-0.925c-0.727,0.034-1.433,0.023-2.103-0.031
		c-0.308-0.025-1.462,0.19-1.666,0.44c-0.203-0.359-0.172-0.531-0.078-0.696C110.059,20.407,108.916,19.844,108.301,19.065z"/>
	<path fill="#585674" d="M109.076,18.562c2.018-7.197,7.148-15.218,7.814-15.552c0.666-0.335,10.16-0.557,13.756,6.078
		c-2.108,1.942-5.748,2.054-6.58,2.639c-0.444,1.011-1.227,4.401-0.934,6.417C118.308,20.571,111.166,21.225,109.076,18.562z"/>
	<path fill="#707087" d="M110.001,15.637c0.71-4.147,5-9.75,7-11.625c-0.75,2.5,0.875,3.125,1.625,3.875
		c-2,2.125-4.25,7.875-4.312,10.125C112.626,17.637,111.626,16.887,110.001,15.637z"/>
	<path fill="#4B4968" d="M119.861,8.012c0,0,2.267,2.25,3.265,3c2.25-0.375,4-0.75,6.375-1.5
		C126.751,7.512,121.758,7.32,119.861,8.012z"/>
	<path fill="#720075" d="M108.17,61.044c0.733,6.66,7.273,16.688,7.935,17.031c0.662,0.341,11.948,0.487,14.833-6.792
		c-0.472-2.047-5.604-2.61-6.431-3.203c-0.437-1.018-1.473-4.258-0.696-6.248c-2.224-1.482-5.766-2.361-8.352-2.645
		c-0.159-0.019-1.135-0.922-1.321-1.125c-0.206,0.467,0.757,1.067,0.572,1.059c-0.726-0.038-0.913-0.012-1.584,0.037
		c-0.308,0.023-1.986-0.694-2.188-0.945c-0.205,0.357,0.35,1.025,0.442,1.189C109.937,59.713,108.79,60.27,108.17,61.044z"/>
	<path fill="#585674" d="M108.942,61.552c1.973,7.209,7.053,15.263,7.717,15.601c0.664,0.339,10.155,0.619,13.795-5.991
		c-2.099-1.956-5.735-2.091-6.563-2.681c-0.438-1.014-1.199-4.407-0.894-6.422C118.187,59.602,111.049,58.902,108.942,61.552z"/>
	<path fill="#707087" d="M109.849,64.482c0.685,4.151,4.939,9.781,6.928,11.67c-0.734-2.506,0.895-3.12,1.649-3.865
		c-1.987-2.139-4.201-7.902-4.25-10.152C112.486,62.5,111.481,63.243,109.849,64.482z"/>
	<path fill="#4B4968" d="M119.662,72.17c0,0,2.279-2.236,3.281-2.98c2.248,0.391,3.996,0.775,6.365,1.541
		C126.548,72.713,121.553,72.873,119.662,72.17z"/>
	<path fill="#E2DCC9" d="M135.384,33.426c1.95,0.116,2.446-4.325,1.317-6.812c-1.131-2.487-2.725-4.188-4.443-3.438
		C129.918,24.198,130.134,33.113,135.384,33.426z"/>
	<path fill="#A00013" d="M135.615,32.044c1.105,0.059,1.389-2.175,0.748-3.425s-1.547-2.106-2.521-1.728
		C132.516,27.404,132.639,31.887,135.615,32.044z"/>
	<polygon fill="#DCEEFA" points="135.754,28.145 135.754,27.145 134.402,26.301 134.402,27.426 	"/>
	<g id="Layer_3_1_">
	</g>
</g>
</svg>
