<?xml version="1.0" encoding="utf-8"?>
<!-- Generator: Adobe Illustrator 16.0.0, SVG Export Plug-In . SVG Version: 6.00 Build 0)  -->
<!DOCTYPE svg PUBLIC "-//W3C//DTD SVG 1.1//EN" "http://www.w3.org/Graphics/SVG/1.1/DTD/svg11.dtd">
<svg version="1.1" id="Layer_1" xmlns="http://www.w3.org/2000/svg" xmlns:xlink="http://www.w3.org/1999/xlink" x="0px" y="0px"
	 width="320px" height="80px" viewBox="0 0 320 80" enable-background="new 0 0 320 80" xml:space="preserve">
<g id="hands">
	<g>
		<g>
			<ellipse fill="#2EE81A" stroke="#000000" stroke-miterlimit="10" cx="61.533" cy="18.648" rx="13.083" ry="11.647"/>
			<ellipse fill="#2EE81A" stroke="#000000" stroke-miterlimit="10" cx="61.533" cy="60.872" rx="13.083" ry="11.646"/>
		</g>
	</g>
</g>
<circle fill="#FFFFFF" stroke="#000000" stroke-miterlimit="10" cx="36.282" cy="39.886" r="29.681"/>
<path fill="#FF7300" stroke="#000000" stroke-miterlimit="10" d="M39.592,58.221c-0.906-1.557-2.619-2.687-4.668-2.863
	c-1.404-0.123-2.732,0.223-3.803,0.894c-0.492-1.166-1.384-2.21-2.607-2.915c-1.231-0.711-2.587-0.938-3.85-0.771
	c0.054-1.272-0.288-2.604-1.105-3.771c-0.808-1.153-1.925-1.951-3.127-2.341c0.576-1.126,0.803-2.479,0.557-3.87
	c-0.245-1.39-0.92-2.583-1.845-3.443c0.998-0.777,1.775-1.909,2.14-3.272c0.368-1.371,0.255-2.748-0.228-3.924
	c1.236-0.281,2.425-0.954,3.333-2.037c0.908-1.083,1.364-2.369,1.427-3.634c1.243,0.271,2.619,0.144,3.906-0.457
	c1.278-0.596,2.257-1.558,2.849-2.674c1.009,0.763,2.303,1.221,3.714,1.221c3.221,0,5.833-2.388,5.833-5.334
	c0-0.138-0.011-0.274-0.022-0.409c2.211-0.378,4.027-1.943,4.466-4.107c0.588-2.886-1.496-5.746-4.653-6.389
	C40.39,7.811,38.903,8.076,37.7,8.75c-0.008-0.125-0.015-0.251-0.033-0.377c-0.415-2.916-3.339-4.91-6.528-4.455
	c-2.657,0.381-4.654,2.343-5.008,4.673c-1.653-1.673-4.404-2.103-6.775-0.855c-2.244,1.182-3.457,3.496-3.206,5.7l-0.249,0.249
	c-2.071-0.831-4.633-0.272-6.361,1.606c-1.813,1.973-2.104,4.742-0.91,6.77c-2.342-0.255-4.75,1.172-5.798,3.643
	c-1.043,2.463-0.404,5.177,1.393,6.688c-2.28,0.556-4.057,2.704-4.214,5.373c-0.155,2.67,1.358,5.01,3.558,5.831
	c-1.961,1.289-2.913,3.909-2.164,6.479c0.753,2.573,2.978,4.272,5.334,4.297c-1.422,1.874-1.458,4.653,0.113,6.827
	c1.569,2.166,4.223,3.021,6.444,2.264c-0.702,2.24,0.219,4.869,2.424,6.387c2.209,1.516,4.991,1.407,6.829-0.06
	c0.08,2.354,1.833,4.534,4.428,5.224c2.586,0.686,5.182-0.33,6.422-2.322c0.874,2.18,3.251,3.631,5.917,3.408
	c3.211-0.271,5.614-2.867,5.369-5.806c-0.076-0.896-0.393-1.724-0.885-2.427c2.408-1.512,3.464-4.417,2.356-6.858
	C45.067,58.609,42.267,57.484,39.592,58.221z"/>
<path fill="#FF0000" stroke="#000000" stroke-miterlimit="10" d="M63.584,39.886c0,2.521-0.175,4.667,1.872,5.482
	c0.569,0.228,1.185,0.351,1.826,0.351c2.946,0,5.334-2.611,5.334-5.833c0-3.221-2.388-5.833-5.334-5.833
	c-0.641,0-1.255,0.124-1.824,0.35C63.41,35.218,63.584,37.365,63.584,39.886z"/>
<path fill="#FF0000" d="M70.977,53.866c1.045,1.436-0.477,3.885-2.06,3.551s-2.083,3.083,0,2.333s4.167-2.583,4.167-0.5
	S71.167,59.667,71,61.667s1.917,1.666,1.25,3.083S70,66.333,69,65.833s-1.167-3.582-2.583-2.166s-0.053,3.167,0.682,3.25
	c0.735,0.083,1.735,0,1.735,1.083s-0.579,2.303-1.073,2.579c-0.494,0.276,4.855-2.496,6.156-7.246
	c1.005-3.673-0.992-8.647-2.75-9.833"/>
<path fill="#FF0000" d="M70.977,25.231c1.045-1.436-0.477-3.885-2.06-3.551s-2.083-3.083,0-2.333s4.167,2.583,4.167,0.5
	S71.167,19.431,71,17.431s1.917-1.666,1.25-3.083S70,12.765,69,13.265s-1.167,3.582-2.583,2.166s-0.053-3.167,0.682-3.25
	c0.735-0.083,1.735,0,1.735-1.083s-0.579-2.303-1.073-2.579c-0.494-0.276,4.855,2.496,6.156,7.246
	c1.005,3.673-0.992,8.648-2.75,9.833"/>
<g id="hands_2_">
	<g>
		<g>
			<ellipse fill="#CE1515" stroke="#000000" stroke-miterlimit="10" cx="141.533" cy="18.648" rx="13.083" ry="11.647"/>
			<ellipse fill="#CE1515" stroke="#000000" stroke-miterlimit="10" cx="141.533" cy="60.872" rx="13.083" ry="11.646"/>
		</g>
	</g>
</g>
<circle fill="#FF6464" stroke="#000000" stroke-miterlimit="10" cx="116.282" cy="39.886" r="29.681"/>
<path fill="#C93912" stroke="#000000" stroke-miterlimit="10" d="M119.592,58.221c-0.906-1.557-2.619-2.687-4.668-2.863
	c-1.404-0.123-2.732,0.223-3.803,0.894c-0.492-1.166-1.385-2.21-2.607-2.915c-1.23-0.711-2.587-0.938-3.85-0.771
	c0.054-1.272-0.288-2.604-1.105-3.771c-0.808-1.153-1.925-1.951-3.127-2.341c0.576-1.126,0.803-2.479,0.558-3.87
	c-0.245-1.39-0.921-2.583-1.845-3.443c0.998-0.777,1.774-1.909,2.14-3.272c0.368-1.371,0.255-2.748-0.228-3.924
	c1.235-0.281,2.424-0.954,3.332-2.037c0.908-1.083,1.364-2.369,1.428-3.634c1.242,0.271,2.619,0.144,3.906-0.457
	c1.277-0.596,2.256-1.558,2.848-2.674c1.01,0.763,2.304,1.221,3.715,1.221c3.221,0,5.833-2.388,5.833-5.334
	c0-0.138-0.012-0.274-0.021-0.409c2.211-0.378,4.026-1.943,4.467-4.107c0.588-2.886-1.496-5.746-4.653-6.389
	c-1.519-0.309-3.005-0.043-4.208,0.631c-0.008-0.125-0.016-0.251-0.033-0.377c-0.415-2.916-3.339-4.91-6.527-4.455
	c-2.658,0.381-4.654,2.343-5.009,4.673c-1.653-1.673-4.403-2.103-6.774-0.855c-2.244,1.182-3.457,3.496-3.207,5.7l-0.248,0.249
	c-2.071-0.831-4.633-0.272-6.361,1.606c-1.812,1.973-2.104,4.742-0.91,6.77c-2.342-0.255-4.75,1.172-5.798,3.643
	c-1.043,2.463-0.403,5.177,1.394,6.688c-2.28,0.556-4.058,2.704-4.215,5.373c-0.154,2.67,1.358,5.009,3.559,5.832
	c-1.961,1.289-2.913,3.908-2.164,6.479c0.753,2.574,2.978,4.273,5.334,4.297c-1.422,1.874-1.458,4.654,0.113,6.827
	c1.568,2.166,4.223,3.021,6.443,2.264c-0.701,2.24,0.219,4.869,2.424,6.386c2.209,1.518,4.991,1.408,6.829-0.059
	c0.08,2.354,1.833,4.534,4.429,5.225c2.586,0.686,5.182-0.332,6.422-2.324c0.873,2.181,3.25,3.632,5.916,3.408
	c3.211-0.271,5.616-2.867,5.37-5.805c-0.076-0.896-0.394-1.721-0.885-2.427c2.407-1.511,3.465-4.417,2.355-6.858
	C125.066,58.609,122.268,57.484,119.592,58.221z"/>
<path fill="#FF0000" stroke="#000000" stroke-miterlimit="10" d="M143.584,39.886c0,2.521-0.175,4.667,1.872,5.482
	c0.569,0.228,1.185,0.351,1.826,0.351c2.946,0,5.334-2.611,5.334-5.833c0-3.221-2.388-5.833-5.334-5.833
	c-0.642,0-1.255,0.124-1.824,0.35C143.41,35.218,143.584,37.365,143.584,39.886z"/>
<path fill="#FF0000" d="M150.977,53.866c1.045,1.436-0.477,3.885-2.06,3.551s-2.083,3.083,0,2.333s4.167-2.583,4.167-0.5
	s-1.917,0.417-2.083,2.417s1.917,1.666,1.25,3.083S150,66.333,149,65.833s-1.167-3.582-2.583-2.166s-0.053,3.167,0.683,3.25
	c0.734,0.083,1.734,0,1.734,1.083s-0.579,2.303-1.072,2.579c-0.494,0.276,4.854-2.496,6.155-7.246
	c1.005-3.673-0.992-8.647-2.75-9.833"/>
<path fill="#FF0000" d="M150.977,25.231c1.045-1.436-0.477-3.885-2.06-3.551s-2.083-3.083,0-2.333s4.167,2.583,4.167,0.5
	s-1.917-0.417-2.083-2.417s1.917-1.666,1.25-3.083S150,12.765,149,13.265s-1.167,3.582-2.583,2.166s-0.053-3.167,0.683-3.25
	c0.734-0.083,1.734,0,1.734-1.083s-0.579-2.303-1.072-2.579c-0.494-0.276,4.854,2.496,6.155,7.246
	c1.005,3.673-0.992,8.648-2.75,9.833"/>
<g id="Layer_2">
	<path fill="#C93912" stroke="#7A1700" stroke-width="0.5" stroke-miterlimit="10" d="M177.458,33
		c-2.161,0.041-3.608-0.87-5.569-1.746c-2.812-1.255-5.863-1.329-8.873-1.548c-0.229-0.017-0.558,0-0.685,0.142
		c-0.366,0.407-0.914,0.893-0.904,1.336c0.013,0.513,0.425,1.261,0.869,1.477c1.534,0.739,3.163,1.278,4.746,1.917
		c1.616,0.652,3.272,0.846,4.877,0.122c1.423-0.644,2.843-0.696,4.312-0.398c1.677,0.34,3.336,0.762,5.014,1.088
		C182.461,35.626,180.379,34.035,177.458,33z"/>
	<path fill="#C93912" stroke="#7A1700" stroke-width="0.5" stroke-miterlimit="10" d="M232.611,51.975
		c-0.107-0.326-0.52-0.589-0.82-0.847c-0.534-0.457-1.091-0.889-1.639-1.331c0.125-0.036,0.248-0.07,0.373-0.105
		c-0.031-0.526,0.146-1.246-0.131-1.545c-1.051-1.138-0.94-1.854,0.57-2.361c-0.086-0.271-0.172-0.547-0.354-1.131
		c0.826,0,1.5-0.121,2.108,0.027c1.112,0.271,2.167,0.781,3.281,1.039c0.87,0.201,1.795,0.17,2.767,0.247
		c-0.154-1.405-0.98-1.672-1.797-1.845c-1.125-0.24-2.285-0.318-3.408-0.572c-0.688-0.154-1.512-0.294-1.601-1.308
		c0.915-0.44,2.095,0.374,3.049-0.808c-2.095,0-4.005,0.278-5.788-0.078c-1.787-0.357-3.447-1.35-5.162-2.062
		c0.022-0.051,0.047-0.102,0.069-0.152c0.269,0.049,0.538,0.097,0.983,0.177c-0.592-0.427-1.016-0.732-1.438-1.038
		c-0.009-0.138-0.018-0.275-0.026-0.414c1.084-0.419,2.152-0.881,3.254-1.247c0.972-0.322,2.023-0.426,2.959-0.82
		c4.423-1.868,5.574-4.629,2.283-2.885c-0.438,0.231-0.906,0.404-1.344,0.597c-0.238-0.59-0.419-1.033-0.599-1.476
		c-0.103,0.034-0.205,0.068-0.308,0.103c0.119,0.506,0.239,1.012,0.373,1.578c-0.43,0.165-0.865,0.461-1.312,0.48
		c-1.396,0.06-2.808,0.12-4.188-0.035c-0.675-0.075-0.951-0.644-0.492-1.443c0.486-0.85,0.806-1.811,1.105-2.753
		c0.799-2.502,1.258-5.175,3.746-6.775c-0.35-0.016-0.666,0.146-0.878,0.057c-1.335-0.557-1.937,0.408-2.642,1.197
		c-0.396,0.444-0.789,0.901-1.24,1.285c-0.323,0.275-0.838,0.702-1.102,0.606c-1.298-0.47-2.539-1.093-3.982-1.745
		c3.557-3.147,6.23-6.399,6.83-10.922c-0.766,0.889-1.321,1.905-1.913,2.899c-0.908,1.527-1.818,3.056-2.777,4.552
		c-0.338,0.527-0.772,0.609-1.412,0.218c-0.389-0.237-1.146-0.217-1.565,0.008c-1.084,0.576-2.03,1.41-3.111,1.993
		c-1.104,0.595-2.3,1.015-3.455,1.511c-0.066-0.116-0.135-0.233-0.201-0.35c0.104-0.306,0.204-0.61,0.322-0.962
		c-0.378,0.067-0.63,0.111-0.939,0.166c-0.045-0.641,0.027-1.228-0.141-1.735c-0.936-2.829-0.97-5.655-0.324-8.558
		c0.232-1.049-0.133-2.107-1.217-2.774c-1.473,1.167-0.93,2.673-0.855,4.101c0.062,1.243,0.164,2.506,0.018,3.733
		c-0.128,1.071-0.607,2.097-0.88,3.155c-0.233,0.909-0.247,1.918-1.403,2.42c-1.094-1.192-2.331-2.292-3.25-3.612
		c-0.908-1.307-1.497-2.836-2.226-4.267c-0.105,0.034-0.212,0.069-0.316,0.104c0.624,2.486,1.2,4.986,1.892,7.454
		c0.395,1.405,0.32,1.829-0.9,2.683c-1.822,1.272-3.473,0.517-4.938-0.588c-1.615-1.217-3.076-2.64-4.584-3.997
		c-0.256-0.23-0.396-0.589-0.597-0.882c-1.024-1.494-2.999,0.352-4.103-1.083c-0.725-0.942-1.269-1.835-1.271-3.103
		c-0.002-0.72-0.46-1.477-0.835-2.147c-0.849-1.515-1.753-2.999-2.675-4.47c-0.415-0.662-0.797-1.488-1.42-1.847
		c-1.881-1.083-3.008-2.788-4.215-4.472c-0.807-1.127-1.704-2.194-2.629-3.228c-0.502-0.559-1.18-0.887-1.863-0.224
		c-0.662,0.641-0.955,1.387-0.301,2.209c0.791,0.996,1.693,1.913,2.398,2.965c0.688,1.029,1.45,2.128,1.702,3.3
		c0.278,1.303,0.769,2.207,1.957,2.748c1.438,0.654,2.403,1.753,3.146,3.14c0.461,0.862,0.982,1.852,1.756,2.36
		c2.123,1.397,4.388,0.048,5.632,2.137c1.344,2.253,2.548,4.611,4.104,6.709c0.822,1.11,0.955,2.233,1.051,3.418
		c0.104,1.267-0.61,1.688-1.752,1.167c-0.533-0.243-1.037-0.551-1.597-0.852c-0.092,0.099-0.215,0.199-0.296,0.326
		c-0.884,1.369-2.174,2.105-3.686,2.673c-1.826,0.688-2.877-0.565-4.205-1.286c-1.625-0.883-3.324-1.632-5.02-2.38
		c-0.238-0.105-0.84,0.048-0.896,0.213c-0.111,0.316-0.088,0.853,0.119,1.074c0.393,0.417,0.938,0.701,1.444,0.995
		c1.544,0.893,3.202,1.626,4.628,2.678c1.816,1.341,3.523,2.897,2.452,5.641c0.315,0.11,0.56,0.239,0.815,0.279
		c1.488,0.228,1.763,0.782,0.996,2.134c-0.932,1.639-2.358,2.574-4.221,2.76c-1.462,0.146-16.113,2.447-17.558,2.676
		c-1.138,0.181-2.334,0.501-3.298,1.095c-0.939,0.578-0.848,1.386,0.169,1.794c1.057,0.426,2.295,0.766,3.394,0.635
		c1.555-0.187,16.189-3.342,17.741-3.646c1.491-0.294,3.047-0.494,4.556-0.404c1.666,0.1,2.453,1.176,2.651,2.99
		c0.123,1.118-0.403,1.74-2.003,2.386c-0.104,0.042-0.178,0.153-0.327,0.288c0.16,0.213,0.279,0.479,0.483,0.622
		c0.738,0.521,1.488,1.001,0.367,1.875c-0.051,0.04-0.105,0.151-0.086,0.19c0.672,1.27-0.254,2.238-0.634,3.298
		c-0.372,1.043-0.97,2.024-1.192,3.092c-0.104,0.489,0.449,1.119,0.705,1.687c0.398-0.281,0.887-0.49,1.182-0.855
		c0.495-0.612,0.809-1.372,1.309-1.979c0.588-0.715,1.514-0.777,2.141-0.273c0.342,0.273,0.23,1.148,0.258,1.756
		c0.01,0.212-0.145,0.458-0.282,0.646c-1.332,1.815-2.688,3.612-4.008,5.438c-0.381,0.528-0.713,1.108-0.955,1.712
		c-0.086,0.213,0.085,0.68,0.284,0.811c0.169,0.11,0.605-0.016,0.818-0.176c0.439-0.332,0.879-0.709,1.195-1.152
		c1.083-1.522,2.027-3.15,3.192-4.604c0.853-1.063,1.862-2.077,2.993-2.819c1.287-0.842,1.707-0.574,1.996,0.947
		c0.604,3.17,0.306,6.217-1.119,9.176c-0.592,1.229-0.979,2.621-1.152,3.978c-0.26,2.037,1.213,3.336,3.129,2.992
		c2.801-0.503,4.812-4.179,3.645-6.747c-0.478-1.047-1.051-2.059-1.686-3.02c-2.18-3.298-0.918-6.3,1.508-8.363
		c2.303-1.959,5.026-3.297,8.069-3.557c1.304-0.111,2.853,0.139,3.959,0.785c1.765,1.033,3.278,2.51,4.856,3.848
		c2.187,1.856,4.041,3.949,4.567,6.914c0.048,0.271,0.147,0.539,0.269,0.784c0.427,0.869,1.47,1.421,2.007,1.08
		c0.581-0.368,0.548-1.418-0.074-2.269c-0.022-0.03-0.054-0.059-0.073-0.094c-0.586-0.965-1.199-1.914-1.75-2.899
		c-0.6-1.075-1.088-2.216-1.72-3.271c-1-1.67-0.642-3.22,0.983-4.22c0.631-0.389,1.127-0.993,1.746-1.405
		c0.355-0.236,0.89-0.479,1.25-0.38c0.67,0.183,1.135,0.2,1.715-0.298c0.381-0.324,1.101-0.388,1.588-0.4
		C231.75,55.375,233.223,53.824,232.611,51.975z"/>
	<path fill="#C93912" stroke="#7A1700" stroke-width="0.5" stroke-miterlimit="10" d="M185.643,67.916
		c-1.735-0.012-3.523,1.621-3.512,3.205c0.01,1.372,1.368,2.436,3.122,2.445c1.874,0.011,3.417-1.488,3.375-3.28
		C188.602,69.115,187.102,67.925,185.643,67.916z"/>
	<path fill="#C93912" stroke="#7A1700" stroke-width="0.5" stroke-miterlimit="10" d="M186.311,24.416
		c-1.736-0.011-3.524,1.621-3.513,3.205c0.011,1.372,1.368,2.435,3.122,2.445c1.874,0.011,4.624,0.56,4.582-1.232
		C190.475,27.663,187.77,24.425,186.311,24.416z"/>
	<path fill="#C93912" stroke="#7A1700" stroke-width="0.5" stroke-miterlimit="10" d="M173.957,52.166
		c-1.736-0.012-3.523,1.621-3.512,3.205c0.01,1.372,1.367,2.436,3.121,2.445c1.875,0.011,12.477-3.358,12.435-5.15
		C185.975,51.495,175.416,52.175,173.957,52.166z"/>
	<path fill="#C93912" stroke="#7A1700" stroke-width="0.5" stroke-miterlimit="10" d="M175.643,36.152
		c-1.735-0.011-3.523,1.621-3.512,3.205c0.01,1.372,1.368,2.435,3.122,2.445c1.874,0.011,6.418-1.032,6.376-2.825
		C181.602,37.807,177.102,36.161,175.643,36.152z"/>
	<path fill="#C93912" stroke="#7A1700" stroke-width="0.5" stroke-miterlimit="10" d="M171.999,17.729
		c-1.615-0.638-3.872,0.237-4.435,1.718c-0.485,1.283,0.396,2.765,2.027,3.409c1.743,0.688,10.465,3.246,11.074,1.56
		C181.064,23.314,173.355,18.265,171.999,17.729z"/>
	<path fill="#C93912" stroke="#7A1700" stroke-width="0.5" stroke-miterlimit="10" d="M165.809,68.932
		c1.459,0.01,2.957,1.199,2.984,2.37c0.042,1.792-1.501,3.291-3.375,3.28c-1.754-0.012-3.111-1.073-3.122-2.445
		C162.283,70.553,164.07,68.921,165.809,68.932z"/>
</g>
<circle fill="#E2CEC9" stroke="#000000" stroke-width="0.7858" stroke-miterlimit="10" cx="214.903" cy="33.898" r="4.584"/>
<circle fill="#E2CEC9" stroke="#000000" stroke-width="0.7858" stroke-miterlimit="10" cx="208.134" cy="50.158" r="4.583"/>
<ellipse transform="matrix(0.8266 0.5628 -0.5628 0.8266 65.465 -109.3214)" cx="210.14" cy="51.576" rx="1.555" ry="2.195"/>
<ellipse transform="matrix(0.158 0.9874 -0.9874 0.158 212.5292 -184.9871)" cx="214.738" cy="32.13" rx="1.804" ry="2.196"/>
<ellipse transform="matrix(0.1581 0.9874 -0.9874 0.1581 210.9915 -184.5808)" fill="#FFFFFF" cx="213.738" cy="31.44" rx="0.717" ry="0.913"/>
<path fill="#FFFFFF" d="M207.825,50.304c-1.181,0.188-2.262-0.409-2.408-1.339c-0.15-0.929,0.689-1.833,1.87-2.021
	c1.183-0.189,2.26,0.41,2.408,1.34C209.846,49.208,209.008,50.114,207.825,50.304z"/>
<circle fill="#FF4D4D" stroke="#000000" stroke-width="0.7858" stroke-miterlimit="10" cx="224.491" cy="47.575" r="4.583"/>
<ellipse transform="matrix(0.158 0.9874 -0.9874 0.158 234.1153 -182.9382)" fill="#FF9999" cx="224.325" cy="45.807" rx="1.805" ry="2.195"/>
</svg>
