<?xml version="1.0" encoding="utf-8"?>
<!-- Generator: Adobe Illustrator 16.0.0, SVG Export Plug-In . SVG Version: 6.00 Build 0)  -->
<!DOCTYPE svg PUBLIC "-//W3C//DTD SVG 1.1//EN" "http://www.w3.org/Graphics/SVG/1.1/DTD/svg11.dtd">
<svg version="1.1" id="Layer_1" xmlns="http://www.w3.org/2000/svg" xmlns:xlink="http://www.w3.org/1999/xlink" x="0px" y="0px"
	 width="160px" height="80px" viewBox="0 0 160 80" enable-background="new 0 0 160 80" xml:space="preserve">
<g id="hands">
	<g>
		<g>
			<ellipse fill="#2EE81A" stroke="#000000" stroke-miterlimit="10" cx="61.533" cy="18.648" rx="13.083" ry="11.647"/>
			<ellipse fill="#2EE81A" stroke="#000000" stroke-miterlimit="10" cx="61.533" cy="60.872" rx="13.083" ry="11.646"/>
		</g>
	</g>
</g>
<circle fill="#FFFFFF" stroke="#000000" stroke-miterlimit="10" cx="36.282" cy="39.886" r="29.681"/>
<circle fill="#FFFFFF" stroke="#000000" stroke-miterlimit="10" cx="116.282" cy="39.886" r="29.681"/>
<path fill="#FF7300" stroke="#000000" stroke-miterlimit="10" d="M39.592,58.22c-0.906-1.556-2.619-2.686-4.668-2.863
	c-1.404-0.123-2.732,0.221-3.803,0.892c-0.492-1.166-1.384-2.21-2.607-2.915c-1.231-0.711-2.587-0.935-3.85-0.771
	c0.054-1.274-0.288-2.606-1.105-3.772c-0.808-1.155-1.925-1.951-3.127-2.341c0.576-1.126,0.803-2.48,0.557-3.87
	c-0.245-1.389-0.92-2.583-1.845-3.443c0.998-0.777,1.775-1.909,2.14-3.272c0.368-1.371,0.255-2.748-0.228-3.924
	c1.236-0.281,2.425-0.954,3.333-2.037c0.908-1.083,1.364-2.369,1.427-3.634c1.243,0.271,2.619,0.144,3.906-0.457
	c1.278-0.596,2.257-1.558,2.849-2.674c1.009,0.763,2.303,1.221,3.714,1.221c3.221,0,5.833-2.388,5.833-5.334
	c0-0.138-0.011-0.274-0.022-0.409c2.211-0.378,4.027-1.943,4.466-4.107c0.588-2.886-1.496-5.746-4.653-6.389
	C40.39,7.811,38.903,8.076,37.7,8.75c-0.008-0.125-0.015-0.251-0.033-0.377c-0.415-2.916-3.339-4.91-6.528-4.455
	c-2.657,0.381-4.654,2.343-5.008,4.673c-1.653-1.673-4.404-2.103-6.775-0.855c-2.244,1.182-3.457,3.496-3.206,5.7l-0.249,0.249
	c-2.071-0.831-4.633-0.272-6.361,1.606c-1.813,1.973-2.104,4.742-0.91,6.77c-2.342-0.255-4.75,1.172-5.798,3.643
	c-1.043,2.463-0.404,5.177,1.393,6.688c-2.28,0.556-4.057,2.704-4.214,5.373c-0.155,2.67,1.358,5.011,3.558,5.831
	c-1.961,1.289-2.913,3.909-2.164,6.477c0.753,2.576,2.978,4.275,5.334,4.297c-1.422,1.874-1.458,4.656,0.113,6.827
	c1.569,2.166,4.223,3.021,6.444,2.264c-0.702,2.24,0.219,4.869,2.424,6.384c2.209,1.517,4.991,1.41,6.829-0.057
	c0.08,2.355,1.833,4.534,4.428,5.223c2.586,0.685,5.182-0.331,6.422-2.324c0.874,2.18,3.251,3.632,5.917,3.409
	c3.211-0.27,5.614-2.867,5.369-5.804c-0.076-0.897-0.393-1.721-0.885-2.427c2.408-1.509,3.464-4.417,2.356-6.858
	C45.067,58.609,42.267,57.485,39.592,58.22z"/>
<path fill="#FF0000" stroke="#000000" stroke-miterlimit="10" d="M63.584,39.886c0,2.521-0.175,4.667,1.872,5.482
	c0.569,0.227,1.185,0.351,1.826,0.351c2.946,0,5.334-2.611,5.334-5.833c0-3.221-2.388-5.833-5.334-5.833
	c-0.641,0-1.255,0.124-1.824,0.35C63.41,35.218,63.584,37.365,63.584,39.886z"/>
<path fill="#FF0000" d="M70.977,53.866c1.045,1.436-0.477,3.885-2.06,3.551s-2.083,3.083,0,2.333s4.167-2.583,4.167-0.5
	S71.167,59.667,71,61.667s1.917,1.666,1.25,3.083S70,66.333,69,65.833s-1.167-3.582-2.583-2.166s-0.053,3.167,0.682,3.25
	s1.735,0,1.735,1.083s-0.579,2.303-1.073,2.579s4.855-2.496,6.156-7.246c1.005-3.673-0.992-8.648-2.75-9.833"/>
<path fill="#FF0000" d="M70.977,25.231c1.045-1.436-0.477-3.885-2.06-3.551s-2.083-3.083,0-2.333s4.167,2.583,4.167,0.5
	S71.167,19.431,71,17.431s1.917-1.666,1.25-3.083S70,12.765,69,13.265s-1.167,3.582-2.583,2.166s-0.053-3.167,0.682-3.25
	s1.735,0,1.735-1.083s-0.579-2.303-1.073-2.579s4.855,2.496,6.156,7.246c1.005,3.673-0.992,8.648-2.75,9.833"/>
</svg>
