<?xml version="1.0" encoding="utf-8"?>
<!-- Generator: Adobe Illustrator 16.0.0, SVG Export Plug-In . SVG Version: 6.00 Build 0)  -->
<!DOCTYPE svg PUBLIC "-//W3C//DTD SVG 1.1//EN" "http://www.w3.org/Graphics/SVG/1.1/DTD/svg11.dtd">
<svg version="1.1" xmlns="http://www.w3.org/2000/svg" xmlns:xlink="http://www.w3.org/1999/xlink" x="0px" y="0px" width="80px"
	 height="80px" viewBox="0 0 80 80" enable-background="new 0 0 80 80" xml:space="preserve">
<g id="Layer_2">
	<path fill="#343334" d="M49.761,69.557c0.672-0.406,1.688-0.882,1.875,1.056c5.938-3.25,11.875-10.959,12.75-12.334
		s1.854-0.459,2.167-0.084c1.039-1.177,3.331-10.591,3.331-18.013c0-7.421-1.833-16.443-3.208-18.068
		c-0.312,0.375-1.292,1.583-2.167,0.208S57.771,13.03,51.834,9.78c-0.188,1.938-1.033,1.877-1.408,1.564
		c-0.361-0.301-9.208-7.795-21.582-1.6c-0.476,0.238-1.811,1.185-2.294,1.462c-0.982,0.564-4.625,0.906-7.375,0.74
		c1.583,1.584,1.446,3.115,0.541,3.833c-8.84,7.018-11.791,15.083-11.791,24.208s3.494,17.982,12.334,25
		c0.905,0.719,0.208,1.708-1.375,3.292c2.75-0.166,6.643,0.21,7.625,0.774C26.992,69.332,40.869,74.931,49.761,69.557z"/>
	<path fill="#CAE1ED" d="M50.384,68.244c0.375-0.312,1.438-0.625,1.625,1.312c5.938-3.25,11.333-10.859,12.208-12.234
		s1.854-0.703,2.167-0.328c0.794-1.545,2.5-8.312,2.5-16.812l-0.041-0.097l0.041-0.097c0-8.5-1.706-15.268-2.5-16.812
		c-0.312,0.375-1.292,1.047-2.167-0.328s-6.271-8.984-12.208-12.234c-0.188,1.938-1.25,1.625-1.625,1.312
		c-0.361-0.301-9.938-7.093-22.312-0.898c-0.476,0.238-0.955,0.496-1.438,0.773c-0.982,0.564-3.291,0.854-6.041,0.688
		c1.583,1.584,1.248,2.435,0.343,3.153C12.096,22.659,8.592,31.39,8.592,39.988c0,0.032,0.004,0.064,0.004,0.097
		s-0.004,0.064-0.004,0.097c0,8.599,3.504,17.329,12.344,24.347c0.905,0.719,1.24,1.569-0.343,3.153
		c2.75-0.166,5.059,0.123,6.041,0.688c0.483,0.277,2.027,0.933,2.536,1.087C41.651,73.231,50.022,68.545,50.384,68.244z"/>
	<path fill="#A3C1E6" d="M20.196,62.801c-2.375-2.375-4.688-8.75-4.75-10.562c0.812,2.562,4.281,4.25,4.281,4.25
		s-3.281-6.562-3.219-10.125c1,1.75,3.938,3.5,3.938,3.5s0.188-3.812-1.312-7.312c2.5,0.062,3.812-2.562,3.812-2.562
		s-1.312-2.625-3.812-2.562c1.5-3.5,1.312-7.312,1.312-7.312s-2.938,1.75-3.938,3.5c-0.062-3.562,3.219-10.125,3.219-10.125
		s-3.469,1.688-4.281,4.25c0.062-1.812,2.375-8.188,4.75-10.562c-3.058,2.843-8.45,8.001-9.922,17.659
		c-0.241,1.117-0.391,2.769-0.391,5.154c0,2.386,0.149,4.037,0.391,5.154C11.746,54.8,17.139,59.958,20.196,62.801z"/>
	<path fill="#FFFFFF" d="M48.258,59.915c0.875-1.592,1.459-3.05,1.167-3.675s-2.501-4.25-4.917-5.459
		c0.875-0.708,3.416-0.291,3.5-0.791s-1.333-7.629-5.083-10.002c3.75-2.373,5.167-9.501,5.083-10.001s-2.625-0.083-3.5-0.792
		c2.416-1.208,4.625-4.833,4.917-5.458s-0.292-2.083-1.167-3.675c1.5-1.3,5-1.2,5-1.908s-1.236-4.143-2.291-5.292
		c-1.69-1.839-8.45,4.11-12.248,6.272c0.653,0.184,2.305,0.688,1.468,0.866c-1.031,0.219-2.387,1.312-2.875,2.094
		c-0.031-0.688,0.309-1.185,0.875-1.562c-1.024,0.389-2.406,1.406-3.281,2.465c-0.143-0.383-0.205-1.013-0.231-1.541
		c-3.093,2.166-6.526,5.422-7.166,7.614c-0.834-5.417,5.158-8.248,4.033-8.332s-1.465-1.53-3.824-0.46c0.834-1.958,8-6.333,8-6.333
		s-0.459-3.917-2.042-2.833s-9.208,2.75-11.333,2.458c0.789,1.041,4.125,2.292,5.5,2.208c-1.458,1.083-4.459,4.667-4.917,9
		c0.708-0.958,2.417-2.083,3.75-1.75c0.458,1.958-1.083,7.708-2.75,9.917c0.917,0.167,2.792,0.5,3.875-1.25
		c0.958,2.875-1.042,8.293-1.042,8.293s2,5.418,1.042,8.293c-1.083-1.75-2.958-1.416-3.875-1.25c1.667,2.209,3.208,7.959,2.75,9.918
		c-1.333,0.332-3.042-0.792-3.75-1.75c0.458,4.332,3.459,7.916,4.917,9c-1.375-0.084-4.711,1.166-5.5,2.207
		c2.125-0.291,9.75,1.375,11.333,2.459s2.042-2.834,2.042-2.834s-7.166-4.374-8-6.332c2.333,1.332,2.532-0.334,3.657-0.418
		s-4.7-2.958-3.866-8.375c0.632,2.168,3.998,5.377,7.065,7.542c0.035-0.47,0.1-0.976,0.224-1.303
		c0.868,1.065,2.244,2.091,3.266,2.486c-0.563-0.381-0.9-0.881-0.865-1.567c0.483,0.783,1.832,1.886,2.862,2.111
		c0.724,0.158-0.422,0.55-1.167,0.77c3.827,2.239,10.408,7.981,12.073,6.17c1.055-1.149,2.291-4.584,2.291-5.292
		S49.758,61.215,48.258,59.915z"/>
	<path fill="#98B7E0" d="M62.205,55.328c0,0,0.498-0.07,0.832,1.174c1.341-2.086-0.055-7,0.82-7.015s2.586-2.294,3.066-3.489
		c-1.062,0.018-0.321-0.495-1.513-0.725c0.893-0.496,1.335-3.694,1.4-5.274l0.01-0.011c-0.001-0.029-0.004-0.063-0.006-0.093
		c0.002-0.027,0.004-0.058,0.004-0.084l-0.008-0.009c-0.094-1.579-0.589-4.771-1.49-5.251c1.188-0.25,0.438-0.75,1.5-0.75
		c-0.5-1.188-2.25-3.438-3.125-3.438s0.438-4.938-0.938-7c-0.312,1.25-0.812,1.188-0.812,1.188s-1.688-6.688-6.812-7.5
		c0,1.188,0.125,1.625-0.312,2s-3.879,0.635-4.938,1.375c0.438,1.062,1.125,2.812,1.125,2.812s-2.812,4.562-3.875,5.281
		c1.125,0.531,1.312,0.844,2.375,0.906c0.062,1.375-1.875,8-4.562,10.562c0.047,0.029,0.102,0.064,0.15,0.094
		c-0.048,0.031-0.102,0.066-0.148,0.096c2.729,2.517,4.778,9.108,4.739,10.484c-1.062,0.081-1.243,0.396-2.359,0.946
		c1.074,0.7,3.963,5.215,3.963,5.215s-0.658,1.762-1.077,2.831c1.07,0.722,4.516,0.925,4.96,1.292
		c0.443,0.367,0.326,0.807,0.346,1.994C60.63,62.043,62.205,55.328,62.205,55.328z"/>
	<path fill="#4E6289" d="M61.626,52.98c0,0,0.465-0.064,0.776,1.07c1.251-1.902-1.051-5.385-0.234-5.398
		c0.816-0.013,2.412-2.092,2.86-3.182c-0.991,0.016-0.3-0.452-1.411-0.662c0.832-0.452,1.769-3.289,1.83-4.73l0.008-0.01
		c0-0.026-0.003-0.058-0.004-0.085c0-0.025,0.002-0.053,0.002-0.077l-0.007-0.009c-0.087-1.44-1.072-4.432-1.913-4.87
		c1.107-0.228,0.408-0.684,1.399-0.684c-0.466-1.083-2.099-3.136-2.915-3.136s1.408-3.503,0.125-5.385
		c-0.291,1.14-0.758,1.083-0.758,1.083s-0.132-7.1-4.913-7.841c0,1.083,0.116,1.482-0.292,1.824
		c-0.408,0.342-4.699-1.235-5.758-0.496c0.438,1.062,1.125,2.812,1.125,2.812s-2.812,4.562-3.875,5.281
		c1.125,0.531,0.774,0.875,1.837,0.938c0.062,1.375-1.337,7.968-4.024,10.531c0.047,0.029,0.102,0.064,0.149,0.094
		c-0.048,0.031-0.102,0.066-0.147,0.096c2.729,2.517,4.777,9.109,4.738,10.484c-1.061,0.082-1.242,0.396-2.359,0.947
		c1.074,0.699,3.963,5.215,3.963,5.215s-1.195,1.793-1.614,2.862c1.07,0.722,5.88-0.884,6.295-0.549
		c0.413,0.335,0.304,0.735,0.323,1.819C61.6,60.105,61.626,52.98,61.626,52.98z"/>
	<path fill="#3C4674" d="M55.101,58.691c0,0-2.747-12.828-2.759-18.662c0-0.007,0-0.013,0-0.02c0-0.008,0-0.014,0-0.021
		c0-5.833,2.723-18.667,2.723-18.667l-3.889-0.583l0.658,2.75l-2.742,4.724l1.486,1.276l-4.486,10.5l0.031,0.026l-0.031,0.027
		L50.6,50.533l-1.484,1.278l2.75,4.72l-0.652,2.75L55.101,58.691z"/>
	<path fill="#3C4674" d="M59.355,44.01c1.427-0.473,1.366-2.971,1.341-4.034l0,0c0-1.068-0.005-3.552-1.438-3.988
		c-1.438-0.438-4.562,2.062-4.562,4c0,0.024,0.006,0.045,0.007,0.068c0,0.022-0.006,0.042-0.005,0.064
		C54.745,42.059,57.929,44.482,59.355,44.01z"/>
	<path fill="#343334" d="M59.821,38.738c0,0-0.25-2.688-1.125-1.938S59.821,38.738,59.821,38.738z"/>
	<polygon fill="#DCEEFA" points="62.073,35.357 60.465,35.941 62.35,36.668 60.707,37.256 62.446,38.129 61.404,38.772 
		62.54,39.238 62.35,37.395 	"/>
	<polygon fill="#DCEEFA" points="62.078,44.632 60.469,44.049 62.354,43.32 60.71,42.734 62.448,41.859 61.405,41.217 62.541,40.75 
		62.354,42.594 	"/>
	<path fill="#3C4674" d="M57.051,33.947c1.952-0.065,2.129-5.159,1-7.646c-1.13-2.487-3.074-4.355-4.793-3.604
		C50.918,23.719,50.176,34.176,57.051,33.947z"/>
	<path fill="#3C4674" d="M57.051,45.947c1.952,0.064,2.129,5.158,1,7.646c-1.13,2.487-3.074,4.354-4.793,3.604
		C50.918,56.174,50.176,45.718,57.051,45.947z"/>
	<path fill="#343334" d="M59.824,41.266c0,0-0.245,2.688-1.121,1.939C57.826,42.457,59.824,41.266,59.824,41.266z"/>
	<path fill="#3D4674" d="M61.893,45.834c0,0,0.705-2.895,0.885-5.024c0.025-0.195,0.041-0.437,0.041-0.716
		c0-0.026-0.002-0.056-0.002-0.083c0-0.029,0.002-0.06,0.002-0.088c0-0.28-0.017-0.522-0.043-0.718
		c-0.184-2.129-0.895-5.021-0.895-5.021s0.5,3.812,0.5,5.812c0,0.004,0,0.007,0,0.011c0,0.004,0,0.008,0,0.013
		C62.385,42.021,61.893,45.834,61.893,45.834z"/>
	<path fill="#FFC81A" d="M56.396,46.584c1.949-0.119,2.455,4.32,1.33,6.811c-1.125,2.489-2.717,4.193-4.437,3.445
		C50.949,55.822,51.146,46.906,56.396,46.584z"/>
	<path fill="#343334" d="M56.611,47.717c1.105-0.062,1.392,2.172,0.754,3.424c-0.639,1.251-1.543,2.108-2.518,1.733
		C53.52,52.362,53.633,47.88,56.611,47.717z"/>
	<polygon fill="#DCEEFA" points="56.757,51.616 56.758,52.616 55.408,53.462 55.406,52.337 	"/>
	<path fill="#343334" d="M29.301,19.065c0.775-6.655,7.377-16.644,8.041-16.981c0.664-0.337,11.951-0.414,14.79,6.885
		c-0.484,2.043-5.621,2.575-6.45,3.163c-0.442,1.014-1.499,4.248-0.735,6.243c-2.232,1.469-4.977,2.293-7.564,2.561
		c-0.159,0.016-1.413,0.799-1.601,1.002c-0.203-0.469,0.751-0.933,0.565-0.925c-0.727,0.034-1.433,0.023-2.103-0.031
		c-0.308-0.025-1.462,0.19-1.666,0.44c-0.203-0.359-0.172-0.531-0.078-0.696C31.059,20.407,29.916,19.844,29.301,19.065z"/>
	<path fill="#585674" d="M30.076,18.562c2.018-7.197,7.148-15.218,7.814-15.552c0.666-0.335,10.16-0.557,13.757,6.078
		c-2.109,1.942-5.748,2.054-6.58,2.639c-0.445,1.011-1.227,4.401-0.934,6.417C39.308,20.571,32.166,21.225,30.076,18.562z"/>
	<path fill="#707087" d="M31.001,15.637c0.71-4.147,5-9.75,7-11.625c-0.75,2.5,0.875,3.125,1.625,3.875
		c-2,2.125-4.25,7.875-4.312,10.125C33.626,17.637,32.626,16.887,31.001,15.637z"/>
	<path fill="#4B4968" d="M40.862,8.012c0,0,2.266,2.25,3.264,3c2.25-0.375,4-0.75,6.375-1.5C47.751,7.512,42.758,7.32,40.862,8.012z
		"/>
	<path fill="#343334" d="M29.17,61.044c0.733,6.66,7.273,16.688,7.935,17.031c0.662,0.341,11.948,0.488,14.833-6.792
		c-0.472-2.047-5.605-2.61-6.431-3.203c-0.436-1.017-1.473-4.258-0.696-6.248c-2.224-1.482-5.766-2.361-8.352-2.645
		c-0.159-0.018-1.135-0.922-1.321-1.125c-0.206,0.467,0.757,1.068,0.572,1.059c-0.726-0.038-0.913-0.012-1.584,0.037
		c-0.308,0.023-1.986-0.694-2.188-0.945c-0.205,0.358,0.35,1.025,0.442,1.19C30.937,59.713,29.79,60.27,29.17,61.044z"/>
	<path fill="#585674" d="M29.942,61.552c1.973,7.209,7.053,15.262,7.717,15.601c0.664,0.338,10.155,0.619,13.795-5.992
		c-2.098-1.956-5.735-2.09-6.563-2.68c-0.439-1.014-1.199-4.408-0.894-6.423C39.187,59.602,32.049,58.902,29.942,61.552z"/>
	<path fill="#707087" d="M30.849,64.482c0.685,4.152,4.939,9.781,6.928,11.67c-0.734-2.506,0.895-3.12,1.649-3.865
		c-1.987-2.138-4.201-7.902-4.25-10.152C33.486,62.5,32.481,63.243,30.849,64.482z"/>
	<path fill="#4B4968" d="M40.662,72.17c0,0,2.279-2.236,3.282-2.98c2.248,0.39,3.995,0.775,6.365,1.541
		C47.548,72.713,42.553,72.873,40.662,72.17z"/>
	<path fill="#FFC81A" d="M56.384,33.426c1.95,0.116,2.446-4.325,1.317-6.812c-1.13-2.487-2.725-4.188-4.443-3.438
		C50.918,24.198,51.134,33.113,56.384,33.426z"/>
	<path fill="#343334" d="M56.615,32.044c1.106,0.059,1.389-2.175,0.748-3.425s-1.547-2.106-2.521-1.728
		C53.516,27.404,53.638,31.887,56.615,32.044z"/>
	<polygon fill="#DCEEFA" points="56.754,28.145 56.754,27.145 55.402,26.301 55.402,27.426 	"/>
	<polygon fill="#343334" points="48.842,34.405 49.634,34.405 48.467,35.357 49.051,35.572 48.051,36.28 48.759,37.905 
		46.412,39.238 48.334,35.938 	"/>
	<polygon fill="#343334" points="49.243,46.82 49.842,45.943 48.438,45.108 49.342,44.069 47.559,42.963 49.009,41.53 
		45.787,40.447 48.309,44.527 	"/>
</g>
<g id="Layer_3">
</g>
</svg>
