<?xml version="1.0" encoding="utf-8"?>
<!-- Generator: Adobe Illustrator 16.0.0, SVG Export Plug-In . SVG Version: 6.00 Build 0)  -->
<!DOCTYPE svg PUBLIC "-//W3C//DTD SVG 1.1//EN" "http://www.w3.org/Graphics/SVG/1.1/DTD/svg11.dtd">
<svg version="1.1" id="Layer_1" xmlns="http://www.w3.org/2000/svg" xmlns:xlink="http://www.w3.org/1999/xlink" x="0px" y="0px"
	 width="320px" height="80px" viewBox="0 0 320 80" enable-background="new 0 0 320 80" xml:space="preserve">
<g id="Layer_2">
	<path fill="#44CC23" d="M177.458,33c-2.161,0.041-3.608-0.87-5.569-1.746c-2.812-1.255-5.863-1.329-8.873-1.548
		c-0.229-0.017-0.558,0-0.685,0.142c-0.366,0.407-0.914,0.893-0.904,1.336c0.013,0.513,0.425,1.261,0.869,1.477
		c1.534,0.739,3.163,1.278,4.746,1.917c1.616,0.652,3.272,0.846,4.877,0.122c1.423-0.644,2.843-0.696,4.312-0.398
		c1.678,0.34,3.336,0.762,5.015,1.088C182.461,35.626,180.379,34.035,177.458,33z"/>
	<path fill="#44CC23" d="M232.611,51.975c-0.107-0.326-0.521-0.589-0.82-0.847c-0.534-0.457-1.091-0.889-1.639-1.331
		c0.125-0.036,0.248-0.07,0.373-0.105c-0.031-0.525,0.146-1.246-0.131-1.545c-1.052-1.138-0.94-1.854,0.569-2.36
		c-0.086-0.271-0.172-0.547-0.354-1.132c0.826,0,1.5-0.12,2.108,0.027c1.112,0.271,2.167,0.781,3.281,1.039
		c0.87,0.201,1.795,0.17,2.767,0.247c-0.154-1.405-0.979-1.672-1.797-1.845c-1.125-0.24-2.285-0.318-3.408-0.572
		c-0.688-0.154-1.512-0.294-1.601-1.308c0.915-0.44,2.095,0.374,3.049-0.808c-2.095,0-4.005,0.277-5.788-0.078
		c-1.787-0.357-3.447-1.351-5.162-2.062c0.022-0.051,0.047-0.102,0.069-0.152c0.269,0.049,0.538,0.097,0.983,0.177
		c-0.592-0.427-1.016-0.732-1.438-1.038c-0.009-0.138-0.019-0.275-0.026-0.414c1.084-0.419,2.152-0.881,3.254-1.247
		c0.973-0.322,2.023-0.426,2.959-0.82c4.424-1.868,5.574-4.629,2.283-2.885c-0.438,0.231-0.906,0.404-1.344,0.597
		c-0.238-0.59-0.419-1.033-0.599-1.476c-0.103,0.034-0.205,0.068-0.308,0.103c0.119,0.506,0.238,1.012,0.373,1.578
		c-0.431,0.165-0.865,0.461-1.312,0.48c-1.396,0.06-2.809,0.12-4.188-0.035c-0.676-0.075-0.951-0.644-0.492-1.443
		c0.485-0.85,0.806-1.811,1.104-2.753c0.799-2.502,1.258-5.175,3.746-6.775c-0.351-0.016-0.666,0.146-0.878,0.057
		c-1.335-0.557-1.938,0.408-2.643,1.197c-0.396,0.444-0.789,0.901-1.24,1.285c-0.322,0.275-0.838,0.702-1.102,0.606
		c-1.298-0.47-2.539-1.093-3.982-1.745c3.558-3.147,6.23-6.399,6.83-10.922c-0.766,0.889-1.32,1.905-1.912,2.899
		c-0.908,1.527-1.818,3.056-2.777,4.552c-0.338,0.527-0.771,0.609-1.412,0.218c-0.389-0.237-1.146-0.217-1.564,0.008
		c-1.084,0.576-2.03,1.41-3.111,1.993c-1.104,0.595-2.3,1.015-3.455,1.511c-0.066-0.116-0.135-0.233-0.201-0.35
		c0.104-0.306,0.204-0.61,0.322-0.962c-0.378,0.067-0.63,0.111-0.939,0.166c-0.045-0.641,0.027-1.228-0.141-1.735
		c-0.936-2.829-0.97-5.655-0.324-8.558c0.232-1.049-0.133-2.107-1.217-2.774c-1.473,1.167-0.93,2.673-0.855,4.101
		c0.062,1.243,0.164,2.506,0.019,3.733c-0.128,1.071-0.606,2.097-0.88,3.155c-0.233,0.909-0.247,1.918-1.403,2.42
		c-1.094-1.192-2.331-2.292-3.25-3.612c-0.907-1.307-1.497-2.836-2.226-4.267c-0.105,0.034-0.213,0.069-0.316,0.104
		c0.624,2.486,1.2,4.986,1.893,7.454c0.395,1.405,0.32,1.829-0.9,2.683c-1.822,1.272-3.473,0.517-4.938-0.588
		c-1.615-1.217-3.076-2.64-4.584-3.997c-0.256-0.23-0.396-0.589-0.598-0.882c-1.023-1.494-2.999,0.352-4.104-1.083
		c-0.725-0.942-1.269-1.835-1.271-3.103c-0.002-0.72-0.46-1.477-0.835-2.147c-0.85-1.515-1.753-2.999-2.675-4.47
		c-0.415-0.662-0.797-1.488-1.42-1.847c-1.882-1.083-3.009-2.788-4.216-4.472c-0.807-1.127-1.703-2.194-2.629-3.228
		c-0.502-0.559-1.18-0.887-1.862-0.224c-0.662,0.641-0.955,1.387-0.302,2.209c0.791,0.996,1.693,1.913,2.398,2.965
		c0.688,1.029,1.45,2.128,1.702,3.3c0.278,1.303,0.769,2.207,1.957,2.748c1.438,0.654,2.403,1.753,3.146,3.14
		c0.461,0.862,0.982,1.852,1.756,2.36c2.123,1.397,4.389,0.048,5.633,2.137c1.344,2.253,2.548,4.611,4.104,6.709
		c0.822,1.11,0.955,2.233,1.051,3.418c0.104,1.267-0.609,1.688-1.752,1.167c-0.533-0.243-1.037-0.551-1.597-0.852
		c-0.092,0.099-0.215,0.199-0.296,0.326c-0.884,1.369-2.174,2.105-3.686,2.673c-1.826,0.688-2.877-0.565-4.205-1.286
		c-1.625-0.883-3.324-1.632-5.021-2.38c-0.237-0.105-0.84,0.048-0.896,0.213c-0.111,0.316-0.088,0.853,0.119,1.074
		c0.393,0.417,0.938,0.701,1.443,0.995c1.544,0.893,3.202,1.626,4.629,2.678c1.815,1.341,3.522,2.897,2.451,5.641
		c0.314,0.11,0.561,0.239,0.814,0.279c1.488,0.228,1.764,0.782,0.996,2.134c-0.932,1.639-2.357,2.574-4.221,2.76
		c-1.462,0.146-16.113,2.447-17.558,2.677c-1.138,0.181-2.334,0.501-3.298,1.095c-0.939,0.578-0.848,1.387,0.169,1.794
		c1.057,0.427,2.295,0.767,3.394,0.636c1.555-0.188,16.189-3.343,17.741-3.646c1.491-0.294,3.047-0.494,4.556-0.404
		c1.666,0.1,2.453,1.176,2.651,2.99c0.123,1.118-0.403,1.74-2.003,2.386c-0.104,0.042-0.178,0.153-0.327,0.288
		c0.16,0.213,0.279,0.479,0.483,0.622c0.738,0.521,1.488,1.001,0.367,1.875c-0.051,0.04-0.105,0.151-0.086,0.19
		c0.672,1.27-0.254,2.238-0.635,3.298c-0.371,1.043-0.97,2.024-1.191,3.092c-0.104,0.489,0.449,1.119,0.705,1.687
		c0.397-0.28,0.887-0.49,1.182-0.854c0.495-0.612,0.809-1.372,1.309-1.979c0.588-0.715,1.514-0.776,2.141-0.272
		c0.343,0.272,0.23,1.147,0.259,1.756c0.01,0.212-0.146,0.458-0.282,0.646c-1.332,1.815-2.688,3.612-4.008,5.438
		c-0.381,0.528-0.713,1.108-0.955,1.712c-0.086,0.213,0.085,0.68,0.284,0.811c0.169,0.111,0.604-0.016,0.817-0.176
		c0.439-0.332,0.879-0.709,1.195-1.151c1.083-1.522,2.027-3.15,3.192-4.604c0.853-1.062,1.862-2.076,2.993-2.818
		c1.287-0.842,1.707-0.574,1.996,0.947c0.604,3.17,0.306,6.217-1.119,9.176c-0.592,1.229-0.979,2.621-1.152,3.978
		c-0.26,2.037,1.213,3.336,3.129,2.992c2.801-0.503,4.812-4.179,3.645-6.747c-0.478-1.047-1.051-2.059-1.686-3.02
		c-2.18-3.299-0.918-6.301,1.508-8.363c2.303-1.959,5.026-3.297,8.069-3.557c1.304-0.111,2.853,0.139,3.959,0.784
		c1.765,1.033,3.278,2.511,4.856,3.849c2.187,1.855,4.041,3.949,4.566,6.914c0.049,0.271,0.146,0.539,0.27,0.783
		c0.427,0.869,1.47,1.422,2.006,1.08c0.582-0.367,0.549-1.418-0.073-2.269c-0.022-0.03-0.054-0.06-0.073-0.095
		c-0.586-0.965-1.199-1.914-1.75-2.898c-0.6-1.075-1.088-2.216-1.72-3.271c-1-1.67-0.642-3.22,0.983-4.22
		c0.631-0.389,1.127-0.993,1.746-1.405c0.354-0.235,0.89-0.479,1.25-0.379c0.67,0.182,1.135,0.199,1.715-0.299
		c0.381-0.324,1.101-0.388,1.588-0.4C231.75,55.375,233.223,53.824,232.611,51.975z"/>
	<path fill="#44CC23" d="M185.643,67.916c-1.734-0.012-3.522,1.621-3.512,3.205c0.01,1.372,1.368,2.436,3.122,2.445
		c1.874,0.011,3.417-1.488,3.375-3.28C188.602,69.115,187.102,67.925,185.643,67.916z"/>
	<path fill="#44CC23" d="M186.311,24.416c-1.735-0.011-3.523,1.621-3.513,3.205c0.011,1.372,1.368,2.435,3.122,2.445
		c1.874,0.011,4.624,0.56,4.582-1.232C190.475,27.663,187.77,24.425,186.311,24.416z"/>
	<path fill="#44CC23" d="M173.957,52.166c-1.736-0.012-3.523,1.621-3.512,3.205c0.01,1.372,1.367,2.436,3.121,2.445
		c1.875,0.011,12.477-3.358,12.435-5.15C185.975,51.495,175.416,52.175,173.957,52.166z"/>
	<path fill="#44CC23" d="M175.643,36.152c-1.734-0.011-3.522,1.621-3.512,3.205c0.01,1.372,1.368,2.435,3.122,2.445
		c1.874,0.011,6.418-1.032,6.376-2.825C181.602,37.807,177.102,36.161,175.643,36.152z"/>
	<path fill="#44CC23" d="M171.999,17.729c-1.615-0.638-3.872,0.237-4.435,1.718c-0.485,1.283,0.396,2.765,2.026,3.409
		c1.743,0.688,10.466,3.246,11.074,1.56C181.064,23.314,173.355,18.265,171.999,17.729z"/>
	<path fill="#44CC23" d="M165.809,68.932c1.459,0.01,2.957,1.199,2.984,2.37c0.042,1.792-1.501,3.291-3.375,3.28
		c-1.754-0.012-3.111-1.073-3.122-2.445C162.283,70.553,164.07,68.921,165.809,68.932z"/>
</g>
<path fill="#343334" d="M41.867,15.819C34.438-5.195,19.265,3.355,19.264,5.144c-0.003,4.117,8.713,10.32,8.357,14.59
	C27.266,24.004,41.867,15.819,41.867,15.819z"/>
<path fill="#343334" d="M67.141,20.093c-5.571-7.389-17.984-0.494-17.984-0.494L61.45,36.767
	C61.45,36.767,73.546,28.586,67.141,20.093z"/>
<path fill="#7689A5" d="M66.242,20.874c-5.021-6.439-14.977-0.505-14.977-0.505l9.955,15.217
	C61.22,35.586,71.469,27.576,66.242,20.874z"/>
<path fill="#889BB5" d="M40.231,15.195C32.612-2.457,21.056,4.543,20.899,6.065c-0.156,1.521,7.452,8.826,7.148,12.478
	C27.743,22.195,40.231,15.195,40.231,15.195z"/>
<path fill="#343334" d="M41.867,64.179c-7.429,21.015-22.603,12.464-22.604,10.676c-0.003-4.117,8.713-10.32,8.357-14.591
	C27.266,55.993,41.867,64.179,41.867,64.179z"/>
<path fill="#343334" d="M67.141,59.905c-5.571,7.39-17.984,0.494-17.984,0.494L61.45,43.231
	C61.45,43.231,73.546,51.412,67.141,59.905z"/>
<path fill="#7689A5" d="M66.242,59.124c-5.021,6.439-14.977,0.505-14.977,0.505l9.955-15.217
	C61.22,44.412,71.469,52.422,66.242,59.124z"/>
<path fill="#889BB5" d="M40.231,64.803c-7.619,17.651-19.176,10.651-19.332,9.13s7.452-8.825,7.148-12.478
	C27.743,57.803,40.231,64.803,40.231,64.803z"/>
<path fill="#343334" d="M32.609,68.147c-15.546,0-28.148-12.603-28.148-28.148s12.602-28.148,28.148-28.148
	c18.072,0,34.545,14.661,34.545,28.148C67.155,54.073,50.682,68.147,32.609,68.147z"/>
<path fill="#96A6C2" d="M32.765,66.781c-14.792,0-26.782-11.991-26.782-26.782s11.991-26.782,26.782-26.782
	c17.195,0,32.869,13.949,32.869,26.782C65.633,53.39,49.959,66.781,32.765,66.781z"/>
<ellipse transform="matrix(-0.3907 0.9205 -0.9205 -0.3907 93.4571 -7.3391)" fill="#343334" cx="49.157" cy="27.261" rx="5.678" ry="9.39"/>
<ellipse transform="matrix(-0.3908 0.9205 -0.9205 -0.3908 88.2941 -9.5669)" fill="#FDFAE7" cx="47.313" cy="24.433" rx="2.514" ry="4.158"/>
<ellipse transform="matrix(-0.3907 -0.9205 0.9205 -0.3907 19.815 118.5909)" fill="#343334" cx="49.157" cy="52.737" rx="5.679" ry="9.391"/>
<ellipse transform="matrix(-0.3909 -0.9204 0.9204 -0.3909 14.6622 120.8328)" fill="#FDFAE7" cx="47.313" cy="55.565" rx="2.514" ry="4.158"/>
<path fill="#A6C0DF" d="M46.704,39.999c0-5.021-4.619-11.164-7.701-8.217c-2.587,2.474-0.609,3.957-0.609,8.217
	s-1.978,5.743,0.609,8.217C42.085,51.163,46.704,45.021,46.704,39.999z"/>
<path fill="#707F99" d="M22.586,59.604c7.458,0.335,13.483-3.669,13.222-6.214c-0.39-3.81-7.121-1.108-17.05-1.669
	c-1.212-3.627-1.879-7.582-1.879-11.722s0.667-8.094,1.879-11.721c9.929-0.56,16.66,2.14,17.05-1.67
	c0.261-2.545-5.765-6.548-13.222-6.213c1.764-2.67,3.873-5.004,6.257-6.889C15.912,15.403,5.982,26.54,5.982,39.999
	s9.929,24.597,22.861,26.493C26.459,64.607,24.351,62.273,22.586,59.604z"/>
</svg>
