<?xml version="1.0" encoding="utf-8"?>
<!-- Generator: Adobe Illustrator 16.0.0, SVG Export Plug-In . SVG Version: 6.00 Build 0)  -->
<!DOCTYPE svg PUBLIC "-//W3C//DTD SVG 1.1//EN" "http://www.w3.org/Graphics/SVG/1.1/DTD/svg11.dtd">
<svg version="1.1" id="Layer_1" xmlns="http://www.w3.org/2000/svg" xmlns:xlink="http://www.w3.org/1999/xlink" x="0px" y="0px"
	 width="800px" height="80px" viewBox="0 0 800 80" enable-background="new 0 0 800 80" xml:space="preserve">
<ellipse fill="#DFB599" stroke="#000000" stroke-width="0.81" stroke-miterlimit="10" cx="57.084" cy="18.648" rx="10.598" ry="9.434"/>
<ellipse fill="#DFB599" stroke="#000000" stroke-width="0.81" stroke-miterlimit="10" cx="57.084" cy="60.872" rx="10.598" ry="9.434"/>
<ellipse transform="matrix(-0.9073 0.4204 -0.4204 -0.9073 253.1953 -14.5825)" fill="#DFB599" stroke="#000000" stroke-width="0.81" stroke-miterlimit="10" cx="128.205" cy="20.615" rx="10.597" ry="9.434"/>
<ellipse transform="matrix(-0.9073 0.4204 -0.4204 -0.9073 303.1539 51.0099)" fill="#DFB599" stroke="#000000" stroke-width="0.81" stroke-miterlimit="10" cx="145.955" cy="58.916" rx="10.597" ry="9.432"/>
<ellipse transform="matrix(-0.9187 -0.395 0.395 -0.9187 578.0029 159.6921)" fill="#DFB599" stroke="#000000" stroke-width="0.81" stroke-miterlimit="10" cx="305.44" cy="20.348" rx="10.597" ry="9.435"/>
<ellipse transform="matrix(-0.9187 -0.395 0.395 -0.9187 530.6512 227.5594)" fill="#DFB599" stroke="#000000" stroke-width="0.81" stroke-miterlimit="10" cx="288.752" cy="59.152" rx="10.599" ry="9.435"/>
<ellipse fill="#DFB599" stroke="#000000" stroke-width="0.81" stroke-miterlimit="10" cx="217.084" cy="18.648" rx="10.598" ry="9.434"/>
<ellipse fill="#DFB599" stroke="#000000" stroke-width="0.81" stroke-miterlimit="10" cx="217.084" cy="60.872" rx="10.598" ry="9.434"/>
<ellipse fill="#DFB599" stroke="#000000" stroke-width="0.81" stroke-miterlimit="10" cx="377.084" cy="18.648" rx="10.598" ry="9.434"/>
<ellipse fill="#DFB599" stroke="#000000" stroke-width="0.81" stroke-miterlimit="10" cx="377.084" cy="60.872" rx="10.598" ry="9.434"/>
<ellipse fill="#FF0000" stroke="#000000" stroke-width="0.81" stroke-miterlimit="10" cx="537.084" cy="18.648" rx="10.597" ry="9.434"/>
<ellipse fill="#FF0000" stroke="#000000" stroke-width="0.81" stroke-miterlimit="10" cx="537.084" cy="60.872" rx="10.597" ry="9.434"/>
<ellipse fill="#DFB599" stroke="#000000" stroke-width="0.81" stroke-miterlimit="10" cx="463.084" cy="31.648" rx="10.597" ry="9.434"/>
<ellipse fill="#DFB599" stroke="#000000" stroke-width="0.81" stroke-miterlimit="10" cx="457.084" cy="52.872" rx="10.597" ry="9.434"/>
<ellipse fill="#DFB599" stroke="#000000" stroke-width="0.81" stroke-miterlimit="10" cx="624.667" cy="32.648" rx="10.597" ry="9.434"/>
<ellipse fill="#DFB599" stroke="#000000" stroke-width="0.81" stroke-miterlimit="10" cx="608.431" cy="64.517" rx="10.597" ry="9.434"/>
<ellipse fill="#DFB599" stroke="#000000" stroke-width="0.81" stroke-miterlimit="10" cx="704.667" cy="32.648" rx="10.597" ry="9.434"/>
<ellipse fill="#DFB599" stroke="#000000" stroke-width="0.81" stroke-miterlimit="10" cx="684.916" cy="59.873" rx="10.597" ry="9.434"/>
<ellipse fill="#DFB599" stroke="#000000" stroke-width="0.81" stroke-miterlimit="10" cx="784.667" cy="32.648" rx="10.597" ry="9.434"/>
<ellipse fill="#DFB599" stroke="#000000" stroke-width="0.81" stroke-miterlimit="10" cx="762.203" cy="56.169" rx="10.597" ry="9.435"/>
<g>
	<path fill="#92A47B" stroke="#231F20" stroke-width="0.9666" stroke-miterlimit="10" d="M54.769,51.327l3.25-11.278l-3.25-11.278
		L48.221,9.354c-3.894-1.603-8.154-2.492-12.625-2.492c-18.329,0-33.189,14.859-33.189,33.188c0,18.329,14.86,33.188,33.189,33.188
		c4.471,0,8.731-0.891,12.625-2.491L54.769,51.327z"/>
	<path fill="#654D4A" d="M42.021,22.328c4.058,0,7.358-3.231,7.479-7.261l-1.672-4.96c-0.1-0.124-0.21-0.24-0.318-0.357
		c-2.44-0.984-5.025-1.688-7.711-2.069c-3.052,0.947-5.27,3.792-5.27,7.157C34.528,18.975,37.882,22.328,42.021,22.328z"/>
	<path fill="#654D4A" d="M26.749,69.645c0.56,0.25,1.177,0.393,1.829,0.393c2.474,0,4.478-2.006,4.478-4.479
		c0-2.475-2.004-4.479-4.478-4.479c-2.413,0-4.376,1.909-4.471,4.3c-1.282-1.027-2.907-1.646-4.68-1.646
		c-1.631,0-3.136,0.527-4.367,1.412c3.46,2.73,7.476,4.789,11.852,5.973C26.906,70.611,26.851,70.119,26.749,69.645z"/>
	<path fill="#654D4A" d="M18.68,20.463c4.515,0,8.175-3.659,8.175-8.172c0-1.222-0.275-2.376-0.757-3.417
		c-5.297,1.668-10.016,4.633-13.795,8.518C13.799,19.262,16.097,20.463,18.68,20.463z"/>
	<circle fill="#788E70" stroke="#231F20" stroke-width="0.9666" stroke-miterlimit="10" cx="35.596" cy="40.049" r="27.711"/>
	<circle fill="#654D4A" cx="42.502" cy="57.45" r="4.995"/>
	<path fill="#654D4A" d="M55.178,41.193c-4.138,0-7.492,3.354-7.492,7.492c0,4.138,3.354,7.489,7.492,7.489
		c0.842,0,1.648-0.146,2.403-0.399c2.122-2.938,3.68-6.305,4.523-9.946C60.981,43.109,58.305,41.193,55.178,41.193z"/>
	<path fill="#654D4A" d="M49.52,27.001c0,3.123,2.534,5.656,5.658,5.656c2.347,0,4.36-1.431,5.217-3.466
		c-1.312-2.918-3.111-5.567-5.298-7.844C52.01,21.392,49.52,23.903,49.52,27.001z"/>
	<path fill="#654D4A" d="M23.553,22.006c0-2.049-1.453-3.758-3.383-4.155c-1.879,1.319-3.583,2.867-5.079,4.601
		c0.223,2.133,2.026,3.795,4.218,3.795C21.653,26.247,23.553,24.349,23.553,22.006z"/>
	<path fill="#654D4A" d="M30.696,17.124c0-1.325-0.455-2.538-1.214-3.505c-3.688,0.9-7.089,2.536-10.033,4.749
		c0.568,2.544,2.837,4.448,5.554,4.448C28.146,22.815,30.696,20.267,30.696,17.124z"/>
	<ellipse fill="#654D4A" cx="38.307" cy="61.863" rx="2.71" ry="2.835"/>
	<ellipse fill="#654D4A" cx="50.881" cy="21.844" rx="2.711" ry="2.835"/>
	<path fill="#92A47B" stroke="#231F20" stroke-width="0.9666" stroke-miterlimit="10" d="M134.769,51.327l3.25-11.278l-3.25-11.278
		l-6.548-19.418c-3.894-1.603-8.154-2.492-12.625-2.492c-18.329,0-33.189,14.859-33.189,33.188c0,18.329,14.86,33.188,33.189,33.188
		c4.471,0,8.731-0.889,12.625-2.49L134.769,51.327z"/>
	<path fill="#654D4A" d="M122.021,22.328c4.058,0,7.358-3.231,7.479-7.261l-1.672-4.96c-0.1-0.124-0.21-0.24-0.318-0.357
		c-2.44-0.984-5.025-1.688-7.711-2.069c-3.052,0.947-5.27,3.792-5.27,7.157C114.528,18.975,117.882,22.328,122.021,22.328z"/>
	<path fill="#654D4A" d="M106.749,69.645c0.56,0.25,1.177,0.393,1.829,0.393c2.474,0,4.478-2.006,4.478-4.479
		c0-2.475-2.004-4.479-4.478-4.479c-2.413,0-4.376,1.909-4.471,4.3c-1.282-1.027-2.907-1.646-4.68-1.646
		c-1.631,0-3.136,0.527-4.367,1.412c3.46,2.73,7.476,4.789,11.852,5.973C106.906,70.611,106.851,70.119,106.749,69.645z"/>
	<path fill="#654D4A" d="M98.68,20.463c4.515,0,8.175-3.659,8.175-8.172c0-1.222-0.275-2.376-0.757-3.417
		c-5.297,1.668-10.016,4.633-13.795,8.518C93.799,19.262,96.097,20.463,98.68,20.463z"/>
	<circle fill="#788E70" stroke="#231F20" stroke-width="0.9666" stroke-miterlimit="10" cx="115.596" cy="40.049" r="27.711"/>
	<circle fill="#654D4A" cx="122.502" cy="57.45" r="4.995"/>
	<path fill="#654D4A" d="M135.178,41.193c-4.138,0-7.492,3.354-7.492,7.492c0,4.138,3.354,7.489,7.492,7.489
		c0.842,0,1.648-0.146,2.403-0.399c2.122-2.938,3.68-6.305,4.523-9.946C140.981,43.109,138.305,41.193,135.178,41.193z"/>
	<path fill="#654D4A" d="M129.52,27.001c0,3.123,2.534,5.656,5.658,5.656c2.347,0,4.36-1.431,5.217-3.466
		c-1.312-2.918-3.111-5.567-5.298-7.844C132.01,21.392,129.52,23.903,129.52,27.001z"/>
	<path fill="#654D4A" d="M103.553,22.006c0-2.049-1.453-3.758-3.383-4.155c-1.879,1.319-3.583,2.867-5.079,4.601
		c0.223,2.133,2.026,3.795,4.218,3.795C101.653,26.247,103.553,24.349,103.553,22.006z"/>
	<path fill="#654D4A" d="M110.696,17.124c0-1.325-0.455-2.538-1.214-3.505c-3.688,0.9-7.089,2.536-10.033,4.749
		c0.568,2.544,2.837,4.448,5.554,4.448C108.146,22.815,110.696,20.267,110.696,17.124z"/>
	<ellipse fill="#654D4A" cx="118.307" cy="61.863" rx="2.71" ry="2.835"/>
	<ellipse fill="#654D4A" cx="130.881" cy="21.844" rx="2.711" ry="2.835"/>
	<path fill="#92A47B" stroke="#231F20" stroke-width="0.9666" stroke-miterlimit="10" d="M214.769,51.327l3.25-11.278l-3.25-11.278
		l-6.548-19.418c-3.894-1.603-8.154-2.492-12.625-2.492c-18.329,0-33.189,14.859-33.189,33.188c0,18.329,14.86,33.188,33.189,33.188
		c4.471,0,8.731-0.889,12.625-2.49L214.769,51.327z"/>
	<path fill="#654D4A" d="M202.021,22.328c4.058,0,7.358-3.231,7.479-7.261l-1.672-4.96c-0.1-0.124-0.21-0.24-0.318-0.357
		c-2.44-0.984-5.025-1.688-7.711-2.069c-3.052,0.947-5.27,3.792-5.27,7.157C194.528,18.975,197.882,22.328,202.021,22.328z"/>
	<path fill="#654D4A" d="M186.749,69.645c0.56,0.25,1.177,0.393,1.829,0.393c2.474,0,4.478-2.006,4.478-4.479
		c0-2.475-2.004-4.479-4.478-4.479c-2.413,0-4.376,1.909-4.471,4.3c-1.282-1.027-2.907-1.646-4.68-1.646
		c-1.631,0-3.136,0.527-4.367,1.412c3.46,2.73,7.476,4.789,11.852,5.973C186.906,70.611,186.851,70.119,186.749,69.645z"/>
	<path fill="#654D4A" d="M178.68,20.463c4.515,0,8.175-3.659,8.175-8.172c0-1.222-0.275-2.376-0.757-3.417
		c-5.297,1.668-10.016,4.633-13.795,8.518C173.799,19.262,176.097,20.463,178.68,20.463z"/>
	<circle fill="#788E70" stroke="#231F20" stroke-width="0.9666" stroke-miterlimit="10" cx="195.596" cy="40.049" r="27.711"/>
	<circle fill="#654D4A" cx="202.502" cy="57.45" r="4.995"/>
	<path fill="#654D4A" d="M215.178,41.193c-4.138,0-7.492,3.354-7.492,7.492c0,4.138,3.354,7.489,7.492,7.489
		c0.842,0,1.648-0.146,2.403-0.399c2.122-2.938,3.68-6.305,4.523-9.946C220.981,43.109,218.305,41.193,215.178,41.193z"/>
	<path fill="#654D4A" d="M209.52,27.001c0,3.123,2.534,5.656,5.658,5.656c2.347,0,4.36-1.431,5.217-3.466
		c-1.312-2.918-3.111-5.567-5.298-7.844C212.01,21.392,209.52,23.903,209.52,27.001z"/>
	<path fill="#654D4A" d="M183.553,22.006c0-2.049-1.453-3.758-3.383-4.155c-1.879,1.319-3.583,2.867-5.079,4.601
		c0.223,2.133,2.026,3.795,4.218,3.795C181.653,26.247,183.553,24.349,183.553,22.006z"/>
	<path fill="#654D4A" d="M190.696,17.124c0-1.325-0.455-2.538-1.214-3.505c-3.688,0.9-7.089,2.536-10.033,4.749
		c0.568,2.544,2.837,4.448,5.554,4.448C188.146,22.815,190.696,20.267,190.696,17.124z"/>
	<ellipse fill="#654D4A" cx="198.307" cy="61.863" rx="2.71" ry="2.835"/>
	<ellipse fill="#654D4A" cx="210.881" cy="21.844" rx="2.711" ry="2.835"/>
	<path fill="#92A47B" stroke="#231F20" stroke-width="0.9666" stroke-miterlimit="10" d="M294.769,51.327l3.25-11.278l-3.25-11.278
		l-6.548-19.418c-3.894-1.603-8.154-2.492-12.625-2.492c-18.329,0-33.189,14.859-33.189,33.188c0,18.329,14.86,33.188,33.189,33.188
		c4.471,0,8.731-0.889,12.625-2.49L294.769,51.327z"/>
	<path fill="#654D4A" d="M282.021,22.328c4.058,0,7.358-3.231,7.479-7.261l-1.672-4.96c-0.1-0.124-0.21-0.24-0.318-0.357
		c-2.44-0.984-5.025-1.688-7.711-2.069c-3.052,0.947-5.27,3.792-5.27,7.157C274.528,18.975,277.882,22.328,282.021,22.328z"/>
	<path fill="#654D4A" d="M266.749,69.645c0.56,0.25,1.177,0.393,1.829,0.393c2.474,0,4.478-2.006,4.478-4.479
		c0-2.475-2.004-4.479-4.478-4.479c-2.413,0-4.376,1.909-4.471,4.3c-1.282-1.027-2.907-1.646-4.68-1.646
		c-1.631,0-3.136,0.527-4.367,1.412c3.46,2.73,7.476,4.789,11.852,5.973C266.906,70.611,266.851,70.119,266.749,69.645z"/>
	<path fill="#654D4A" d="M258.68,20.463c4.515,0,8.175-3.659,8.175-8.172c0-1.222-0.275-2.376-0.757-3.417
		c-5.297,1.668-10.016,4.633-13.795,8.518C253.799,19.262,256.097,20.463,258.68,20.463z"/>
	<circle fill="#788E70" stroke="#231F20" stroke-width="0.9666" stroke-miterlimit="10" cx="275.596" cy="40.049" r="27.711"/>
	<circle fill="#654D4A" cx="282.502" cy="57.45" r="4.995"/>
	<path fill="#654D4A" d="M295.178,41.193c-4.138,0-7.492,3.354-7.492,7.492c0,4.138,3.354,7.489,7.492,7.489
		c0.842,0,1.648-0.146,2.403-0.399c2.122-2.938,3.68-6.305,4.523-9.946C300.981,43.109,298.305,41.193,295.178,41.193z"/>
	<path fill="#654D4A" d="M289.52,27.001c0,3.123,2.534,5.656,5.658,5.656c2.347,0,4.36-1.431,5.217-3.466
		c-1.312-2.918-3.111-5.567-5.298-7.844C292.01,21.392,289.52,23.903,289.52,27.001z"/>
	<path fill="#654D4A" d="M263.553,22.006c0-2.049-1.453-3.758-3.383-4.155c-1.879,1.319-3.583,2.867-5.079,4.601
		c0.223,2.133,2.026,3.795,4.218,3.795C261.653,26.247,263.553,24.349,263.553,22.006z"/>
	<path fill="#654D4A" d="M270.696,17.124c0-1.325-0.455-2.538-1.214-3.505c-3.688,0.9-7.089,2.536-10.033,4.749
		c0.568,2.544,2.837,4.448,5.554,4.448C268.146,22.815,270.696,20.267,270.696,17.124z"/>
	<ellipse fill="#654D4A" cx="278.307" cy="61.863" rx="2.71" ry="2.835"/>
	<ellipse fill="#654D4A" cx="290.881" cy="21.844" rx="2.711" ry="2.835"/>
	<path fill="#92A47B" stroke="#231F20" stroke-width="0.9666" stroke-miterlimit="10" d="M374.769,51.327l3.25-11.278l-3.25-11.278
		l-6.548-19.418c-3.894-1.603-8.153-2.492-12.625-2.492c-18.329,0-33.188,14.859-33.188,33.188
		c0,18.329,14.859,33.188,33.188,33.188c4.472,0,8.731-0.889,12.625-2.49L374.769,51.327z"/>
	<path fill="#654D4A" d="M362.021,22.328c4.058,0,7.357-3.231,7.479-7.261l-1.672-4.96c-0.101-0.124-0.21-0.24-0.318-0.357
		c-2.439-0.984-5.024-1.688-7.711-2.069c-3.052,0.947-5.27,3.792-5.27,7.157C354.528,18.975,357.882,22.328,362.021,22.328z"/>
	<path fill="#654D4A" d="M346.749,69.645c0.56,0.25,1.177,0.393,1.829,0.393c2.474,0,4.478-2.006,4.478-4.479
		c0-2.475-2.004-4.479-4.478-4.479c-2.413,0-4.376,1.909-4.471,4.3c-1.282-1.027-2.907-1.646-4.681-1.646
		c-1.631,0-3.136,0.527-4.367,1.412c3.46,2.73,7.477,4.789,11.853,5.973C346.906,70.611,346.851,70.119,346.749,69.645z"/>
	<path fill="#654D4A" d="M338.68,20.463c4.516,0,8.176-3.659,8.176-8.172c0-1.222-0.275-2.376-0.758-3.417
		c-5.297,1.668-10.016,4.633-13.795,8.518C333.799,19.262,336.097,20.463,338.68,20.463z"/>
	<circle fill="#788E70" stroke="#231F20" stroke-width="0.9666" stroke-miterlimit="10" cx="355.596" cy="40.049" r="27.711"/>
	<circle fill="#654D4A" cx="362.502" cy="57.45" r="4.995"/>
	<path fill="#654D4A" d="M375.178,41.193c-4.138,0-7.492,3.354-7.492,7.492c0,4.138,3.354,7.489,7.492,7.489
		c0.842,0,1.648-0.146,2.403-0.399c2.122-2.938,3.68-6.305,4.523-9.946C380.981,43.109,378.305,41.193,375.178,41.193z"/>
	<path fill="#654D4A" d="M369.52,27.001c0,3.123,2.534,5.656,5.658,5.656c2.348,0,4.36-1.431,5.217-3.466
		c-1.312-2.918-3.11-5.567-5.298-7.844C372.01,21.392,369.52,23.903,369.52,27.001z"/>
	<path fill="#654D4A" d="M343.553,22.006c0-2.049-1.453-3.758-3.383-4.155c-1.879,1.319-3.583,2.867-5.079,4.601
		c0.224,2.133,2.026,3.795,4.218,3.795C341.653,26.247,343.553,24.349,343.553,22.006z"/>
	<path fill="#654D4A" d="M350.696,17.124c0-1.325-0.455-2.538-1.214-3.505c-3.688,0.9-7.09,2.536-10.033,4.749
		c0.567,2.544,2.837,4.448,5.554,4.448C348.146,22.815,350.696,20.267,350.696,17.124z"/>
	<ellipse fill="#654D4A" cx="358.307" cy="61.863" rx="2.71" ry="2.835"/>
	<ellipse fill="#654D4A" cx="370.881" cy="21.844" rx="2.711" ry="2.835"/>
	<path fill="#92A47B" stroke="#231F20" stroke-width="0.9666" stroke-miterlimit="10" d="M454.769,51.327l3.251-11.278
		l-3.251-11.278l-6.548-19.418c-3.894-1.603-8.153-2.492-12.625-2.492c-18.328,0-33.188,14.859-33.188,33.188
		c0,18.329,14.859,33.188,33.188,33.188c4.472,0,8.731-0.889,12.625-2.49L454.769,51.327z"/>
	<path fill="#654D4A" d="M442.021,22.328c4.059,0,7.356-3.231,7.479-7.261l-1.672-4.96c-0.101-0.124-0.211-0.24-0.318-0.357
		c-2.439-0.984-5.024-1.688-7.711-2.069c-3.053,0.947-5.271,3.792-5.271,7.157C434.528,18.975,437.883,22.328,442.021,22.328z"/>
	<path fill="#654D4A" d="M426.749,69.645c0.56,0.25,1.177,0.393,1.829,0.393c2.474,0,4.478-2.006,4.478-4.479
		c0-2.475-2.004-4.479-4.478-4.479c-2.413,0-4.376,1.909-4.471,4.3c-1.282-1.027-2.907-1.646-4.681-1.646
		c-1.631,0-3.136,0.527-4.367,1.412c3.462,2.73,7.478,4.789,11.854,5.973C426.906,70.611,426.852,70.119,426.749,69.645z"/>
	<path fill="#654D4A" d="M418.68,20.463c4.516,0,8.176-3.659,8.176-8.172c0-1.222-0.275-2.376-0.758-3.417
		c-5.298,1.668-10.017,4.633-13.796,8.518C413.799,19.262,416.098,20.463,418.68,20.463z"/>
	<circle fill="#788E70" stroke="#231F20" stroke-width="0.9666" stroke-miterlimit="10" cx="435.596" cy="40.049" r="27.711"/>
	<circle fill="#654D4A" cx="442.502" cy="57.45" r="4.995"/>
	<path fill="#654D4A" d="M455.178,41.193c-4.137,0-7.49,3.354-7.49,7.492c0,4.138,3.354,7.489,7.49,7.489
		c0.842,0,1.648-0.146,2.404-0.399c2.121-2.938,3.68-6.305,4.521-9.946C460.98,43.109,458.305,41.193,455.178,41.193z"/>
	<path fill="#654D4A" d="M449.52,27.001c0,3.123,2.534,5.656,5.658,5.656c2.349,0,4.36-1.431,5.217-3.466
		c-1.312-2.918-3.11-5.567-5.298-7.844C452.01,21.392,449.52,23.903,449.52,27.001z"/>
	<path fill="#654D4A" d="M423.553,22.006c0-2.049-1.453-3.758-3.383-4.155c-1.879,1.319-3.584,2.867-5.08,4.601
		c0.224,2.133,2.027,3.795,4.219,3.795C421.653,26.247,423.553,24.349,423.553,22.006z"/>
	<path fill="#654D4A" d="M430.696,17.124c0-1.325-0.454-2.538-1.214-3.505c-3.688,0.9-7.09,2.536-10.033,4.749
		c0.567,2.544,2.838,4.448,5.554,4.448C428.146,22.815,430.696,20.267,430.696,17.124z"/>
	<ellipse fill="#654D4A" cx="438.307" cy="61.863" rx="2.711" ry="2.835"/>
	<ellipse fill="#654D4A" cx="450.881" cy="21.844" rx="2.711" ry="2.835"/>
	<path fill="#92A47B" stroke="#231F20" stroke-width="0.9666" stroke-miterlimit="10" d="M534.769,51.327l3.251-11.278
		l-3.251-11.278l-6.548-19.418c-3.894-1.603-8.153-2.492-12.625-2.492c-18.328,0-33.188,14.859-33.188,33.188
		c0,18.329,14.859,33.188,33.188,33.188c4.472,0,8.731-0.889,12.625-2.49L534.769,51.327z"/>
	<path fill="#654D4A" d="M522.021,22.328c4.059,0,7.356-3.231,7.479-7.261l-1.672-4.96c-0.1-0.124-0.211-0.24-0.318-0.357
		c-2.439-0.984-5.024-1.688-7.711-2.069c-3.053,0.947-5.271,3.792-5.271,7.157C514.528,18.975,517.883,22.328,522.021,22.328z"/>
	<path fill="#654D4A" d="M506.749,69.645c0.56,0.25,1.177,0.393,1.829,0.393c2.474,0,4.478-2.006,4.478-4.479
		c0-2.475-2.004-4.479-4.478-4.479c-2.413,0-4.376,1.909-4.471,4.3c-1.282-1.027-2.907-1.646-4.681-1.646
		c-1.631,0-3.136,0.527-4.367,1.412c3.462,2.73,7.478,4.789,11.854,5.973C506.906,70.611,506.852,70.119,506.749,69.645z"/>
	<path fill="#654D4A" d="M498.68,20.463c4.516,0,8.176-3.659,8.176-8.172c0-1.222-0.275-2.376-0.758-3.417
		c-5.298,1.668-10.017,4.633-13.796,8.518C493.799,19.262,496.098,20.463,498.68,20.463z"/>
	<circle fill="#788E70" stroke="#231F20" stroke-width="0.9666" stroke-miterlimit="10" cx="515.596" cy="40.049" r="27.711"/>
	<circle fill="#654D4A" cx="522.502" cy="57.45" r="4.995"/>
	<path fill="#654D4A" d="M535.178,41.193c-4.137,0-7.491,3.354-7.491,7.492c0,4.138,3.354,7.489,7.491,7.489
		c0.842,0,1.648-0.146,2.404-0.399c2.121-2.938,3.68-6.305,4.521-9.946C540.98,43.109,538.305,41.193,535.178,41.193z"/>
	<path fill="#654D4A" d="M529.52,27.001c0,3.123,2.534,5.656,5.658,5.656c2.349,0,4.36-1.431,5.217-3.466
		c-1.312-2.918-3.11-5.567-5.298-7.844C532.01,21.392,529.52,23.903,529.52,27.001z"/>
	<path fill="#654D4A" d="M503.553,22.006c0-2.049-1.453-3.758-3.383-4.155c-1.879,1.319-3.584,2.867-5.08,4.601
		c0.224,2.133,2.027,3.795,4.219,3.795C501.653,26.247,503.553,24.349,503.553,22.006z"/>
	<path fill="#654D4A" d="M510.696,17.124c0-1.325-0.454-2.538-1.214-3.505c-3.688,0.9-7.09,2.536-10.033,4.749
		c0.567,2.544,2.838,4.448,5.554,4.448C508.146,22.815,510.696,20.267,510.696,17.124z"/>
	<ellipse fill="#654D4A" cx="518.307" cy="61.863" rx="2.711" ry="2.835"/>
	<ellipse fill="#654D4A" cx="530.881" cy="21.844" rx="2.711" ry="2.835"/>
	<path fill="#92A47B" stroke="#231F20" stroke-width="0.9666" stroke-miterlimit="10" d="M614.769,51.327l3.251-11.278
		l-3.251-11.278l-6.548-19.418c-3.894-1.603-8.153-2.492-12.625-2.492c-18.328,0-33.188,14.859-33.188,33.188
		c0,18.329,14.859,33.188,33.188,33.188c4.472,0,8.731-0.889,12.625-2.49L614.769,51.327z"/>
	<path fill="#654D4A" d="M602.021,22.328c4.059,0,7.356-3.231,7.479-7.261l-1.672-4.96c-0.1-0.124-0.211-0.24-0.318-0.357
		c-2.439-0.984-5.024-1.688-7.711-2.069c-3.053,0.947-5.271,3.792-5.271,7.157C594.528,18.975,597.883,22.328,602.021,22.328z"/>
	<path fill="#654D4A" d="M586.749,69.645c0.56,0.25,1.177,0.393,1.829,0.393c2.474,0,4.478-2.006,4.478-4.479
		c0-2.475-2.004-4.479-4.478-4.479c-2.413,0-4.376,1.909-4.471,4.3c-1.282-1.027-2.907-1.646-4.681-1.646
		c-1.631,0-3.136,0.527-4.367,1.412c3.462,2.73,7.478,4.789,11.854,5.973C586.906,70.611,586.852,70.119,586.749,69.645z"/>
	<path fill="#654D4A" d="M578.68,20.463c4.516,0,8.176-3.659,8.176-8.172c0-1.222-0.275-2.376-0.758-3.417
		c-5.298,1.668-10.017,4.633-13.796,8.518C573.799,19.262,576.098,20.463,578.68,20.463z"/>
	<circle fill="#788E70" stroke="#231F20" stroke-width="0.9666" stroke-miterlimit="10" cx="595.596" cy="40.049" r="27.711"/>
	<circle fill="#654D4A" cx="602.502" cy="57.45" r="4.995"/>
	<path fill="#654D4A" d="M615.178,41.193c-4.137,0-7.491,3.354-7.491,7.492c0,4.138,3.354,7.489,7.491,7.489
		c0.842,0,1.648-0.146,2.404-0.399c2.121-2.938,3.68-6.305,4.521-9.946C620.98,43.109,618.305,41.193,615.178,41.193z"/>
	<path fill="#654D4A" d="M609.52,27.001c0,3.123,2.534,5.656,5.658,5.656c2.349,0,4.36-1.431,5.217-3.466
		c-1.312-2.918-3.11-5.567-5.298-7.844C612.01,21.392,609.52,23.903,609.52,27.001z"/>
	<path fill="#654D4A" d="M583.553,22.006c0-2.049-1.453-3.758-3.383-4.155c-1.879,1.319-3.584,2.867-5.08,4.601
		c0.223,2.133,2.027,3.795,4.219,3.795C581.653,26.247,583.553,24.349,583.553,22.006z"/>
	<path fill="#654D4A" d="M590.696,17.124c0-1.325-0.454-2.538-1.214-3.505c-3.688,0.9-7.09,2.536-10.033,4.749
		c0.567,2.544,2.838,4.448,5.554,4.448C588.146,22.815,590.696,20.267,590.696,17.124z"/>
	<ellipse fill="#654D4A" cx="598.307" cy="61.863" rx="2.711" ry="2.835"/>
	<ellipse fill="#654D4A" cx="610.881" cy="21.844" rx="2.711" ry="2.835"/>
	<path fill="#92A47B" stroke="#231F20" stroke-width="0.9666" stroke-miterlimit="10" d="M694.769,51.327l3.251-11.278
		l-3.251-11.278l-6.548-19.418c-3.894-1.603-8.153-2.492-12.625-2.492c-18.328,0-33.188,14.859-33.188,33.188
		c0,18.329,14.859,33.188,33.188,33.188c4.472,0,8.731-0.889,12.625-2.49L694.769,51.327z"/>
	<path fill="#654D4A" d="M682.021,22.328c4.059,0,7.356-3.231,7.479-7.261l-1.672-4.96c-0.1-0.124-0.211-0.24-0.318-0.357
		c-2.439-0.984-5.024-1.688-7.711-2.069c-3.053,0.947-5.271,3.792-5.271,7.157C674.528,18.975,677.883,22.328,682.021,22.328z"/>
	<path fill="#654D4A" d="M666.749,69.645c0.56,0.25,1.177,0.393,1.829,0.393c2.474,0,4.478-2.006,4.478-4.479
		c0-2.475-2.004-4.479-4.478-4.479c-2.413,0-4.376,1.909-4.471,4.3c-1.282-1.027-2.907-1.646-4.681-1.646
		c-1.631,0-3.136,0.527-4.367,1.412c3.462,2.73,7.478,4.789,11.854,5.973C666.906,70.611,666.852,70.119,666.749,69.645z"/>
	<path fill="#654D4A" d="M658.68,20.463c4.516,0,8.176-3.659,8.176-8.172c0-1.222-0.275-2.376-0.758-3.417
		c-5.298,1.668-10.017,4.633-13.796,8.518C653.799,19.262,656.098,20.463,658.68,20.463z"/>
	<circle fill="#788E70" stroke="#231F20" stroke-width="0.9666" stroke-miterlimit="10" cx="675.596" cy="40.049" r="27.711"/>
	<circle fill="#654D4A" cx="682.502" cy="57.45" r="4.995"/>
	<path fill="#654D4A" d="M695.178,41.193c-4.137,0-7.491,3.354-7.491,7.492c0,4.138,3.354,7.489,7.491,7.489
		c0.842,0,1.648-0.146,2.404-0.399c2.121-2.938,3.68-6.305,4.521-9.946C700.98,43.109,698.305,41.193,695.178,41.193z"/>
	<path fill="#654D4A" d="M689.52,27.001c0,3.123,2.534,5.656,5.658,5.656c2.349,0,4.36-1.431,5.217-3.466
		c-1.312-2.918-3.11-5.567-5.298-7.844C692.01,21.392,689.52,23.903,689.52,27.001z"/>
	<path fill="#654D4A" d="M663.553,22.006c0-2.049-1.453-3.758-3.383-4.155c-1.879,1.319-3.584,2.867-5.08,4.601
		c0.223,2.133,2.027,3.795,4.219,3.795C661.653,26.247,663.553,24.349,663.553,22.006z"/>
	<path fill="#654D4A" d="M670.696,17.124c0-1.325-0.454-2.538-1.214-3.505c-3.688,0.9-7.09,2.536-10.033,4.749
		c0.567,2.544,2.838,4.448,5.554,4.448C668.146,22.815,670.696,20.267,670.696,17.124z"/>
	<ellipse fill="#654D4A" cx="678.307" cy="61.863" rx="2.711" ry="2.835"/>
	<ellipse fill="#654D4A" cx="690.881" cy="21.844" rx="2.711" ry="2.835"/>
	<path fill="#92A47B" stroke="#231F20" stroke-width="0.9666" stroke-miterlimit="10" d="M774.769,51.327l3.251-11.278
		l-3.251-11.278l-6.548-19.418c-3.894-1.603-8.153-2.492-12.625-2.492c-18.328,0-33.188,14.859-33.188,33.188
		c0,18.329,14.859,33.188,33.188,33.188c4.472,0,8.731-0.889,12.625-2.49L774.769,51.327z"/>
	<path fill="#654D4A" d="M762.021,22.328c4.059,0,7.356-3.231,7.479-7.261l-1.672-4.96c-0.1-0.124-0.211-0.24-0.318-0.357
		c-2.439-0.984-5.024-1.688-7.711-2.069c-3.053,0.947-5.271,3.792-5.271,7.157C754.528,18.975,757.883,22.328,762.021,22.328z"/>
	<path fill="#654D4A" d="M746.749,69.645c0.56,0.25,1.177,0.393,1.829,0.393c2.474,0,4.478-2.006,4.478-4.479
		c0-2.475-2.004-4.479-4.478-4.479c-2.413,0-4.376,1.909-4.471,4.3c-1.282-1.027-2.907-1.646-4.681-1.646
		c-1.631,0-3.136,0.527-4.367,1.412c3.462,2.73,7.478,4.789,11.854,5.973C746.906,70.611,746.852,70.119,746.749,69.645z"/>
	<path fill="#654D4A" d="M738.68,20.463c4.516,0,8.176-3.659,8.176-8.172c0-1.222-0.275-2.376-0.758-3.417
		c-5.298,1.668-10.017,4.633-13.796,8.518C733.799,19.262,736.098,20.463,738.68,20.463z"/>
	<circle fill="#788E70" stroke="#231F20" stroke-width="0.9666" stroke-miterlimit="10" cx="755.596" cy="40.049" r="27.711"/>
	<circle fill="#654D4A" cx="762.502" cy="57.45" r="4.995"/>
	<path fill="#654D4A" d="M775.178,41.193c-4.137,0-7.491,3.354-7.491,7.492c0,4.138,3.354,7.489,7.491,7.489
		c0.842,0,1.648-0.146,2.404-0.399c2.121-2.938,3.68-6.305,4.521-9.946C780.98,43.109,778.305,41.193,775.178,41.193z"/>
	<path fill="#654D4A" d="M769.52,27.001c0,3.123,2.534,5.656,5.658,5.656c2.349,0,4.36-1.431,5.217-3.466
		c-1.312-2.918-3.11-5.567-5.298-7.844C772.01,21.392,769.52,23.903,769.52,27.001z"/>
	<path fill="#654D4A" d="M743.553,22.006c0-2.049-1.453-3.758-3.383-4.155c-1.879,1.319-3.584,2.867-5.08,4.601
		c0.223,2.133,2.027,3.795,4.219,3.795C741.653,26.247,743.553,24.349,743.553,22.006z"/>
	<path fill="#654D4A" d="M750.696,17.124c0-1.325-0.454-2.538-1.214-3.505c-3.688,0.9-7.09,2.536-10.033,4.749
		c0.567,2.544,2.838,4.448,5.554,4.448C748.146,22.815,750.696,20.267,750.696,17.124z"/>
	<ellipse fill="#654D4A" cx="758.307" cy="61.863" rx="2.711" ry="2.835"/>
	<ellipse fill="#654D4A" cx="770.881" cy="21.844" rx="2.711" ry="2.835"/>
	<polygon points="540.395,34.832 534.896,38.999 524.999,32.657 515.596,38.999 524.001,35.828 533.592,43.295 542.104,40.049 	"/>
</g>
</svg>
