<?xml version="1.0" encoding="utf-8"?>
<!-- Generator: Adobe Illustrator 16.0.0, SVG Export Plug-In . SVG Version: 6.00 Build 0)  -->
<!DOCTYPE svg PUBLIC "-//W3C//DTD SVG 1.1//EN" "http://www.w3.org/Graphics/SVG/1.1/DTD/svg11.dtd">
<svg version="1.1" id="Layer_1" xmlns="http://www.w3.org/2000/svg" xmlns:xlink="http://www.w3.org/1999/xlink" x="0px" y="0px"
	 width="800px" height="80px" viewBox="0 0 800 80" enable-background="new 0 0 800 80" xml:space="preserve">
<ellipse fill="#DFB599" stroke="#000000" stroke-miterlimit="10" cx="57.084" cy="18.648" rx="13.083" ry="11.647"/>
<ellipse fill="#DFB599" stroke="#000000" stroke-miterlimit="10" cx="57.084" cy="60.872" rx="13.083" ry="11.646"/>
<ellipse transform="matrix(0.9073 -0.4204 0.4204 0.9073 3.2172 55.8104)" fill="#DFB599" stroke="#000000" stroke-miterlimit="10" cx="128.205" cy="20.608" rx="13.083" ry="11.648"/>
<ellipse transform="matrix(0.9073 -0.4204 0.4204 0.9073 -11.2418 66.8211)" fill="#DFB599" stroke="#000000" stroke-miterlimit="10" cx="145.96" cy="58.912" rx="13.083" ry="11.645"/>
<ellipse transform="matrix(0.9187 0.395 -0.395 0.9187 32.8729 -118.9877)" fill="#DFB599" stroke="#000000" stroke-miterlimit="10" cx="305.436" cy="20.348" rx="13.083" ry="11.647"/>
<ellipse transform="matrix(0.9187 0.395 -0.395 0.9187 46.8527 -109.2468)" fill="#DFB599" stroke="#000000" stroke-miterlimit="10" cx="288.739" cy="59.161" rx="13.085" ry="11.647"/>
<ellipse fill="#DFB599" stroke="#000000" stroke-miterlimit="10" cx="217.084" cy="18.648" rx="13.083" ry="11.647"/>
<ellipse fill="#DFB599" stroke="#000000" stroke-miterlimit="10" cx="217.084" cy="60.872" rx="13.083" ry="11.646"/>
<ellipse fill="#DFB599" stroke="#000000" stroke-miterlimit="10" cx="377.084" cy="18.648" rx="13.083" ry="11.647"/>
<ellipse fill="#DFB599" stroke="#000000" stroke-miterlimit="10" cx="377.084" cy="60.872" rx="13.083" ry="11.646"/>
<ellipse fill="#FF0000" stroke="#000000" stroke-miterlimit="10" cx="537.084" cy="18.648" rx="13.083" ry="11.647"/>
<ellipse fill="#FF0000" stroke="#000000" stroke-miterlimit="10" cx="537.084" cy="60.872" rx="13.083" ry="11.646"/>
<ellipse fill="#DFB599" stroke="#000000" stroke-miterlimit="10" cx="463.084" cy="31.648" rx="13.083" ry="11.647"/>
<ellipse fill="#DFB599" stroke="#000000" stroke-miterlimit="10" cx="457.084" cy="52.872" rx="13.083" ry="11.646"/>
<ellipse fill="#DFB599" stroke="#000000" stroke-miterlimit="10" cx="624.667" cy="32.648" rx="13.083" ry="11.647"/>
<ellipse fill="#DFB599" stroke="#000000" stroke-miterlimit="10" cx="608.431" cy="64.517" rx="13.083" ry="11.647"/>
<circle fill="#DFB599" stroke="#000000" stroke-miterlimit="10" cx="31.833" cy="39.886" r="29.681"/>
<circle fill="#DFB599" stroke="#000000" stroke-miterlimit="10" cx="111.833" cy="39.886" r="29.681"/>
<circle fill="#DFB599" stroke="#000000" stroke-miterlimit="10" cx="191.833" cy="39.886" r="29.681"/>
<circle fill="#DFB599" stroke="#000000" stroke-miterlimit="10" cx="271.833" cy="39.886" r="29.681"/>
<circle fill="#DFB599" stroke="#000000" stroke-miterlimit="10" cx="351.833" cy="39.886" r="29.681"/>
<circle fill="#DFB599" stroke="#000000" stroke-miterlimit="10" cx="591.833" cy="39.886" r="29.681"/>
<ellipse fill="#DFB599" stroke="#000000" stroke-miterlimit="10" cx="704.667" cy="32.648" rx="13.083" ry="11.647"/>
<ellipse fill="#DFB599" stroke="#000000" stroke-miterlimit="10" cx="684.916" cy="59.873" rx="13.083" ry="11.647"/>
<circle fill="#DFB599" stroke="#000000" stroke-miterlimit="10" cx="671.833" cy="39.886" r="29.681"/>
<ellipse fill="#DFB599" stroke="#000000" stroke-miterlimit="10" cx="784.667" cy="32.648" rx="13.083" ry="11.647"/>
<ellipse fill="#DFB599" stroke="#000000" stroke-miterlimit="10" cx="762.203" cy="56.169" rx="13.083" ry="11.647"/>
<circle fill="#DFB599" stroke="#000000" stroke-miterlimit="10" cx="751.833" cy="39.886" r="29.681"/>
<circle fill="#DFB599" stroke="#000000" stroke-miterlimit="10" cx="431.833" cy="39.886" r="29.681"/>
<circle fill="#FF0000" stroke="#000000" stroke-miterlimit="10" cx="511.833" cy="39.886" r="29.681"/>
</svg>
