<?xml version="1.0" encoding="utf-8"?>
<!-- Generator: Adobe Illustrator 16.0.0, SVG Export Plug-In . SVG Version: 6.00 Build 0)  -->
<!DOCTYPE svg PUBLIC "-//W3C//DTD SVG 1.1//EN" "http://www.w3.org/Graphics/SVG/1.1/DTD/svg11.dtd">
<svg version="1.1" id="Layer_1" xmlns="http://www.w3.org/2000/svg" xmlns:xlink="http://www.w3.org/1999/xlink" x="0px" y="0px"
	 width="240px" height="80px" viewBox="0 0 240 80" enable-background="new 0 0 240 80" xml:space="preserve">
<g id="hands">
	<g>
		<g>
			<ellipse fill="#2EE81A" stroke="#000000" stroke-miterlimit="10" cx="61.533" cy="18.648" rx="13.083" ry="11.647"/>
			<ellipse fill="#2EE81A" stroke="#000000" stroke-miterlimit="10" cx="61.533" cy="60.872" rx="13.083" ry="11.646"/>
		</g>
	</g>
</g>
<circle fill="#FFFFFF" stroke="#000000" stroke-miterlimit="10" cx="36.282" cy="39.886" r="29.681"/>
<path fill="#FF7300" stroke="#000000" stroke-miterlimit="10" d="M39.592,58.221c-0.906-1.557-2.619-2.687-4.668-2.863
	c-1.404-0.123-2.732,0.221-3.803,0.892c-0.492-1.166-1.384-2.21-2.607-2.915c-1.231-0.711-2.587-0.936-3.85-0.771
	c0.054-1.273-0.288-2.605-1.105-3.771c-0.808-1.155-1.925-1.951-3.127-2.341c0.576-1.126,0.803-2.479,0.557-3.87
	c-0.245-1.389-0.92-2.583-1.845-3.443c0.998-0.777,1.775-1.909,2.14-3.272c0.368-1.371,0.255-2.748-0.228-3.924
	c1.236-0.281,2.425-0.954,3.333-2.037c0.908-1.083,1.364-2.369,1.427-3.634c1.243,0.271,2.619,0.144,3.906-0.457
	c1.278-0.596,2.257-1.558,2.849-2.674c1.009,0.763,2.303,1.221,3.714,1.221c3.221,0,5.833-2.388,5.833-5.334
	c0-0.138-0.011-0.274-0.022-0.409c2.211-0.378,4.027-1.943,4.466-4.107c0.588-2.886-1.496-5.746-4.653-6.389
	C40.39,7.811,38.903,8.076,37.7,8.75c-0.008-0.125-0.015-0.251-0.033-0.377c-0.415-2.916-3.339-4.91-6.528-4.455
	c-2.657,0.381-4.654,2.343-5.008,4.673c-1.653-1.673-4.404-2.103-6.775-0.855c-2.244,1.182-3.457,3.496-3.206,5.7l-0.249,0.249
	c-2.071-0.831-4.633-0.272-6.361,1.606c-1.813,1.973-2.104,4.742-0.91,6.77c-2.342-0.255-4.75,1.172-5.798,3.643
	c-1.043,2.463-0.404,5.177,1.393,6.688c-2.28,0.556-4.057,2.704-4.214,5.373c-0.155,2.67,1.358,5.01,3.558,5.831
	c-1.961,1.289-2.913,3.909-2.164,6.478c0.753,2.575,2.978,4.274,5.334,4.297c-1.422,1.874-1.458,4.655,0.113,6.827
	c1.569,2.166,4.223,3.021,6.444,2.264c-0.702,2.24,0.219,4.869,2.424,6.385c2.209,1.516,4.991,1.409,6.829-0.058
	c0.08,2.354,1.833,4.534,4.428,5.223c2.586,0.685,5.182-0.331,6.422-2.323c0.874,2.18,3.251,3.631,5.917,3.408
	c3.211-0.27,5.614-2.867,5.369-5.804c-0.076-0.897-0.393-1.722-0.885-2.427c2.408-1.51,3.464-4.417,2.356-6.858
	C45.067,58.609,42.267,57.484,39.592,58.221z"/>
<path fill="#FF0000" stroke="#000000" stroke-miterlimit="10" d="M63.584,39.886c0,2.521-0.175,4.667,1.872,5.482
	c0.569,0.228,1.185,0.351,1.826,0.351c2.946,0,5.334-2.611,5.334-5.833c0-3.221-2.388-5.833-5.334-5.833
	c-0.641,0-1.255,0.124-1.824,0.35C63.41,35.218,63.584,37.365,63.584,39.886z"/>
<path fill="#FF0000" d="M70.977,53.866c1.045,1.436-0.477,3.885-2.06,3.551s-2.083,3.083,0,2.333s4.167-2.583,4.167-0.5
	S71.167,59.667,71,61.667s1.917,1.666,1.25,3.083S70,66.333,69,65.833s-1.167-3.582-2.583-2.166s-0.053,3.167,0.682,3.25
	c0.735,0.083,1.735,0,1.735,1.083s-0.579,2.303-1.073,2.579c-0.494,0.276,4.855-2.496,6.156-7.246
	c1.005-3.673-0.992-8.647-2.75-9.833"/>
<path fill="#FF0000" d="M70.977,25.231c1.045-1.436-0.477-3.885-2.06-3.551s-2.083-3.083,0-2.333s4.167,2.583,4.167,0.5
	S71.167,19.431,71,17.431s1.917-1.666,1.25-3.083S70,12.765,69,13.265s-1.167,3.582-2.583,2.166s-0.053-3.167,0.682-3.25
	c0.735-0.083,1.735,0,1.735-1.083s-0.579-2.303-1.073-2.579c-0.494-0.276,4.855,2.496,6.156,7.246
	c1.005,3.673-0.992,8.648-2.75,9.833"/>
<path opacity="0.5" fill="#FFFFFF" stroke="#000000" stroke-miterlimit="10" d="M224.359,49.507c0.459-1.341,0.825-2.723,1.09-4.143
	c0.003,0.001,0.004,0.003,0.007,0.004c0.569,0.228,1.185,0.351,1.826,0.351c2.946,0,5.334-2.611,5.334-5.833
	c0-3.221-2.388-5.833-5.334-5.833c-0.642,0-1.255,0.124-1.824,0.35c-0.003,0.001-0.005,0.003-0.008,0.004
	c-0.28-1.501-0.672-2.962-1.169-4.375c5.905-1.125,10.335-5.792,10.335-11.385c0-6.433-5.857-11.647-13.083-11.647
	c-5.137,0-9.569,2.642-11.71,6.476c-1.101-0.566-2.238-1.071-3.414-1.498c-0.61-1.871-2.29-3.408-4.5-3.858
	c-1.519-0.309-3.005-0.043-4.208,0.631c-0.008-0.125-0.016-0.251-0.033-0.377c-0.415-2.916-3.339-4.91-6.527-4.455
	c-2.658,0.381-4.654,2.343-5.009,4.673c-1.653-1.673-4.403-2.103-6.774-0.855c-2.244,1.182-3.457,3.496-3.207,5.7l-0.248,0.249
	c-2.071-0.831-4.633-0.272-6.361,1.606c-1.812,1.973-2.104,4.742-0.91,6.77c-2.342-0.255-4.75,1.172-5.798,3.643
	c-1.043,2.463-0.403,5.177,1.394,6.688c-2.28,0.556-4.058,2.704-4.215,5.373c-0.154,2.67,1.358,5.01,3.559,5.831
	c-1.961,1.289-2.913,3.909-2.164,6.478c0.753,2.575,2.978,4.274,5.334,4.297c-1.422,1.874-1.458,4.655,0.113,6.827
	c1.568,2.166,4.223,3.021,6.443,2.264c-0.701,2.24,0.219,4.869,2.424,6.385c2.209,1.517,4.991,1.409,6.829-0.058
	c0.08,2.354,1.833,4.534,4.429,5.224c2.586,0.685,5.182-0.332,6.422-2.324c0.873,2.18,3.25,3.631,5.916,3.408
	c3.211-0.27,5.615-2.867,5.369-5.804c-0.055-0.643-0.236-1.245-0.514-1.796c2.014-0.554,3.94-1.314,5.758-2.258
	c2.182,3.728,6.555,6.277,11.604,6.277c7.226,0,13.083-5.214,13.083-11.646C234.616,55.305,230.225,50.657,224.359,49.507z"/>
<path opacity="0.5" fill="none" stroke="#000000" stroke-miterlimit="10" d="M223.584,39.886c0-2.512-0.17-4.651,1.854-5.473
	c-1.94-10.4-9.287-18.897-19.029-22.434c0.262,0.802,0.33,1.665,0.153,2.53c-0.439,2.164-2.256,3.729-4.467,4.107
	c0.012,0.135,0.022,0.271,0.022,0.409c0,2.946-2.612,5.334-5.833,5.334c-1.411,0-2.705-0.458-3.715-1.221
	c-0.592,1.116-1.57,2.078-2.848,2.674c-1.287,0.601-2.664,0.728-3.906,0.457c-0.063,1.265-0.52,2.551-1.428,3.634
	s-2.097,1.756-3.332,2.037c0.482,1.176,0.596,2.553,0.228,3.924c-0.365,1.363-1.142,2.495-2.14,3.272
	c0.924,0.86,1.6,2.054,1.845,3.443c0.245,1.391,0.019,2.744-0.558,3.87c1.202,0.39,2.319,1.186,3.127,2.341
	c0.817,1.166,1.159,2.498,1.105,3.771c1.263-0.164,2.619,0.061,3.85,0.771c1.223,0.705,2.115,1.749,2.607,2.915
	c1.07-0.671,2.398-1.015,3.803-0.892c2.049,0.177,3.762,1.307,4.668,2.863c2.676-0.736,5.475,0.389,6.565,2.788
	c1.108,2.441,0.052,5.349-2.356,6.858c0.14,0.2,0.261,0.412,0.371,0.631c10.839-2.982,19.183-11.957,21.271-23.137
	C223.412,44.541,223.584,42.4,223.584,39.886z"/>
<g id="hands_2_">
	<g>
		<g>
			<ellipse fill="#CE1515" stroke="#000000" stroke-miterlimit="10" cx="141.533" cy="18.648" rx="13.083" ry="11.647"/>
			<ellipse fill="#CE1515" stroke="#000000" stroke-miterlimit="10" cx="141.533" cy="60.872" rx="13.083" ry="11.646"/>
		</g>
	</g>
</g>
<circle fill="#FF6464" stroke="#000000" stroke-miterlimit="10" cx="116.282" cy="39.886" r="29.681"/>
<path fill="#C93912" stroke="#000000" stroke-miterlimit="10" d="M119.592,58.221c-0.906-1.557-2.619-2.687-4.668-2.863
	c-1.404-0.123-2.732,0.221-3.803,0.892c-0.492-1.166-1.385-2.21-2.607-2.915c-1.23-0.711-2.587-0.936-3.85-0.771
	c0.054-1.273-0.288-2.605-1.105-3.771c-0.808-1.155-1.925-1.951-3.127-2.341c0.576-1.126,0.803-2.479,0.558-3.87
	c-0.245-1.389-0.921-2.583-1.845-3.443c0.998-0.777,1.774-1.909,2.14-3.272c0.368-1.371,0.255-2.748-0.228-3.924
	c1.235-0.281,2.424-0.954,3.332-2.037s1.364-2.369,1.428-3.634c1.242,0.271,2.619,0.144,3.906-0.457
	c1.277-0.596,2.256-1.558,2.848-2.674c1.01,0.763,2.304,1.221,3.715,1.221c3.221,0,5.833-2.388,5.833-5.334
	c0-0.138-0.011-0.274-0.022-0.409c2.211-0.378,4.027-1.943,4.467-4.107c0.588-2.886-1.496-5.746-4.653-6.389
	c-1.519-0.309-3.005-0.043-4.208,0.631c-0.008-0.125-0.016-0.251-0.033-0.377c-0.415-2.916-3.339-4.91-6.527-4.455
	c-2.658,0.381-4.654,2.343-5.009,4.673c-1.653-1.673-4.403-2.103-6.774-0.855c-2.244,1.182-3.457,3.496-3.207,5.7l-0.248,0.249
	c-2.071-0.831-4.633-0.272-6.361,1.606c-1.812,1.973-2.104,4.742-0.91,6.77c-2.342-0.255-4.75,1.172-5.798,3.643
	c-1.043,2.463-0.403,5.177,1.394,6.688c-2.28,0.556-4.058,2.704-4.215,5.373c-0.154,2.67,1.358,5.01,3.559,5.831
	c-1.961,1.289-2.913,3.909-2.164,6.478c0.753,2.575,2.978,4.274,5.334,4.297c-1.422,1.874-1.458,4.655,0.113,6.827
	c1.568,2.166,4.223,3.021,6.443,2.264c-0.701,2.24,0.219,4.869,2.424,6.385c2.209,1.517,4.991,1.409,6.829-0.058
	c0.08,2.354,1.833,4.534,4.429,5.224c2.586,0.685,5.182-0.332,6.422-2.324c0.873,2.18,3.25,3.631,5.916,3.408
	c3.211-0.27,5.615-2.867,5.369-5.804c-0.076-0.897-0.393-1.721-0.885-2.427c2.408-1.51,3.465-4.417,2.356-6.858
	C125.066,58.609,122.268,57.484,119.592,58.221z"/>
<path fill="#FF0000" stroke="#000000" stroke-miterlimit="10" d="M143.584,39.886c0,2.521-0.175,4.667,1.872,5.482
	c0.569,0.228,1.185,0.351,1.826,0.351c2.946,0,5.334-2.611,5.334-5.833c0-3.221-2.388-5.833-5.334-5.833
	c-0.642,0-1.255,0.124-1.824,0.35C143.41,35.218,143.584,37.365,143.584,39.886z"/>
<path fill="#FF0000" d="M150.977,53.866c1.045,1.436-0.477,3.885-2.06,3.551s-2.083,3.083,0,2.333s4.167-2.583,4.167-0.5
	s-1.917,0.417-2.083,2.417s1.917,1.666,1.25,3.083S150,66.333,149,65.833s-1.167-3.582-2.583-2.166s-0.053,3.167,0.683,3.25
	c0.734,0.083,1.734,0,1.734,1.083s-0.579,2.303-1.072,2.579c-0.494,0.276,4.854-2.496,6.155-7.246
	c1.005-3.673-0.992-8.647-2.75-9.833"/>
<path fill="#FF0000" d="M150.977,25.231c1.045-1.436-0.477-3.885-2.06-3.551s-2.083-3.083,0-2.333s4.167,2.583,4.167,0.5
	s-1.917-0.417-2.083-2.417s1.917-1.666,1.25-3.083S150,12.765,149,13.265s-1.167,3.582-2.583,2.166s-0.053-3.167,0.683-3.25
	c0.734-0.083,1.734,0,1.734-1.083s-0.579-2.303-1.072-2.579c-0.494-0.276,4.854,2.496,6.155,7.246
	c1.005,3.673-0.992,8.648-2.75,9.833"/>
</svg>
