<?xml version="1.0" encoding="utf-8"?>
<!-- Generator: Adobe Illustrator 16.0.0, SVG Export Plug-In . SVG Version: 6.00 Build 0)  -->
<!DOCTYPE svg PUBLIC "-//W3C//DTD SVG 1.1//EN" "http://www.w3.org/Graphics/SVG/1.1/DTD/svg11.dtd">
<svg version="1.1" id="Layer_1" xmlns="http://www.w3.org/2000/svg" xmlns:xlink="http://www.w3.org/1999/xlink" x="0px" y="0px"
	 width="320px" height="80px" viewBox="0 0 320 80" enable-background="new 0 0 320 80" xml:space="preserve">
<g id="Layer_2">
	<path fill="#C93912" stroke="#7A1700" stroke-width="0.5" stroke-miterlimit="10" d="M177.526,33.923
		c-2.161,0.041-3.608-0.87-5.569-1.746c-2.812-1.255-5.863-1.329-8.873-1.548c-0.229-0.017-0.558,0-0.685,0.142
		c-0.366,0.407-0.914,0.893-0.904,1.336c0.013,0.513,0.425,1.261,0.869,1.477c1.534,0.739,3.163,1.278,4.746,1.917
		c1.616,0.652,3.272,0.846,4.877,0.122c1.423-0.644,2.843-0.696,4.312-0.398c1.677,0.34,3.336,0.762,5.014,1.088
		C182.529,36.549,180.447,34.958,177.526,33.923z"/>
	<path fill="#C93912" stroke="#7A1700" stroke-width="0.5" stroke-miterlimit="10" d="M232.68,52.898
		c-0.107-0.326-0.52-0.59-0.82-0.848c-0.534-0.457-1.091-0.889-1.639-1.33c0.125-0.037,0.248-0.07,0.373-0.105
		c-0.031-0.527,0.146-1.246-0.131-1.545c-1.051-1.139-0.94-1.854,0.57-2.361c-0.086-0.271-0.172-0.547-0.354-1.131
		c0.826,0,1.5-0.121,2.108,0.027c1.112,0.27,2.167,0.781,3.281,1.039c0.87,0.201,1.795,0.17,2.767,0.246
		c-0.154-1.404-0.98-1.672-1.797-1.844c-1.125-0.24-2.285-0.318-3.408-0.572c-0.688-0.154-1.512-0.295-1.601-1.309
		c0.915-0.439,2.095,0.375,3.049-0.807c-2.095,0-4.005,0.277-5.788-0.078c-1.787-0.357-3.447-1.35-5.162-2.063
		c0.022-0.051,0.047-0.102,0.069-0.152c0.269,0.049,0.538,0.097,0.983,0.177c-0.592-0.427-1.016-0.732-1.438-1.038
		c-0.009-0.138-0.018-0.275-0.026-0.414c1.084-0.419,2.152-0.881,3.254-1.247c0.972-0.322,2.023-0.426,2.959-0.82
		c4.423-1.868,5.574-4.629,2.283-2.885c-0.438,0.231-0.906,0.404-1.344,0.597c-0.238-0.59-0.419-1.033-0.599-1.476
		c-0.103,0.034-0.205,0.068-0.308,0.103c0.119,0.506,0.239,1.012,0.373,1.578c-0.43,0.165-0.865,0.461-1.312,0.48
		c-1.396,0.06-2.808,0.12-4.188-0.035c-0.675-0.075-0.951-0.644-0.492-1.443c0.486-0.85,0.806-1.811,1.105-2.753
		c0.799-2.502,1.258-5.175,3.746-6.775c-0.35-0.016-0.666,0.146-0.878,0.057c-1.335-0.557-1.937,0.408-2.642,1.197
		c-0.396,0.444-0.789,0.901-1.24,1.285c-0.323,0.275-0.838,0.702-1.102,0.606c-1.298-0.47-2.539-1.093-3.982-1.745
		c3.557-3.147,6.23-6.399,6.83-10.922c-0.766,0.889-1.321,1.905-1.913,2.899c-0.908,1.527-1.818,3.056-2.777,4.552
		c-0.338,0.527-0.772,0.609-1.412,0.218c-0.389-0.237-1.146-0.217-1.565,0.008c-1.084,0.576-2.03,1.41-3.111,1.993
		c-1.104,0.595-2.3,1.015-3.455,1.511c-0.066-0.116-0.135-0.233-0.201-0.35c0.104-0.306,0.204-0.61,0.322-0.962
		c-0.378,0.067-0.63,0.111-0.939,0.166c-0.045-0.641,0.027-1.228-0.141-1.735c-0.936-2.829-0.97-5.655-0.324-8.558
		c0.232-1.049-0.133-2.107-1.217-2.774c-1.473,1.167-0.93,2.673-0.855,4.101c0.062,1.243,0.164,2.506,0.018,3.733
		c-0.128,1.071-0.607,2.097-0.88,3.155c-0.233,0.909-0.247,1.918-1.403,2.42c-1.094-1.192-2.331-2.292-3.25-3.612
		c-0.908-1.307-1.497-2.836-2.226-4.267c-0.105,0.034-0.212,0.069-0.316,0.104c0.624,2.486,1.2,4.986,1.892,7.454
		c0.395,1.405,0.32,1.829-0.9,2.683c-1.822,1.272-3.473,0.517-4.938-0.588c-1.615-1.217-3.076-2.64-4.584-3.997
		c-0.256-0.23-0.396-0.589-0.597-0.882c-1.024-1.494-2.999,0.352-4.103-1.083c-0.725-0.942-1.269-1.835-1.271-3.103
		c-0.002-0.72-0.46-1.477-0.835-2.147c-0.849-1.515-1.753-2.999-2.675-4.47c-0.415-0.662-0.797-1.488-1.42-1.847
		c-1.881-1.083-3.008-2.788-4.215-4.472c-0.807-1.127-1.704-2.194-2.629-3.228c-0.502-0.559-1.18-0.887-1.863-0.224
		c-0.662,0.641-0.955,1.387-0.301,2.209c0.791,0.996,1.693,1.913,2.398,2.965c0.688,1.029,1.45,2.128,1.702,3.3
		c0.278,1.303,0.769,2.207,1.957,2.748c1.438,0.654,2.403,1.753,3.146,3.14c0.461,0.862,0.982,1.852,1.756,2.36
		c2.123,1.397,4.388,0.048,5.632,2.137c1.344,2.253,2.548,4.611,4.104,6.709c0.822,1.11,0.955,2.233,1.051,3.418
		c0.104,1.267-0.61,1.688-1.752,1.167c-0.533-0.243-1.037-0.551-1.597-0.852c-0.092,0.099-0.215,0.199-0.296,0.326
		c-0.884,1.369-2.174,2.105-3.686,2.673c-1.826,0.688-2.877-0.565-4.205-1.286c-1.625-0.883-3.324-1.632-5.02-2.38
		c-0.238-0.105-0.84,0.048-0.896,0.213c-0.111,0.316-0.088,0.853,0.119,1.074c0.393,0.417,0.938,0.701,1.444,0.995
		c1.544,0.893,3.202,1.626,4.628,2.678c1.816,1.341,3.523,2.897,2.452,5.641c0.315,0.11,0.56,0.239,0.815,0.278
		c1.488,0.229,1.763,0.783,0.996,2.135c-0.932,1.639-2.358,2.574-4.221,2.76c-1.462,0.146-16.113,2.447-17.558,2.676
		c-1.138,0.18-2.334,0.5-3.298,1.094c-0.939,0.578-0.848,1.387,0.169,1.795c1.057,0.426,2.295,0.766,3.394,0.635
		c1.555-0.188,16.189-3.342,17.741-3.646c1.491-0.295,3.047-0.494,4.556-0.404c1.666,0.1,2.453,1.176,2.651,2.99
		c0.123,1.117-0.403,1.74-2.003,2.385c-0.104,0.043-0.178,0.154-0.327,0.289c0.16,0.213,0.279,0.479,0.483,0.621
		c0.738,0.521,1.488,1.002,0.367,1.875c-0.051,0.041-0.105,0.152-0.086,0.191c0.672,1.27-0.254,2.238-0.634,3.297
		c-0.372,1.043-0.97,2.025-1.192,3.092c-0.104,0.49,0.449,1.119,0.705,1.688c0.398-0.281,0.887-0.49,1.182-0.855
		c0.495-0.613,0.809-1.373,1.309-1.979c0.588-0.715,1.514-0.777,2.141-0.273c0.342,0.273,0.23,1.148,0.258,1.756
		c0.01,0.211-0.145,0.457-0.282,0.646c-1.332,1.814-2.688,3.611-4.008,5.438c-0.381,0.529-0.713,1.109-0.955,1.713
		c-0.086,0.213,0.085,0.68,0.284,0.811c0.169,0.109,0.605-0.016,0.818-0.176c0.439-0.332,0.879-0.709,1.195-1.152
		c1.083-1.523,2.027-3.15,3.192-4.605c0.853-1.062,1.862-2.076,2.993-2.818c1.287-0.842,1.707-0.574,1.996,0.947
		c0.604,3.17,0.306,6.217-1.119,9.176c-0.592,1.229-0.979,2.621-1.152,3.977c-0.26,2.037,1.213,3.336,3.129,2.992
		c2.801-0.502,4.812-4.178,3.645-6.746c-0.478-1.047-1.051-2.059-1.686-3.02c-2.18-3.299-0.918-6.301,1.508-8.363
		c2.303-1.959,5.026-3.297,8.069-3.557c1.304-0.111,2.853,0.139,3.959,0.785c1.765,1.033,3.278,2.51,4.856,3.848
		c2.187,1.855,4.041,3.949,4.567,6.914c0.048,0.27,0.147,0.539,0.269,0.783c0.427,0.869,1.47,1.422,2.007,1.08
		c0.581-0.367,0.548-1.418-0.074-2.268c-0.022-0.031-0.054-0.059-0.073-0.094c-0.586-0.965-1.199-1.914-1.75-2.9
		c-0.6-1.074-1.088-2.215-1.72-3.27c-1-1.67-0.642-3.221,0.983-4.221c0.631-0.389,1.127-0.992,1.746-1.404
		c0.355-0.236,0.89-0.479,1.25-0.381c0.67,0.184,1.135,0.201,1.715-0.297c0.381-0.324,1.101-0.389,1.588-0.4
		C231.818,56.299,233.291,54.748,232.68,52.898z"/>
	<path fill="#C93912" stroke="#7A1700" stroke-width="0.5" stroke-miterlimit="10" d="M185.711,68.84
		c-1.735-0.012-3.523,1.621-3.512,3.205c0.01,1.371,1.368,2.436,3.122,2.445c1.874,0.01,3.417-1.488,3.375-3.281
		C188.67,70.039,187.17,68.848,185.711,68.84z"/>
	<path fill="#C93912" stroke="#7A1700" stroke-width="0.5" stroke-miterlimit="10" d="M186.379,25.339
		c-1.736-0.011-3.524,1.621-3.513,3.205c0.011,1.372,1.368,2.435,3.122,2.445c1.874,0.011,4.624,0.56,4.582-1.232
		C190.543,28.586,187.838,25.348,186.379,25.339z"/>
	<path fill="#C93912" stroke="#7A1700" stroke-width="0.5" stroke-miterlimit="10" d="M174.025,53.09
		c-1.736-0.012-3.523,1.621-3.512,3.205c0.01,1.371,1.367,2.436,3.121,2.445c1.875,0.01,12.477-3.359,12.435-5.15
		C186.043,52.418,175.484,53.098,174.025,53.09z"/>
	<path fill="#C93912" stroke="#7A1700" stroke-width="0.5" stroke-miterlimit="10" d="M175.711,37.075
		c-1.735-0.011-3.523,1.621-3.512,3.205c0.01,1.372,1.368,2.435,3.122,2.444c1.874,0.012,6.418-1.031,6.376-2.824
		C181.67,38.73,177.17,37.084,175.711,37.075z"/>
	<path fill="#C93912" stroke="#7A1700" stroke-width="0.5" stroke-miterlimit="10" d="M172.067,18.652
		c-1.615-0.638-3.872,0.237-4.435,1.718c-0.485,1.283,0.396,2.765,2.027,3.409c1.743,0.688,10.465,3.246,11.074,1.56
		C181.133,24.237,173.424,19.188,172.067,18.652z"/>
	<path fill="#C93912" stroke="#7A1700" stroke-width="0.5" stroke-miterlimit="10" d="M165.877,69.855
		c1.459,0.01,2.957,1.199,2.984,2.369c0.042,1.793-1.501,3.291-3.375,3.281c-1.754-0.012-3.111-1.074-3.122-2.445
		C162.352,71.477,164.139,69.844,165.877,69.855z"/>
</g>
<path fill="#7468AD" stroke="#1A1B27" stroke-width="2.9217" stroke-miterlimit="10" d="M32.017,76.887
	c22.831-2.192,39.729-17.8,39.729-36.916S54.848,5.248,32.017,3.054c0-0.258-0.259,6.837-0.903,6.966
	c-6.45-1.032-14.189,2.451-14.189,2.451s2.71,5.804,4.773,7.869c-3.999-0.774-13.545,2.966-16.512,7.611
	c0.517,4.901,4.386,6.707,4.644,6.707s-7.224,3.016-7.224,5.313c0,2.296,7.481,5.313,7.224,5.313s-4.127,1.808-4.644,6.708
	c2.967,4.644,12.513,8.384,16.512,7.61c-2.063,2.063-4.773,7.868-4.773,7.868s7.74,3.483,14.189,2.451
	C31.758,70.052,32.017,77.146,32.017,76.887z"/>
<path fill="#7468AD" d="M32.017,76.887c22.831-2.192,39.729-17.8,39.729-36.916S54.848,5.248,32.017,3.054
	c0-0.258-0.259,6.837-0.903,6.966c-6.45-1.032-14.189,2.451-14.189,2.451s2.71,5.804,4.773,7.869
	c-3.999-0.774-13.545,2.966-16.512,7.611c0.517,4.901,4.386,6.707,4.644,6.707s-7.224,3.016-7.224,5.313
	c0,2.296,7.481,5.313,7.224,5.313s-4.127,1.808-4.644,6.708c2.967,4.644,12.513,8.384,16.512,7.61
	c-2.063,2.063-4.773,7.868-4.773,7.868s7.74,3.483,14.189,2.451C31.758,70.052,32.017,77.146,32.017,76.887z"/>
<path fill="#9E89C0" d="M41.812,73.861c17.245-4.974,28.712-17.83,29.321-33.241l0.029-0.006c0-0.215-0.01-0.429-0.015-0.643
	c0.004-0.214,0.015-0.428,0.015-0.644l-0.029-0.005C70.524,23.912,59.057,11.055,41.812,6.08c0-0.247-4.043-1.217-6.04,0.828
	c0.196,3.457,2.162,7.282,3.994,9.251c-3.752,0.38-9.54,2.677-12.174,7.109c0.459,4.679,6.442,8.619,6.671,8.619
	s-9.301,3.75-9.447,8.083c0.146,4.333,9.676,8.083,9.447,8.083s-6.212,3.941-6.671,8.618c2.634,4.434,8.421,6.729,12.174,7.109
	c-1.833,1.971-3.798,5.794-3.994,9.252C37.769,75.079,41.812,74.107,41.812,73.861z"/>
<path fill="#574C9F" d="M33.705,14.991c-0.511-3.044-4.675-4.091-8.327-1.753C27.496,16.499,31.002,17.912,33.705,14.991z"/>
<path fill="#574C9F" d="M25.108,30.863c-0.762-4.241-6.971-5.698-12.417-2.442C15.849,32.964,21.078,34.933,25.108,30.863z"/>
<path fill="#574C9F" d="M33.705,64.952c-0.511,3.044-4.675,4.09-8.327,1.753C27.496,63.443,31.002,62.029,33.705,64.952z"/>
<path fill="#574C9F" d="M25.108,49.079c-0.762,4.24-6.971,5.698-12.417,2.442C15.849,46.979,21.078,45.01,25.108,49.079z"/>
<path fill="#1B1C28" d="M57.709,62.85c5.372-2.215,7.151-4.701,8.065-6.802c0.438,0.325,0.888,0.627,1.346,0.89
	c1.736,1.001,3.193,0.828,4.11,0.505c1.421-0.497,2.648-1.759,3.281-3.373c0.293-0.748,0.449-1.554,0.449-2.331
	c0-2.441-1.465-4.235-3.918-4.797c-0.114-0.026-0.23-0.047-0.346-0.069l0.121-0.383c0.48,0.128,0.961,0.23,1.438,0.31
	c2.173,0.354,3.614-0.407,4.439-1.109c1.393-1.183,2.224-3.219,2.224-5.446s-0.831-4.263-2.224-5.447
	c-0.825-0.701-2.266-1.463-4.439-1.108c-0.561,0.092-1.127,0.222-1.691,0.382l-0.144-0.398c0.21-0.038,0.417-0.08,0.622-0.126
	c2.454-0.562,3.918-2.356,3.918-4.798c0-0.776-0.156-1.583-0.449-2.331c-0.633-1.614-1.86-2.875-3.281-3.374
	c-0.917-0.32-2.374-0.495-4.11,0.506c-0.458,0.263-0.907,0.564-1.346,0.889c-0.915-2.098-2.694-4.586-8.065-6.802
	c-2.888-1.19-5.515-1.366-7.399-0.493c-1.224,0.568-2.092,1.556-2.511,2.856c-0.202,0.626-0.304,1.235-0.304,1.809l0,0
	c0,2.103,1.288,3.375,2.602,4.218c-1.761,0.121-2.882,0.769-3.54,1.367c-0.94,0.856-1.458,2.066-1.458,3.408v0.068
	c0.021,1.604,0.541,2.888,1.468,3.769c-1.207,0.141-2.243,0.542-3.057,1.205c-0.973,0.792-1.595,1.921-1.828,3.297l-0.109,0.06
	v0.867c0,0.065,0.003,0.126,0.007,0.16c-0.004,0.062-0.007,0.124-0.007,0.188l0.016,0.875l0.094,0.052
	c0.233,1.376,0.855,2.504,1.827,3.296c0.815,0.664,1.851,1.065,3.058,1.207c-0.927,0.88-1.448,2.164-1.468,3.769v0.067
	c0,1.342,0.517,2.553,1.458,3.408c0.658,0.599,1.779,1.248,3.54,1.366c-1.314,0.845-2.602,2.117-2.602,4.22
	c0,0.574,0.103,1.183,0.304,1.808c0.419,1.302,1.287,2.289,2.511,2.858C52.194,64.216,54.821,64.04,57.709,62.85z"/>
<path fill="#C8E6DB" d="M59.708,31.902c0,0-3.58-4.236-8.254-4.675c-3.128-0.293-4.921,1.169-4.894,3.354
	c0.037,2.87,1.972,3.586,3.506,3.659C51.6,34.312,59.708,31.902,59.708,31.902z"/>
<path fill="#C8E6DB" d="M65.354,27.189c-1.017-2.448-1.117-5.552-8.201-8.474c-3.712-1.53-7.087-1.257-7.962,1.461
	c-1.149,3.569,2.227,4.601,3.944,5.551C56.567,27.627,61.972,26.093,65.354,27.189z"/>
<path fill="#78CEE0" d="M77.457,39.971c0-2.556-1.388-5.697-4.966-5.113c-3.58,0.584-7.524,2.849-8.984,5.113
	c1.46,2.265,5.405,4.529,8.984,5.112C76.069,45.669,77.457,42.527,77.457,39.971z"/>
<path fill="#78CEE0" d="M73.152,26.678c-0.717-1.826-2.678-3.646-5.303-2.134c-2.623,1.511-5.061,4.334-5.564,6.398
	c1.772,1.172,5.479,1.583,8.431,0.907C73.667,31.173,73.868,28.505,73.152,26.678z"/>
<path fill="#C8E6DB" d="M48.956,44.062c3.53-0.539,6.449-1.832,7.956-4.017c0.025-0.016,0.05-0.03,0.074-0.046
	c-0.006-0.01-0.014-0.019-0.02-0.028c0.006-0.009,0.014-0.018,0.02-0.028c-0.024-0.016-0.049-0.031-0.074-0.046
	c-1.506-2.185-4.426-3.478-7.956-4.016c-3.454-0.527-5.743,0.781-5.906,3.907l-0.015,0.009c0,0.061,0.006,0.115,0.007,0.174
	c-0.001,0.059-0.007,0.114-0.007,0.174l0.015,0.009C43.213,43.279,45.501,44.588,48.956,44.062z"/>
<path fill="#78CEE0" d="M53.134,25.728c0.667,0.37,1.411,0.607,2.199,0.761c-2.714-3.518-1.534-6.656,0.044-8.37
	c-2.967-0.775-5.454-0.218-6.187,2.058C48.041,23.746,51.417,24.778,53.134,25.728z"/>
<path fill="#78CEE0" d="M50.067,34.239c0.34,0.016,1.006-0.091,1.835-0.266c-1.289-1.629-2.947-3.838-2.077-6.731
	c-2.112,0.271-3.288,1.566-3.265,3.338C46.597,33.45,48.532,34.166,50.067,34.239z"/>
<path fill="#78CEE0" d="M43.05,39.788l-0.015,0.009c0,0.061,0.006,0.115,0.007,0.174c-0.001,0.059-0.007,0.114-0.007,0.174
	l0.015,0.009c0.149,2.858,2.079,4.191,5.05,3.996c-2.586-3.479-0.979-6.691,0.269-8.341C45.245,35.513,43.204,36.843,43.05,39.788z"
	/>
<path fill="#00A1CD" d="M70.107,31.462c0.231-0.037,0.459-0.078,0.683-0.129c2.556-0.586,2.73-2.896,2.11-4.479
	c-0.523-1.332-1.812-2.653-3.563-2.258C70.502,26.072,71.646,28.782,70.107,31.462z"/>
<path fill="#C8E6DB" d="M59.708,48.041c0,0-3.58,4.236-8.254,4.676c-3.128,0.293-4.921-1.17-4.894-3.354
	c0.037-2.869,1.972-3.585,3.506-3.658C51.6,45.632,59.708,48.041,59.708,48.041z"/>
<path fill="#C8E6DB" d="M65.354,52.754c-1.017,2.447-1.117,5.552-8.201,8.473c-3.712,1.531-7.087,1.257-7.962-1.46
	c-1.149-3.57,2.227-4.603,3.944-5.553C56.567,52.314,61.972,53.849,65.354,52.754z"/>
<path fill="#78CEE0" d="M73.152,53.263c-0.717,1.828-2.678,3.646-5.303,2.136c-2.623-1.511-5.061-4.334-5.564-6.398
	c1.772-1.171,5.479-1.584,8.431-0.908C73.667,48.77,73.868,51.437,73.152,53.263z"/>
<path fill="#78CEE0" d="M53.134,54.214c0.667-0.369,1.411-0.605,2.199-0.76c-2.714,3.518-1.534,6.655,0.044,8.367
	c-2.967,0.777-5.454,0.22-6.187-2.055C48.041,56.196,51.417,55.164,53.134,54.214z"/>
<path fill="#78CEE0" d="M50.067,45.704c0.34-0.017,1.006,0.091,1.835,0.265c-1.289,1.63-2.947,3.839-2.077,6.73
	c-2.112-0.27-3.288-1.566-3.265-3.337C46.597,46.493,48.532,45.777,50.067,45.704z"/>
<path fill="#00A1CD" d="M69.827,48.336c0.236,0.04,0.471,0.081,0.7,0.135c2.616,0.614,2.794,3.031,2.159,4.687
	c-0.535,1.395-1.855,2.776-3.647,2.364C70.231,53.977,71.402,51.143,69.827,48.336z"/>
<path fill="#00A1CD" d="M77.202,40.018c0-2.423-1.159-5.401-4.148-4.848c-0.085,0.016-0.172,0.039-0.257,0.057
	c1.864,2.271,2.306,6.964,0.36,9.65C76.067,45.343,77.202,42.412,77.202,40.018z"/>
<path fill="#C8E6DB" d="M66.051,29.307c-1.038-2.118-3.214,1.408-3.214,1.408S67.294,31.844,66.051,29.307z"/>
<path fill="#C8E6DB" d="M67.744,40.008c0-2.788-3.508-0.008-3.508-0.008S67.744,42.835,67.744,40.008z"/>
<path fill="#C8E6DB" d="M66.051,50.635c-1.038,2.119-3.214-1.407-3.214-1.407S67.294,48.1,66.051,50.635z"/>
<path fill="#7468AD" stroke="#D30000" stroke-width="2.9217" stroke-miterlimit="10" d="M112.017,76.887
	c22.831-2.192,39.729-17.8,39.729-36.916S134.848,5.248,112.017,3.054c0-0.258-0.259,6.837-0.903,6.966
	c-6.45-1.032-14.189,2.451-14.189,2.451s2.71,5.804,4.773,7.869c-3.999-0.774-13.545,2.966-16.512,7.611
	c0.517,4.901,4.386,6.707,4.644,6.707s-7.224,3.016-7.224,5.313c0,2.296,7.481,5.313,7.224,5.313s-4.127,1.808-4.644,6.708
	c2.967,4.644,12.513,8.384,16.512,7.61c-2.063,2.063-4.773,7.868-4.773,7.868s7.74,3.483,14.189,2.451
	C111.758,70.052,112.017,77.146,112.017,76.887z"/>
<path fill="#7468AD" d="M112.017,76.887c22.831-2.192,39.729-17.8,39.729-36.916S134.848,5.248,112.017,3.054
	c0-0.258-0.259,6.837-0.903,6.966c-6.45-1.032-14.189,2.451-14.189,2.451s2.71,5.804,4.773,7.869
	c-3.999-0.774-13.545,2.966-16.512,7.611c0.517,4.901,4.386,6.707,4.644,6.707s-7.224,3.016-7.224,5.313
	c0,2.296,7.481,5.313,7.224,5.313s-4.127,1.808-4.644,6.708c2.967,4.644,12.513,8.384,16.512,7.61
	c-2.063,2.063-4.773,7.868-4.773,7.868s7.74,3.483,14.189,2.451C111.758,70.052,112.017,77.146,112.017,76.887z"/>
<path fill="#9E89C0" d="M121.812,73.861c17.245-4.974,28.712-17.83,29.321-33.241l0.029-0.006c0-0.215-0.01-0.429-0.015-0.643
	c0.004-0.214,0.015-0.428,0.015-0.644l-0.029-0.005c-0.608-15.411-12.076-28.268-29.321-33.243c0-0.247-4.043-1.217-6.04,0.828
	c0.196,3.457,2.162,7.282,3.994,9.251c-3.752,0.38-9.54,2.677-12.174,7.109c0.459,4.679,6.442,8.619,6.671,8.619
	s-9.301,3.75-9.447,8.083c0.146,4.333,9.676,8.083,9.447,8.083s-6.212,3.941-6.671,8.618c2.634,4.434,8.421,6.729,12.174,7.109
	c-1.833,1.971-3.798,5.794-3.994,9.252C117.769,75.079,121.812,74.107,121.812,73.861z"/>
<path fill="#574C9F" d="M113.705,14.991c-0.511-3.044-4.675-4.091-8.327-1.753C107.496,16.499,111.002,17.912,113.705,14.991z"/>
<path fill="#574C9F" d="M105.108,30.863c-0.762-4.241-6.971-5.698-12.417-2.442C95.849,32.964,101.078,34.933,105.108,30.863z"/>
<path fill="#574C9F" d="M113.705,64.952c-0.511,3.044-4.675,4.09-8.327,1.753C107.496,63.443,111.002,62.029,113.705,64.952z"/>
<path fill="#574C9F" d="M105.108,49.079c-0.762,4.24-6.971,5.698-12.417,2.442C95.849,46.979,101.078,45.01,105.108,49.079z"/>
<path fill="#912207" d="M137.709,62.85c5.372-2.215,7.151-4.701,8.065-6.802c0.438,0.325,0.888,0.627,1.346,0.89
	c1.736,1.001,3.193,0.828,4.11,0.505c1.421-0.497,2.648-1.759,3.281-3.373c0.293-0.748,0.449-1.554,0.449-2.331
	c0-2.441-1.465-4.235-3.918-4.797c-0.114-0.026-0.23-0.047-0.346-0.069l0.121-0.383c0.48,0.128,0.961,0.23,1.438,0.31
	c2.173,0.354,3.614-0.407,4.439-1.109c1.393-1.183,2.224-3.219,2.224-5.446s-0.831-4.263-2.224-5.447
	c-0.825-0.701-2.266-1.463-4.439-1.108c-0.561,0.092-1.127,0.222-1.691,0.382l-0.144-0.398c0.21-0.038,0.417-0.08,0.622-0.126
	c2.454-0.562,3.918-2.356,3.918-4.798c0-0.776-0.156-1.583-0.449-2.331c-0.633-1.614-1.86-2.875-3.281-3.374
	c-0.917-0.32-2.374-0.495-4.11,0.506c-0.458,0.263-0.907,0.564-1.346,0.889c-0.915-2.098-2.694-4.586-8.065-6.802
	c-2.888-1.19-5.515-1.366-7.399-0.493c-1.224,0.568-2.092,1.556-2.511,2.856c-0.202,0.626-0.304,1.235-0.304,1.809l0,0
	c0,2.103,1.288,3.375,2.602,4.218c-1.761,0.121-2.882,0.769-3.54,1.367c-0.94,0.856-1.458,2.066-1.458,3.408v0.068
	c0.021,1.604,0.541,2.888,1.468,3.769c-1.207,0.141-2.243,0.542-3.057,1.205c-0.973,0.792-1.595,1.921-1.828,3.297l-0.109,0.06
	v0.867c0,0.065,0.003,0.126,0.007,0.16c-0.004,0.062-0.007,0.124-0.007,0.188l0.016,0.875l0.094,0.052
	c0.233,1.376,0.855,2.504,1.827,3.296c0.815,0.664,1.851,1.065,3.058,1.207c-0.927,0.88-1.448,2.164-1.468,3.769v0.067
	c0,1.342,0.517,2.553,1.458,3.408c0.658,0.599,1.779,1.248,3.54,1.366c-1.314,0.845-2.602,2.117-2.602,4.22
	c0,0.574,0.103,1.183,0.304,1.808c0.419,1.302,1.287,2.289,2.511,2.858C132.194,64.216,134.821,64.04,137.709,62.85z"/>
<path fill="#C8E6DB" d="M139.708,31.902c0,0-3.58-4.236-8.254-4.675c-3.128-0.293-4.921,1.169-4.894,3.354
	c0.037,2.87,1.972,3.586,3.506,3.659C131.6,34.312,139.708,31.902,139.708,31.902z"/>
<path fill="#C8E6DB" d="M145.354,27.189c-1.017-2.448-1.117-5.552-8.201-8.474c-3.712-1.53-7.087-1.257-7.962,1.461
	c-1.149,3.569,2.227,4.601,3.944,5.551C136.567,27.627,141.972,26.093,145.354,27.189z"/>
<path fill="#78CEE0" d="M157.457,39.971c0-2.556-1.388-5.697-4.966-5.113c-3.58,0.584-7.524,2.849-8.984,5.113
	c1.46,2.265,5.405,4.529,8.984,5.112C156.069,45.669,157.457,42.527,157.457,39.971z"/>
<path fill="#78CEE0" d="M153.152,26.678c-0.717-1.826-2.678-3.646-5.303-2.134c-2.623,1.511-5.061,4.334-5.564,6.398
	c1.772,1.172,5.479,1.583,8.431,0.907C153.667,31.173,153.868,28.505,153.152,26.678z"/>
<path fill="#C8E6DB" d="M128.956,44.062c3.53-0.539,6.449-1.832,7.956-4.017c0.025-0.016,0.05-0.03,0.074-0.046
	c-0.006-0.01-0.014-0.019-0.02-0.028c0.006-0.009,0.014-0.018,0.02-0.028c-0.024-0.016-0.049-0.031-0.074-0.046
	c-1.506-2.185-4.426-3.478-7.956-4.016c-3.454-0.527-5.743,0.781-5.906,3.907l-0.015,0.009c0,0.061,0.006,0.115,0.007,0.174
	c-0.001,0.059-0.007,0.114-0.007,0.174l0.015,0.009C123.213,43.279,125.501,44.588,128.956,44.062z"/>
<path fill="#78CEE0" d="M133.134,25.728c0.667,0.37,1.411,0.607,2.199,0.761c-2.714-3.518-1.534-6.656,0.044-8.37
	c-2.967-0.775-5.454-0.218-6.187,2.058C128.041,23.746,131.417,24.778,133.134,25.728z"/>
<path fill="#78CEE0" d="M130.067,34.239c0.34,0.016,1.006-0.091,1.835-0.266c-1.289-1.629-2.947-3.838-2.077-6.731
	c-2.112,0.271-3.288,1.566-3.265,3.338C126.597,33.45,128.532,34.166,130.067,34.239z"/>
<path fill="#78CEE0" d="M123.05,39.788l-0.015,0.009c0,0.061,0.006,0.115,0.007,0.174c-0.001,0.059-0.007,0.114-0.007,0.174
	l0.015,0.009c0.149,2.858,2.079,4.191,5.05,3.996c-2.586-3.479-0.979-6.691,0.269-8.341
	C125.245,35.513,123.204,36.843,123.05,39.788z"/>
<path fill="#00A1CD" d="M149.928,31.999c0.267-0.042,0.531-0.09,0.789-0.149c2.951-0.676,3.152-3.344,2.436-5.171
	c-0.604-1.538-2.092-3.063-4.113-2.606C150.384,25.775,151.705,28.904,149.928,31.999z"/>
<path fill="#C8E6DB" d="M139.708,48.041c0,0-3.58,4.236-8.254,4.676c-3.128,0.293-4.921-1.17-4.894-3.354
	c0.037-2.869,1.972-3.585,3.506-3.658C131.6,45.632,139.708,48.041,139.708,48.041z"/>
<path fill="#C8E6DB" d="M145.354,52.754c-1.017,2.447-1.117,5.552-8.201,8.473c-3.712,1.531-7.087,1.257-7.962-1.46
	c-1.149-3.57,2.227-4.603,3.944-5.553C136.567,52.314,141.972,53.849,145.354,52.754z"/>
<path fill="#78CEE0" d="M153.152,53.263c-0.717,1.828-2.678,3.646-5.303,2.136c-2.623-1.511-5.061-4.334-5.564-6.398
	c1.772-1.171,5.479-1.584,8.431-0.908C153.667,48.77,153.868,51.437,153.152,53.263z"/>
<path fill="#78CEE0" d="M133.134,54.214c0.667-0.369,1.411-0.605,2.199-0.76c-2.714,3.518-1.534,6.655,0.044,8.367
	c-2.967,0.777-5.454,0.22-6.187-2.055C128.041,56.196,131.417,55.164,133.134,54.214z"/>
<path fill="#78CEE0" d="M130.067,45.704c0.34-0.017,1.006,0.091,1.835,0.265c-1.289,1.63-2.947,3.839-2.077,6.73
	c-2.112-0.27-3.288-1.566-3.265-3.337C126.597,46.493,128.532,45.777,130.067,45.704z"/>
<path fill="#00A1CD" d="M149.928,47.943c0.267,0.044,0.531,0.089,0.789,0.148c2.951,0.678,3.152,3.345,2.436,5.171
	c-0.604,1.539-2.092,3.063-4.113,2.607C150.384,54.166,151.705,51.039,149.928,47.943z"/>
<path fill="#C8E6DB" d="M146.051,29.307c-1.038-2.118-3.214,1.408-3.214,1.408S147.294,31.844,146.051,29.307z"/>
<path fill="#C8E6DB" d="M147.744,40.008c0-2.788-3.508-0.008-3.508-0.008S147.744,42.835,147.744,40.008z"/>
<path fill="#C8E6DB" d="M146.051,50.635c-1.038,2.119-3.214-1.407-3.214-1.407S147.294,48.1,146.051,50.635z"/>
</svg>
