<?xml version="1.0" encoding="utf-8"?>
<!-- Generator: Adobe Illustrator 16.0.0, SVG Export Plug-In . SVG Version: 6.00 Build 0)  -->
<!DOCTYPE svg PUBLIC "-//W3C//DTD SVG 1.1//EN" "http://www.w3.org/Graphics/SVG/1.1/DTD/svg11.dtd">
<svg version="1.1" xmlns="http://www.w3.org/2000/svg" xmlns:xlink="http://www.w3.org/1999/xlink" x="0px" y="0px" width="576px"
	 height="192px" viewBox="0 0 576 192" enable-background="new 0 0 576 192" xml:space="preserve">
<g id="bg">
	<image overflow="visible" width="576" height="192" xlink:href="tiles-1.png"  transform="matrix(0.9999 0 0 0.9999 0 0)">
	</image>
</g>
<g id="Layer_2">
	<polygon opacity="0.21" points="464.083,28.5 461.166,38.584 466.083,30.167 468.083,39.75 468.833,31.75 473.083,39 471.499,32 
		477.083,37.334 475.083,31.834 480,36 484.999,34.917 480.499,33.5 476.249,28.5 483.749,29.5 474.916,25.584 480,22.584 
		482.083,22.167 478.249,21 473.583,23.625 479.166,15.417 471.249,20.084 470.999,14.334 473.666,7.5 469.333,12.25 
		467.916,18.417 466.166,14.667 461.166,10.834 463.833,16 465.916,21.417 461.166,17.417 455.166,14.834 456.916,17.75 
		459.333,20.417 462.499,26 458.416,24.25 453.583,22.917 452.166,21.417 453.083,24.25 457.916,26.084 461.499,27.667 
		457.916,30.834 462.083,28.834 	"/>
	<polygon opacity="0.21" points="484.999,15.667 482.666,16.417 485.499,17.125 486.414,19.621 486.883,17.059 491.583,15.25 
		486.249,15 485.582,11 	"/>
	<rect fill="none" stroke="#F15D22" stroke-miterlimit="10" width="64" height="64"/>
	<rect x="64" fill="none" stroke="#F15D22" stroke-miterlimit="10" width="64" height="64"/>
	<rect x="128" fill="none" stroke="#F15D22" stroke-miterlimit="10" width="64" height="64"/>
	<rect x="192" fill="none" stroke="#F15D22" stroke-miterlimit="10" width="64" height="64"/>
	<rect x="256" fill="none" stroke="#F15D22" stroke-miterlimit="10" width="64" height="64"/>
	<rect x="320" fill="none" stroke="#F15D22" stroke-miterlimit="10" width="64" height="64"/>
	<rect x="384" fill="none" stroke="#F15D22" stroke-miterlimit="10" width="64" height="64"/>
	<rect x="448" fill="none" stroke="#F15D22" stroke-miterlimit="10" width="64" height="64"/>
	<rect x="512" fill="none" stroke="#F15D22" stroke-miterlimit="10" width="64" height="64"/>
	<polygon fill="#50C2C0" stroke="#F15D22" stroke-miterlimit="10" points="64,128 54.75,119.5 52.25,95.988 32,84.25 17,82.25 
		8.5,75.75 0,64 64,64 	"/>
	<rect x="64" y="64" fill="none" stroke="#F15D22" stroke-miterlimit="10" width="64" height="64"/>
	<rect x="128" y="64" fill="none" stroke="#F15D22" stroke-miterlimit="10" width="64" height="64"/>
	<rect x="192" y="64" fill="none" stroke="#F15D22" stroke-miterlimit="10" width="64" height="64"/>
	<rect x="256" y="64" fill="none" stroke="#F15D22" stroke-miterlimit="10" width="64" height="64"/>
	<rect x="320" y="64" fill="none" stroke="#F15D22" stroke-miterlimit="10" width="64" height="64"/>
	<rect x="384" y="64" fill="#F1F2F2" stroke="#000000" stroke-width="0.25" stroke-miterlimit="10" width="16" height="16"/>
	<rect x="400" y="64" fill="#D1D3D4" stroke="#000000" stroke-width="0.25" stroke-miterlimit="10" width="16" height="16"/>
	<rect x="416" y="64" fill="#F1F2F2" stroke="#000000" stroke-width="0.25" stroke-miterlimit="10" width="16" height="16"/>
	<rect x="432" y="64" fill="#BCBEC0" stroke="#000000" stroke-width="0.25" stroke-miterlimit="10" width="16" height="16"/>
	<rect x="384" y="80" fill="#D1D3D4" stroke="#000000" stroke-width="0.25" stroke-miterlimit="10" width="16" height="16"/>
	<rect x="400" y="80" fill="#BCBEC0" stroke="#000000" stroke-width="0.25" stroke-miterlimit="10" width="16" height="16"/>
	<rect x="416" y="80" fill="#D1D3D4" stroke="#000000" stroke-width="0.25" stroke-miterlimit="10" width="16" height="16"/>
	<rect x="432" y="80" fill="#F1F2F2" stroke="#000000" stroke-width="0.25" stroke-miterlimit="10" width="16" height="16"/>
	<rect x="384" y="96" fill="#D1D3D4" stroke="#000000" stroke-width="0.25" stroke-miterlimit="10" width="16" height="16"/>
	<rect x="400" y="96" fill="#F1F2F2" stroke="#000000" stroke-width="0.25" stroke-miterlimit="10" width="16" height="16"/>
	<rect x="416" y="96" fill="#D1D3D4" stroke="#000000" stroke-width="0.25" stroke-miterlimit="10" width="16" height="16"/>
	<rect x="432" y="96" fill="#D1D3D4" stroke="#000000" stroke-width="0.25" stroke-miterlimit="10" width="16" height="16"/>
	<rect x="384" y="112" fill="#F1F2F2" stroke="#000000" stroke-width="0.25" stroke-miterlimit="10" width="16" height="16"/>
	<rect x="400" y="112" fill="#D1D3D4" stroke="#000000" stroke-width="0.25" stroke-miterlimit="10" width="16" height="16"/>
	<rect x="416" y="112" fill="#F1F2F2" stroke="#000000" stroke-width="0.25" stroke-miterlimit="10" width="16" height="16"/>
	<rect x="432" y="112" fill="#BCBEC0" stroke="#000000" stroke-width="0.25" stroke-miterlimit="10" width="16" height="16"/>
	<rect x="448" y="64" fill="#50C2C0" stroke="#F15D22" stroke-miterlimit="10" width="64" height="64"/>
	<rect x="512" y="64" fill="#50C2C0" stroke="#F15D22" stroke-miterlimit="10" width="64" height="64"/>
	<rect y="128" fill="none" stroke="#F15D22" stroke-miterlimit="10" width="64" height="64"/>
	<polygon fill="#50C2C0" stroke="#F15D22" stroke-miterlimit="10" points="128,132.25 77,130.625 64,128 128,128 	"/>
	<polygon fill="#50C2C0" stroke="#F15D22" stroke-miterlimit="10" points="140.75,133.25 128,132.25 128,128 172,128 	"/>
	<polygon fill="#50C2C0" stroke="#F15D22" stroke-miterlimit="10" points="256,192 192,192 206.5,186.5 247,189 	"/>
	<polygon fill="#50C2C0" stroke="#F15D22" stroke-miterlimit="10" points="320,192 256,192 260.75,179.75 259,169 263.75,160 
		264,147 256,131.5 256,128 320,128 	"/>
	<polygon fill="#50C2C0" stroke="#F15D22" stroke-miterlimit="10" points="560.75,174.25 512,192 512,128 576,128 	"/>
	<polygon fill="#50C2C0" stroke="#F15D22" stroke-miterlimit="10" points="384,192 320,192 321.812,176.598 329.985,163.245 
		335,144 354.912,131.498 384,128 	"/>
	<polygon fill="#50C2C0" stroke="#F15D22" stroke-miterlimit="10" points="448,192 384,192 384,128 413,139 431.255,173.129 
		442.227,178.017 	"/>
	<polygon fill="#50C2C0" stroke="#F15D22" stroke-miterlimit="10" points="512,192 499.75,184.75 487,186 452.75,169.25 448,137 
		448,128 512,128 	"/>
	<circle fill="#735745" stroke="#000000" stroke-miterlimit="10" cx="557.25" cy="88" r="10.75"/>
	<polygon fill="#735745" stroke="#000000" stroke-miterlimit="10" points="531.5,11.25 540.75,13.25 552.25,6.5 561,8 568,16.25 
		568,25.5 562.25,32 551.75,29 540.5,38.75 524.5,21.5 	"/>
	<polygon fill="#735745" stroke="#000000" stroke-miterlimit="10" points="549,37.25 557.25,38.75 559.5,47.75 568,55.5 565,61 
		546.5,56 546.25,49.125 549.75,47.75 546.25,41 	"/>
	<polygon fill="#7FAB40" points="464.083,27.5 461.166,37.584 466.083,29.167 468.083,38.75 468.833,30.75 473.083,38 471.499,31 
		477.083,36.334 475.083,30.834 480,35 484.999,33.917 480.499,32.5 476.249,27.5 483.749,28.5 474.916,24.584 480,21.584 
		482.083,21.167 478.249,20 473.583,22.625 479.166,14.417 471.249,19.084 470.999,13.334 473.666,6.5 469.333,11.25 
		467.916,17.417 466.166,13.667 461.166,9.834 463.833,15 465.916,20.417 461.166,16.417 455.166,13.834 456.916,16.75 
		459.333,19.417 462.499,25 458.416,23.25 453.583,21.917 452.166,20.417 453.083,23.25 457.916,25.084 461.499,26.667 
		457.916,29.834 462.083,27.834 	"/>
	<polygon fill="#7FAB40" points="484.999,14.667 482.666,15.417 485.499,16.125 486.414,18.621 486.883,16.059 491.583,14.25 
		486.249,14 485.582,10 	"/>
</g>
</svg>
