<?xml version="1.0" encoding="utf-8"?>
<!-- Generator: Adobe Illustrator 16.0.0, SVG Export Plug-In . SVG Version: 6.00 Build 0)  -->
<!DOCTYPE svg PUBLIC "-//W3C//DTD SVG 1.1//EN" "http://www.w3.org/Graphics/SVG/1.1/DTD/svg11.dtd">
<svg version="1.1" xmlns="http://www.w3.org/2000/svg" xmlns:xlink="http://www.w3.org/1999/xlink" x="0px" y="0px" width="64px"
	 height="64px" viewBox="0 0 64 64" enable-background="new 0 0 64 64" xml:space="preserve">
<g id="main">
</g>
<g id="Layer_2">
	<path fill="#4A773D" stroke="#000000" stroke-linecap="round" stroke-linejoin="round" stroke-miterlimit="10" d="M14.075,17.664
		l-0.95-7.789H11.75l-0.654,7.789H8.656v8.207l4.591,2.218L3,50.047l15.078,2.217l7.373-18.061l3.718,2.203h8.649l2.994-2.994
		v-5.324h4.191V24.5l16-1.875l-16-1.75v-3.211H14.075z M38.151,32.856l-1.553,1.553h-6.875l-3.105-2.218l1.553-4.103h0.455
		l2.171,4.511L32,32.938l-1.501-4.849h7.652V32.856z"/>
	
		<rect x="47.25" y="17.625" fill="#1BEAEA" stroke="#000000" stroke-linecap="round" stroke-linejoin="round" stroke-miterlimit="10" width="3.75" height="10"/>
	
		<rect x="53.125" y="17.625" fill="#1BEAEA" stroke="#000000" stroke-linecap="round" stroke-linejoin="round" stroke-miterlimit="10" width="3.75" height="10"/>
</g>
</svg>
